<svg aria-hidden="true" role="img" viewBox="0 0 64 64" fill="none" xmlns="http://www.w3.org/2000/svg">
<path d="M30.1662 4.01117C30.0457 4.02211 29.6626 4.06043 29.3177 4.0878C21.3638 4.80491 13.9136 9.0966 9.19492 15.6929C6.56735 19.3605 4.8868 23.5208 4.25181 27.9275C4.02737 29.4657 4 29.9201 4 32.0057C4 34.0913 4.02737 34.5457 4.25181 36.0839C5.77361 46.5996 13.2567 55.4348 23.4057 58.7083C25.2231 59.2941 27.139 59.6937 29.3177 59.9345C30.1662 60.0276 33.8338 60.0276 34.6823 59.9345C38.443 59.5185 41.6289 58.5879 44.7711 56.984C45.2528 56.7377 45.3458 56.672 45.2802 56.6172C45.2364 56.5844 43.1836 53.8309 40.7202 50.5027L36.2424 44.4538L30.6315 36.1496C27.5441 31.5842 25.0041 27.8509 24.9822 27.8509C24.9603 27.8454 24.9384 31.5349 24.9275 36.0401C24.911 43.9283 24.9056 44.2458 24.807 44.4319C24.6647 44.7001 24.5552 44.8096 24.3253 44.93C24.1501 45.0176 23.9969 45.034 23.1703 45.034H22.2233L21.9715 44.8753C21.8072 44.7713 21.6868 44.6344 21.6047 44.4757L21.4897 44.2293L21.5007 33.2538L21.5171 22.2727L21.6868 22.0593C21.7744 21.9443 21.9605 21.7965 22.0919 21.7253C22.3163 21.6159 22.4039 21.6049 23.3509 21.6049C24.4676 21.6049 24.6538 21.6487 24.9439 21.9662C25.026 22.0538 28.0641 26.6301 31.6989 32.1425C35.3337 37.655 40.3042 45.1818 42.7457 48.8769L47.1797 55.5936L47.4041 55.4458C49.3912 54.1539 51.4933 52.3146 53.1574 50.3987C56.6991 46.3314 58.9818 41.3719 59.7482 36.0839C59.9726 34.5457 60 34.0913 60 32.0057C60 29.9201 59.9726 29.4657 59.7482 27.9275C58.2264 17.4118 50.7433 8.57656 40.5943 5.30305C38.8043 4.7228 36.8993 4.32319 34.7644 4.08233C34.2389 4.02759 30.6205 3.96737 30.1662 4.01117ZM41.6289 20.948C41.8917 21.0794 42.1052 21.3312 42.1818 21.594C42.2256 21.7363 42.2366 24.7799 42.2256 31.6389L42.2092 41.4813L40.4739 38.8209L38.7331 36.1605V29.0059C38.7331 24.3803 38.755 21.7801 38.7879 21.6542C38.8755 21.3476 39.0671 21.1068 39.3298 20.9644C39.5543 20.8495 39.6364 20.8385 40.4958 20.8385C41.306 20.8385 41.4483 20.8495 41.6289 20.948Z" fill="currentColor"/>
</svg>
