<svg aria-hidden="true" role="img" viewBox="0 0 64 64" fill="none" xmlns="http://www.w3.org/2000/svg">
<path d="M32.001 37.1739C34.886 37.1739 37.2247 34.8352 37.2247 31.9502C37.2247 29.0653 34.886 26.7266 32.001 26.7266C29.1161 26.7266 26.7773 29.0653 26.7773 31.9502C26.7773 34.8352 29.1161 37.1739 32.001 37.1739Z" fill="#00D8FF"/>
<path fill-rule="evenodd" clip-rule="evenodd" d="M32.0005 21.3291C39.014 21.3291 45.5293 22.3355 50.4419 24.0267C56.3608 26.0644 60 29.1531 60 31.9499C60 34.8644 56.1432 38.1457 49.787 40.2517C44.9816 41.8438 38.6581 42.6749 32.0005 42.6749C25.1746 42.6749 18.7109 41.8948 13.8513 40.2342C7.70313 38.1327 4 34.8089 4 31.9499C4 29.1758 7.47468 26.111 13.3104 24.0764C18.2413 22.3572 24.9175 21.3291 31.9995 21.3291H32.0005Z" stroke="#00D8FF" stroke-width="2.73408"/>
<path fill-rule="evenodd" clip-rule="evenodd" d="M22.756 26.6708C26.2599 20.5953 30.3864 15.454 34.3057 12.0432C39.0278 7.93378 43.5215 6.32442 45.9442 7.72147C48.4691 9.17746 49.3847 14.1579 48.0337 20.716C47.0133 25.6742 44.5732 31.5671 41.2472 37.3344C37.8371 43.2475 33.9324 48.4571 30.0665 51.8362C25.1747 56.1125 20.4453 57.66 17.9686 56.2317C15.5654 54.8468 14.6464 50.3049 15.7993 44.233C16.7734 39.1027 19.2179 32.8057 22.7549 26.6707L22.756 26.6708Z" stroke="#00D8FF" stroke-width="2.73408"/>
<path fill-rule="evenodd" clip-rule="evenodd" d="M22.7638 37.3504C19.2501 31.2817 16.8578 25.1378 15.8592 20.0389C14.6572 13.8955 15.5071 9.19841 17.9276 7.79729C20.4499 6.33703 25.2221 8.03095 30.229 12.4767C34.0146 15.8379 37.9018 20.8939 41.2375 26.6558C44.6574 32.5632 47.2206 38.548 48.2177 43.5848C49.4794 49.9587 48.4582 54.8287 45.9839 56.2611C43.583 57.651 39.1897 56.1794 34.505 52.1481C30.5469 48.7422 26.3122 43.4793 22.7638 37.3503V37.3504Z" stroke="#00D8FF" stroke-width="2.73408"/>
</svg>
