<svg aria-hidden="true" role="img" viewBox="0 0 40 40" fill="none" xmlns="http://www.w3.org/2000/svg">
<g clip-path="url(#clip0_756_2218)">
<path d="M36.6704 21.7054L31.6411 18.8214L30.7736 18.4463L10.1992 18.587V29.0324H36.6704V21.7054Z" fill="white"/>
<path d="M27.5146 28.0711C27.7608 27.227 27.667 26.4533 27.2567 25.8788C26.8815 25.3513 26.2485 25.0465 25.4865 25.0113L11.0551 24.8237C10.9613 24.8237 10.8792 24.7769 10.8323 24.7065C10.7854 24.6362 10.7737 24.5424 10.7972 24.4486C10.8441 24.3079 10.9847 24.2024 11.1371 24.1907L25.6975 24.0031C27.4208 23.9211 29.2965 22.526 29.953 20.8144L30.7854 18.6456C30.8206 18.5518 30.8323 18.458 30.8088 18.3642C29.871 14.1204 26.0844 10.9551 21.5592 10.9551C17.3857 10.9551 13.8452 13.6514 12.5791 17.3912C11.7585 16.7816 10.7151 16.4533 9.58967 16.5588C7.58498 16.7581 5.97888 18.3642 5.77959 20.3689C5.73269 20.8847 5.76786 21.3888 5.8851 21.8578C2.6143 21.9515 0 24.6245 0 27.9187C0 28.2118 0.0234466 28.5049 0.0586165 28.7979C0.0820631 28.9386 0.199295 29.0441 0.339975 29.0441H26.9753C27.1277 29.0441 27.2684 28.9386 27.3153 28.7862L27.5146 28.0711Z" fill="#F38020"/>
<path d="M32.1105 18.7979C31.9816 18.7979 31.8409 18.7979 31.7119 18.8096C31.6181 18.8096 31.5361 18.8799 31.5009 18.9737L30.9382 20.9315C30.692 21.7756 30.7858 22.5493 31.1961 23.1238C31.5713 23.6513 32.2043 23.9561 32.9663 23.9913L36.0378 24.1788C36.1316 24.1788 36.2137 24.2257 36.2606 24.2961C36.3075 24.3664 36.3192 24.4719 36.2957 24.554C36.2489 24.6947 36.1082 24.8002 35.9558 24.8119L32.7553 24.9995C31.0203 25.0815 29.1563 26.4766 28.4998 28.1882L28.2653 28.7861C28.2184 28.9033 28.3005 29.0206 28.4294 29.0206H39.4259C39.5548 29.0206 39.6721 28.9385 39.7072 28.8096C39.8948 28.1296 40.0003 27.4145 40.0003 26.6759C40.0003 22.3383 36.4599 18.7979 32.1105 18.7979Z" fill="#FAAE40"/>
</g>
<defs>
<clipPath id="clip0_756_2218">
<rect width="40" height="40" fill="white"/>
</clipPath>
</defs>
</svg>
