<svg aria-hidden="true" role="img" viewBox="0 0 40 40" fill="none" xmlns="http://www.w3.org/2000/svg">
<path fill-rule="evenodd" clip-rule="evenodd" d="M36 20C36 23.1645 35.0617 26.2579 33.3035 28.8891C31.5454 31.5203 29.0466 33.5711 26.123 34.7821C23.1993 35.9931 19.9823 36.3099 16.8786 35.6926C13.7749 35.0752 10.9239 33.5513 8.6863 31.3137C6.44866 29.0761 4.92481 26.2251 4.30744 23.1214C3.69008 20.0177 4.00693 16.8007 5.21794 13.8771C6.42894 10.9534 8.4797 8.45459 11.1109 6.69649C13.7421 4.93838 16.8355 4 20 4C24.2435 4 28.3132 5.68571 31.3137 8.68629C34.3143 11.6869 36 15.7565 36 20Z" fill="#52BD94"/>
<path d="M28.9573 16.502H18.1726C17.9673 16.502 17.8008 16.6684 17.8008 16.8738V18.1299C17.8008 18.3353 17.9673 18.5018 18.1726 18.5018H28.9573C29.1626 18.5018 29.3291 18.3353 29.3291 18.1299V16.8738C29.3291 16.6684 29.1626 16.502 28.9573 16.502Z" fill="white"/>
<path d="M21.8245 21.499H11.0398C10.8345 21.499 10.668 21.6655 10.668 21.8709V23.127C10.668 23.3324 10.8345 23.4988 11.0398 23.4988H21.8245C22.0298 23.4988 22.1963 23.3324 22.1963 23.127V21.8709C22.1963 21.6655 22.0298 21.499 21.8245 21.499Z" fill="white"/>
<path fill-rule="evenodd" clip-rule="evenodd" d="M12.0515 17.8699C12.1452 17.8942 12.2448 17.8813 12.3292 17.8338C12.4137 17.7863 12.4764 17.708 12.5044 17.6152C13.1 15.7448 14.3733 14.1645 16.0742 13.1847C17.7752 12.2049 19.7811 11.8964 21.6979 12.3197C21.7905 12.339 21.887 12.3219 21.9674 12.2719C22.0478 12.222 22.1059 12.1431 22.1298 12.0515L22.4552 10.8372C22.468 10.7883 22.4708 10.7374 22.4634 10.6874C22.456 10.6374 22.4386 10.5895 22.4122 10.5464C22.3857 10.5034 22.3509 10.4661 22.3097 10.4369C22.2685 10.4077 22.2218 10.3872 22.1724 10.3765C19.7504 9.83034 17.2115 10.2172 15.0621 11.46C12.9126 12.7028 11.3107 14.7102 10.5757 17.0817C10.5616 17.1293 10.5573 17.1792 10.5629 17.2284C10.5685 17.2777 10.584 17.3253 10.6084 17.3685C10.6328 17.4117 10.6656 17.4495 10.7049 17.4797C10.7442 17.51 10.7891 17.532 10.8371 17.5446L12.0515 17.8699Z" fill="white"/>
<path fill-rule="evenodd" clip-rule="evenodd" d="M27.9491 22.1301C27.8553 22.1059 27.7558 22.1188 27.6714 22.1663C27.5869 22.2138 27.5242 22.2921 27.4962 22.3849C26.9006 24.2553 25.6273 25.8356 23.9263 26.8154C22.2253 27.7952 20.2195 28.1037 18.3027 27.6804C18.2101 27.6611 18.1136 27.6782 18.0332 27.7282C17.9528 27.7781 17.8946 27.857 17.8708 27.9486L17.5454 29.1629C17.5326 29.2118 17.5298 29.2627 17.5373 29.3126C17.5447 29.3626 17.5621 29.4105 17.5885 29.4535C17.6149 29.4965 17.6498 29.5338 17.691 29.563C17.7322 29.5921 17.7789 29.6127 17.8282 29.6234C20.2502 30.1696 22.7891 29.7827 24.9385 28.54C27.0879 27.2972 28.6899 25.2899 29.425 22.9184C29.439 22.8708 29.4433 22.8209 29.4377 22.7717C29.4321 22.7224 29.4166 22.6748 29.3922 22.6316C29.3679 22.5884 29.3351 22.5506 29.2958 22.5204C29.2565 22.4901 29.2115 22.4681 29.1635 22.4555L27.9491 22.1301Z" fill="white"/>
<path d="M25.6961 14.3052C26.3016 14.3052 26.7925 13.8143 26.7925 13.2088C26.7925 12.6032 26.3016 12.1123 25.6961 12.1123C25.0905 12.1123 24.5996 12.6032 24.5996 13.2088C24.5996 13.8143 25.0905 14.3052 25.6961 14.3052Z" fill="white"/>
<path d="M14.3015 27.8872C14.9071 27.8872 15.398 27.3963 15.398 26.7908C15.398 26.1852 14.9071 25.6943 14.3015 25.6943C13.696 25.6943 13.2051 26.1852 13.2051 26.7908C13.2051 27.3963 13.696 27.8872 14.3015 27.8872Z" fill="white"/>
</svg>
