<svg aria-hidden="true" role="img" viewBox="0 0 40 40" fill="none" xmlns="http://www.w3.org/2000/svg">
<g clip-path="url(#clip0_756_2216)">
<path fill-rule="evenodd" clip-rule="evenodd" d="M32.9215 24.7635C34.345 24.5905 37.4847 24.218 38.0435 24.9364C38.6022 25.6415 37.4182 28.6082 36.886 29.9253C36.7264 30.3244 37.0723 30.484 37.4315 30.1781C39.7729 28.2091 40.3849 24.0983 39.906 23.4996C39.4271 22.9142 35.3162 22.4087 32.8151 24.1648C32.4293 24.4442 32.4958 24.8167 32.9215 24.7635ZM20.0184 31.9608C25.4862 31.9608 31.8454 30.2447 36.2223 27.0119C36.9407 26.4797 36.3154 25.6682 35.5837 26.0008C30.6747 28.0762 25.3399 29.0872 20.484 29.0872C13.2867 29.0872 6.3289 27.105 0.688127 23.8323C0.19589 23.5396 -0.176613 24.0451 0.235801 24.4176C5.45085 29.1272 12.3555 31.9608 20.0184 31.9608Z" fill="#FF9900"/>
<path d="M11.3315 16.7274C11.3315 17.2196 11.3847 17.6187 11.4778 17.9114C11.5842 18.2041 11.7173 18.5234 11.9035 18.8693C11.97 18.9757 11.9967 19.0821 11.9967 19.1752C11.9967 19.3083 11.9168 19.4413 11.7439 19.5744L10.9057 20.1331C10.786 20.2129 10.6663 20.2528 10.5599 20.2528C10.4268 20.2528 10.2938 20.1863 10.1607 20.0666C9.97449 19.867 9.81484 19.6542 9.68181 19.4413C9.54877 19.2152 9.41573 18.9624 9.26939 18.6564C8.2317 19.8803 6.92794 20.4923 5.3581 20.4923C4.24059 20.4923 3.34925 20.173 2.69736 19.5344C2.04548 18.8959 1.71289 18.0444 1.71289 16.9801C1.71289 15.8493 2.112 14.9314 2.92353 14.2396C3.73505 13.5478 4.81265 13.2019 6.18293 13.2019C6.63526 13.2019 7.10089 13.2418 7.59313 13.3083C8.08536 13.3748 8.5909 13.4813 9.12305 13.601V12.6298C9.12305 11.6187 8.91019 10.9136 8.49778 10.5012C8.07206 10.0888 7.35366 9.88925 6.32927 9.88925C5.86364 9.88925 5.38471 9.94247 4.89247 10.0622C4.40024 10.1819 3.9213 10.3283 3.45568 10.5145C3.24282 10.6077 3.08317 10.6609 2.99005 10.6875C2.89692 10.7141 2.8304 10.7274 2.77719 10.7274C2.59093 10.7274 2.49781 10.5944 2.49781 10.315V9.66309C2.49781 9.45023 2.52442 9.29059 2.59093 9.19746C2.65745 9.10434 2.77719 9.01121 2.96344 8.91808C3.42907 8.67862 3.98782 8.47906 4.6397 8.31942C5.29159 8.14647 5.98338 8.06665 6.71508 8.06665C8.29822 8.06665 9.45564 8.42585 10.2007 9.14425C10.9324 9.86265 11.3049 10.9536 11.3049 12.417V16.7274H11.3315ZM5.93016 18.7495C6.36919 18.7495 6.82151 18.6697 7.30044 18.5101C7.77938 18.3504 8.2051 18.0577 8.5643 17.6586C8.77716 17.4058 8.9368 17.1265 9.01662 16.8072C9.09644 16.4879 9.14966 16.1021 9.14966 15.6498V15.091C8.76385 14.9979 8.35144 14.9181 7.92572 14.8648C7.5 14.8116 7.08759 14.785 6.67517 14.785C5.78382 14.785 5.13194 14.958 4.69292 15.3172C4.2539 15.6764 4.04104 16.1819 4.04104 16.8471C4.04104 17.4724 4.20068 17.938 4.53327 18.2573C4.85256 18.5899 5.31819 18.7495 5.93016 18.7495ZM16.613 20.1863C16.3736 20.1863 16.2139 20.1464 16.1075 20.0533C16.0011 19.9735 15.9079 19.7872 15.8281 19.5344L12.7017 9.25068C12.6219 8.9846 12.582 8.81165 12.582 8.71853C12.582 8.50567 12.6884 8.38594 12.9013 8.38594H14.2051C14.4578 8.38594 14.6308 8.42585 14.7239 8.51897C14.8303 8.59879 14.9102 8.78505 14.99 9.03782L17.225 17.8449L19.3004 9.03782C19.3669 8.77174 19.4467 8.59879 19.5532 8.51897C19.6596 8.43915 19.8458 8.38594 20.0853 8.38594H21.1496C21.4024 8.38594 21.5753 8.42585 21.6817 8.51897C21.7882 8.59879 21.8813 8.78505 21.9345 9.03782L24.0365 17.9513L26.338 9.03782C26.4179 8.77174 26.511 8.59879 26.6041 8.51897C26.7105 8.43915 26.8835 8.38594 27.123 8.38594H28.3602C28.5731 8.38594 28.6928 8.49237 28.6928 8.71853C28.6928 8.78505 28.6795 8.85157 28.6662 8.93139C28.6529 9.01121 28.6263 9.11764 28.5731 9.26398L25.3669 19.5477C25.287 19.8138 25.1939 19.9868 25.0875 20.0666C24.9811 20.1464 24.8081 20.1996 24.582 20.1996H23.4378C23.1851 20.1996 23.0121 20.1597 22.9057 20.0666C22.7993 19.9735 22.7061 19.8005 22.6529 19.5344L20.5908 10.9536L18.5421 19.5211C18.4756 19.7872 18.3957 19.9602 18.2893 20.0533C18.1829 20.1464 17.9966 20.1863 17.7572 20.1863H16.613ZM33.7083 20.5455C33.0165 20.5455 32.3247 20.4657 31.6595 20.3061C30.9943 20.1464 30.4755 19.9735 30.1296 19.7739C29.9167 19.6542 29.7704 19.5211 29.7172 19.4014C29.664 19.2817 29.6374 19.1486 29.6374 19.0289V18.3504C29.6374 18.071 29.7438 17.938 29.9433 17.938C30.0232 17.938 30.103 17.9513 30.1828 17.9779C30.2626 18.0045 30.3824 18.0577 30.5154 18.1109C30.9677 18.3105 31.46 18.4701 31.9788 18.5766C32.511 18.683 33.0298 18.7362 33.5619 18.7362C34.4001 18.7362 35.052 18.5899 35.5043 18.2972C35.9566 18.0045 36.1961 17.5788 36.1961 17.0333C36.1961 16.6608 36.0763 16.3549 35.8369 16.1021C35.5974 15.8493 35.1451 15.6232 34.4932 15.4103L32.5642 14.8116C31.593 14.5056 30.8746 14.0533 30.4356 13.4546C29.9966 12.8693 29.7704 12.2174 29.7704 11.5256C29.7704 10.9669 29.8901 10.4746 30.1296 10.0489C30.3691 9.62318 30.6883 9.25068 31.0875 8.95799C31.4866 8.65201 31.9389 8.42585 32.471 8.2662C33.0032 8.10656 33.5619 8.04004 34.1473 8.04004C34.44 8.04004 34.746 8.05334 35.0387 8.09325C35.3446 8.13316 35.624 8.18638 35.9034 8.23959C36.1695 8.30611 36.4222 8.37263 36.6617 8.45245C36.9012 8.53228 37.0874 8.6121 37.2205 8.69192C37.4067 8.79835 37.5398 8.90478 37.6196 9.02451C37.6994 9.13094 37.7393 9.27728 37.7393 9.46354V10.0888C37.7393 10.3682 37.6329 10.5145 37.4333 10.5145C37.3269 10.5145 37.1539 10.4613 36.9278 10.3549C36.1695 10.009 35.318 9.83604 34.3735 9.83604C33.6152 9.83604 33.0165 9.95577 32.6041 10.2085C32.1917 10.4613 31.9788 10.8471 31.9788 11.3926C31.9788 11.7651 32.1118 12.0844 32.3779 12.3371C32.644 12.5899 33.1362 12.8427 33.8413 13.0688L35.7304 13.6675C36.6883 13.9735 37.3801 14.3992 37.7925 14.9447C38.2049 15.4901 38.4045 16.1154 38.4045 16.8072C38.4045 17.3792 38.2848 17.8981 38.0586 18.3504C37.8191 18.8027 37.4998 19.2018 37.0874 19.5211C36.675 19.8537 36.1828 20.0932 35.6107 20.2661C35.0121 20.4524 34.3868 20.5455 33.7083 20.5455Z" fill="currentColor"/>
</g>
<defs>
<clipPath id="clip0_756_2216">
<rect width="40" height="40" fill="white"/>
</clipPath>
</defs>
</svg>
