<svg aria-hidden="true" role="img" viewBox="0 0 32 32" fill="none" xmlns="http://www.w3.org/2000/svg">
<path d="M3.43318 16.4782V20.7347H0.394531V8.18931H5.42432C6.38815 8.18931 7.23944 8.36738 7.97818 8.72352C8.72269 9.07391 9.29695 9.57653 9.70095 10.2314C10.1107 10.8805 10.3156 11.6186 10.3156 12.4458C10.3156 13.6693 9.87409 14.6487 8.99106 15.3839C8.11381 16.1134 6.90758 16.4782 5.37238 16.4782H3.43318ZM3.43318 14.1432H5.42432C6.01301 14.1432 6.46029 13.9967 6.76618 13.7038C7.07784 13.4108 7.23366 12.9972 7.23366 12.463C7.23366 11.8771 7.07495 11.4089 6.75752 11.0585C6.44009 10.7081 6.00724 10.5301 5.45895 10.5243H3.43318V14.1432Z" fill="#00B3FF"/>
<path d="M14.8866 20.7347H11.9605V7.5H14.8866V20.7347Z" fill="#00B3FF"/>
<path d="M20.4358 16.6678L21.9941 11.4118H25.1193L21.3015 22.2942L21.137 22.6906C20.5945 23.8969 19.6364 24.5 18.2628 24.5C17.8819 24.5 17.4808 24.4426 17.0595 24.3277V22.2511H17.4404C17.8502 22.2511 18.1618 22.1908 18.3754 22.0702C18.5947 21.9553 18.7563 21.7457 18.8602 21.4412L19.0939 20.8208L15.8389 11.4118H18.9554L20.4358 16.6678Z" fill="#00B3FF"/>
<path d="M31.5515 14.0398L30.5906 13.9709C29.6729 13.9709 29.0843 14.2581 28.8245 14.8325V20.7347H25.9071V11.4118H28.6427L28.738 12.6095C29.2285 11.6961 29.9125 11.2395 30.7897 11.2395C31.1014 11.2395 31.3726 11.2739 31.6035 11.3429L31.5515 14.0398Z" fill="#00B3FF"/>
</svg>
