<svg width="21" height="26" viewBox="0 0 21 26" fill="none" xmlns="http://www.w3.org/2000/svg">
<g clip-path="url(#clip0_5742_2924)">
<path d="M2.83772 20.4812V23.1253L4.94969 23.9131L12.9783 18.3482L9.53082 17.0262L2.83772 20.4812Z" fill="url(#paint0_linear_5742_2924)"/>
<path d="M10.4587 6.01935V15.2814L14.935 16.9877L18.8678 14.2591V11.884L10.4587 6.01935Z" fill="url(#paint1_linear_5742_2924)"/>
<path d="M8.47871 15.3621L2.83772 18.2675V2.94098L4.83322 2.10317L8.47871 4.63966V15.3621Z" fill="url(#paint2_linear_5742_2924)"/>
<path fill-rule="evenodd" clip-rule="evenodd" d="M4.56138 0.0796216C4.87837 -0.0549267 5.24317 -0.0171684 5.52519 0.179381L20.4282 10.5658C20.6927 10.7501 20.85 11.0502 20.85 11.3703V14.7704C20.85 15.0912 20.6919 15.3919 20.4265 15.5761L5.65718 25.8218C5.38648 26.0096 5.03918 26.0519 4.73058 25.9346L1.48762 24.7021C1.10351 24.5561 0.849976 24.1909 0.849976 23.7836L0.849982 2.30356C0.849982 1.91006 1.08684 1.5544 1.45219 1.39933L4.56138 0.0796216ZM2.89794 2.92663C2.86141 2.94213 2.83772 2.9777 2.83772 3.01705L2.83772 18.1032C2.83772 18.1771 2.9169 18.2246 2.98307 18.1905L8.41752 15.3846C8.45036 15.3677 8.47095 15.334 8.47095 15.2974L8.47095 4.68987C8.47095 4.65786 8.45522 4.62785 8.42877 4.60943L4.88005 2.1362C4.85185 2.11655 4.81537 2.11277 4.78367 2.12622L2.89794 2.92663ZM10.6153 6.13328C10.5494 6.08739 10.4587 6.13401 10.4587 6.21373L10.4587 15.2059C10.4587 15.2465 10.4839 15.283 10.5222 15.2977L14.8808 16.9672C14.9117 16.9791 14.9465 16.9749 14.9737 16.956L18.8199 14.2878C18.8464 14.2694 18.8622 14.2394 18.8622 14.2073V11.9319C18.8622 11.8999 18.8465 11.8699 18.8201 11.8515L10.6153 6.13328ZM2.90148 23.1317C2.86307 23.1171 2.83772 23.0806 2.83772 23.0399L2.83772 20.5444C2.83772 20.5078 2.85831 20.4742 2.89114 20.4572L9.49236 17.0489C9.51771 17.0358 9.54753 17.0342 9.57419 17.0444L12.7971 18.2789C12.8713 18.3073 12.8834 18.4061 12.8183 18.4513L4.99272 23.88C4.96565 23.8988 4.93092 23.903 4.90006 23.8913L2.90148 23.1317Z" fill="#111827"/>
</g>
<defs>
<linearGradient id="paint0_linear_5742_2924" x1="5.12284" y1="26.2723" x2="23.1932" y2="10.9587" gradientUnits="userSpaceOnUse">
<stop stop-color="#E11D48"/>
<stop offset="0.0001" stop-color="#E11D48"/>
<stop offset="1" stop-color="#F43F5E"/>
</linearGradient>
<linearGradient id="paint1_linear_5742_2924" x1="22.2508" y1="13.1812" x2="1.10406" y2="22.7241" gradientUnits="userSpaceOnUse">
<stop stop-color="#DB2777"/>
<stop offset="1" stop-color="#EC4899"/>
</linearGradient>
<linearGradient id="paint2_linear_5742_2924" x1="1.08657" y1="1.20461" x2="5.85792" y2="23.9406" gradientUnits="userSpaceOnUse">
<stop stop-color="#EA580C"/>
<stop offset="1" stop-color="#F97316"/>
</linearGradient>
<clipPath id="clip0_5742_2924">
<rect width="20" height="26" fill="white" transform="translate(0.849976)"/>
</clipPath>
</defs>
</svg>
