<svg width="132" height="26" viewBox="0 0 132 26" fill="none" xmlns="http://www.w3.org/2000/svg">
<g clip-path="url(#clip0_5742_2920)">
<path d="M1.9897 20.4812V23.1253L4.10167 23.9131L12.1303 18.3482L8.68279 17.0262L1.9897 20.4812Z" fill="url(#paint0_linear_5742_2920)"/>
<path d="M9.61067 6.01935V15.2814L14.087 16.9877L18.0197 14.2591V11.884L9.61067 6.01935Z" fill="url(#paint1_linear_5742_2920)"/>
<path d="M7.63069 15.3621L1.9897 18.2675V2.94098L3.9852 2.10317L7.63069 4.63966V15.3621Z" fill="url(#paint2_linear_5742_2920)"/>
<path fill-rule="evenodd" clip-rule="evenodd" d="M3.71336 0.0796216C4.03035 -0.0549267 4.39515 -0.0171684 4.67717 0.179381L19.5802 10.5658C19.8446 10.7501 20.002 11.0502 20.002 11.3703V14.7704C20.002 15.0912 19.8439 15.3919 19.5785 15.5761L4.80916 25.8218C4.53846 26.0096 4.19115 26.0519 3.88256 25.9346L0.639602 24.7021C0.255485 24.5561 0.00195312 24.1909 0.00195312 23.7836L0.0019594 2.30356C0.00195952 1.91006 0.238822 1.5544 0.604167 1.39933L3.71336 0.0796216ZM2.04992 2.92663C2.01339 2.94213 1.9897 2.9777 1.9897 3.01705L1.9897 18.1032C1.9897 18.1771 2.06888 18.2246 2.13505 18.1905L7.5695 15.3846C7.60233 15.3677 7.62293 15.334 7.62293 15.2974L7.62292 4.68987C7.62292 4.65786 7.60719 4.62785 7.58075 4.60943L4.03202 2.1362C4.00382 2.11655 3.96734 2.11277 3.93564 2.12622L2.04992 2.92663ZM9.76727 6.13328C9.70142 6.08739 9.61067 6.13401 9.61067 6.21373L9.61067 15.2059C9.61067 15.2465 9.63591 15.283 9.67419 15.2977L14.0328 16.9672C14.0637 16.9791 14.0985 16.9749 14.1257 16.956L17.9719 14.2878C17.9984 14.2694 18.0142 14.2394 18.0142 14.2073V11.9319C18.0142 11.8999 17.9985 11.8699 17.972 11.8515L9.76727 6.13328ZM2.05346 23.1317C2.01505 23.1171 1.9897 23.0806 1.9897 23.0399L1.9897 20.5444C1.9897 20.5078 2.01029 20.4742 2.04312 20.4572L8.64434 17.0489C8.66969 17.0358 8.6995 17.0342 8.72617 17.0444L11.9491 18.2789C12.0232 18.3073 12.0354 18.4061 11.9703 18.4513L4.1447 23.88C4.11763 23.8988 4.0829 23.903 4.05204 23.8913L2.05346 23.1317Z" fill="#111827"/>
<path d="M33.8093 21.3259C33.8231 21.3663 33.8611 21.3935 33.9039 21.3935H37.8447C37.8874 21.3935 37.9253 21.3664 37.9392 21.3261L43.7308 4.50717C43.7532 4.44224 43.705 4.37461 43.6363 4.37461H40.5656C40.5225 4.37461 40.4843 4.40215 40.4707 4.44298L35.9806 17.9092C35.9502 18.0004 35.8213 18.0004 35.7908 17.9093L31.2949 4.44294C31.2813 4.40213 31.2431 4.37461 31.2001 4.37461H28.142C28.0733 4.37461 28.0251 4.44212 28.0473 4.50702L33.8093 21.3259Z" fill="currentColor"/>
<path d="M46.5082 7.46737C46.862 7.82292 47.308 8.00069 47.8463 8.00069C48.3847 8.00069 48.8307 7.82292 49.1845 7.46737C49.5382 7.11182 49.7151 6.68671 49.7151 6.19203C49.7151 5.69736 49.5382 5.27225 49.1845 4.9167C48.8307 4.56115 48.3847 4.38338 47.8463 4.38338C47.308 4.38338 46.862 4.56115 46.5082 4.9167C46.1698 5.27225 46.0006 5.69736 46.0006 6.19203C46.0006 6.68671 46.1698 7.11182 46.5082 7.46737Z" fill="currentColor"/>
<path d="M46.3236 21.2935C46.3236 21.3488 46.3684 21.3935 46.4236 21.3935H49.2921C49.3473 21.3935 49.3921 21.3488 49.3921 21.2935V10.0021C49.3921 9.94687 49.3473 9.9021 49.2921 9.9021H46.4236C46.3684 9.9021 46.3236 9.94687 46.3236 10.0021V21.2935Z" fill="currentColor"/>
<path fill-rule="evenodd" clip-rule="evenodd" d="M58.0474 21.6254C57.1399 21.6254 56.3478 21.4476 55.6711 21.0921C54.9943 20.7211 54.4252 20.2341 53.9638 19.6312C53.5177 19.0129 53.1794 18.325 52.9487 17.5675C52.7333 16.81 52.6257 16.0371 52.6257 15.2487C52.6257 14.4603 52.7333 13.6874 52.9487 12.9299C53.1794 12.1724 53.5177 11.4923 53.9638 10.8894C54.4252 10.271 54.9943 9.78409 55.6711 9.42854C56.3478 9.05754 57.1399 8.87203 58.0474 8.87203C58.8318 8.87203 59.4778 9.00343 59.9854 9.26623C60.4929 9.51357 60.8928 9.79182 61.1851 10.101C61.4551 10.3724 61.6463 10.5976 61.7588 10.7766C61.7754 10.8031 61.8042 10.8198 61.8355 10.8198C61.884 10.8198 61.9233 10.7805 61.9233 10.732V4.47461C61.9233 4.41938 61.9681 4.37461 62.0233 4.37461H64.8918C64.947 4.37461 64.9918 4.41938 64.9918 4.47461V21.2935C64.9918 21.3487 64.947 21.3935 64.8918 21.3935H62.0233C61.9681 21.3935 61.9233 21.3487 61.9233 21.2935V19.7654C61.9233 19.7169 61.884 19.6776 61.8355 19.6776C61.8042 19.6776 61.7754 19.6943 61.7588 19.7209C61.6464 19.901 61.4551 20.1339 61.1851 20.4196C60.8928 20.7288 60.4929 21.007 59.9854 21.2544C59.4778 21.5017 58.8318 21.6254 58.0474 21.6254ZM58.8549 19.0979C59.547 19.0979 60.1238 18.9124 60.5852 18.5414C61.0466 18.1549 61.3927 17.668 61.6234 17.0806C61.8541 16.4931 61.9695 15.8825 61.9695 15.2487C61.9695 14.6149 61.8541 14.0043 61.6234 13.4169C61.3927 12.8294 61.0466 12.3502 60.5852 11.9792C60.1238 11.5927 59.547 11.3995 58.8549 11.3995C58.1627 11.3995 57.5783 11.5927 57.1015 11.9792C56.64 12.3502 56.294 12.8294 56.0633 13.4169C55.8326 14.0043 55.7172 14.6149 55.7172 15.2487C55.7172 15.8825 55.8326 16.4931 56.0633 17.0806C56.294 17.668 56.64 18.1549 57.1015 18.5414C57.5783 18.9124 58.1627 19.0979 58.8549 19.0979Z" fill="currentColor"/>
<path d="M70.7852 21.2312C71.4312 21.494 72.254 21.6254 73.2538 21.6254C74.2689 21.6254 75.1302 21.4553 75.8377 21.1152C76.5606 20.7597 77.1067 20.2882 77.4758 19.7008C77.8603 19.0979 78.0526 18.4332 78.0526 17.7066C78.0526 16.6245 77.6834 15.7975 76.9452 15.2255C76.2223 14.6536 75.2917 14.2516 74.1536 14.0197L72.5616 13.6719C72.1002 13.5792 71.7234 13.4401 71.4312 13.2545C71.1389 13.069 70.9928 12.8062 70.9928 12.4662C70.9928 12.157 71.1235 11.8633 71.385 11.585C71.6619 11.3068 72.1233 11.1676 72.7693 11.1676C73.2461 11.1676 73.6229 11.2449 73.8998 11.3995C74.192 11.5386 74.4073 11.701 74.5458 11.8865C74.6996 12.072 74.7995 12.242 74.8457 12.3966L74.8922 12.5368C74.9058 12.5777 74.944 12.6053 74.9871 12.6053H77.6017C77.6667 12.6053 77.7144 12.5443 77.6987 12.4812L77.6373 12.2343C77.5912 11.9715 77.4758 11.6546 77.2912 11.2836C77.122 10.9126 76.8529 10.5416 76.4837 10.1706C76.13 9.79955 75.6532 9.49038 75.0533 9.24304C74.4689 8.9957 73.7229 8.87203 72.8154 8.87203C71.385 8.87203 70.2545 9.23531 69.424 9.96186C68.5934 10.673 68.1781 11.5773 68.1781 12.6749C68.1781 13.4169 68.3627 14.0275 68.7318 14.5067C69.101 14.9705 69.5778 15.3415 70.1623 15.6197C70.7467 15.8825 71.3773 16.0835 72.0541 16.2226L73.7383 16.5704C74.2305 16.6786 74.5996 16.8409 74.8457 17.0574C75.1072 17.2583 75.2379 17.5289 75.2379 17.8689C75.2379 18.2245 75.0918 18.5491 74.7995 18.8428C74.5073 19.1211 74.0305 19.2602 73.3691 19.2602C72.8154 19.2602 72.3694 19.1752 72.031 19.0052C71.6926 18.8351 71.4389 18.6419 71.2697 18.4255C71.1159 18.1936 71.0082 17.9926 70.9467 17.8226L70.8975 17.6413C70.8857 17.5977 70.8461 17.5675 70.801 17.5675H68.0884C68.0267 17.5675 67.9797 17.6229 67.9898 17.6838L68.0397 17.9849C68.1012 18.2477 68.2243 18.58 68.4088 18.982C68.5934 19.3839 68.8703 19.7935 69.2394 20.2109C69.6239 20.6128 70.1392 20.9529 70.7852 21.2312Z" fill="currentColor"/>
<path d="M86.0024 21.6254C85.1718 21.6254 84.4874 21.5017 83.9491 21.2544C83.4107 21.007 82.9878 20.6824 82.6801 20.2805C82.3879 19.8786 82.1803 19.438 82.0572 18.9588C81.9342 18.4796 81.8727 18.0081 81.8727 17.5443V11.685C81.8727 11.6298 81.8279 11.585 81.7727 11.585H79.8732C79.818 11.585 79.7732 11.5402 79.7732 11.485V9.20391C79.7732 9.14868 79.818 9.10391 79.8732 9.10391H81.7727C81.8279 9.10391 81.8727 9.05914 81.8727 9.00391V6.14311C81.8727 6.08788 81.9174 6.04311 81.9727 6.04311H84.8411C84.8963 6.04311 84.9411 6.08788 84.9411 6.14311V9.00391C84.9411 9.05914 84.9859 9.10391 85.0411 9.10391H87.5866C87.6418 9.10391 87.6866 9.14868 87.6866 9.20391V11.485C87.6866 11.5402 87.6418 11.585 87.5866 11.585H85.0411C84.9859 11.585 84.9411 11.6298 84.9411 11.685V17.4747C84.9411 18.5723 85.5563 19.1211 86.7868 19.1211C87.079 19.1211 87.3482 19.1056 87.5943 19.0747L87.8691 19.026C87.9304 19.0151 87.9865 19.0622 87.9865 19.1244V21.331C87.9865 21.3803 87.9505 21.4223 87.9018 21.4298L87.3867 21.5094C87.0021 21.5867 86.5407 21.6254 86.0024 21.6254Z" fill="currentColor"/>
<path fill-rule="evenodd" clip-rule="evenodd" d="M97.6273 9.26623C97.1198 9.00343 96.4738 8.87203 95.6894 8.87203C94.7819 8.87203 93.9898 9.05754 93.313 9.42854C92.6363 9.78409 92.0672 10.271 91.6058 10.8894C91.1597 11.4923 90.8214 12.1724 90.5907 12.9299C90.3753 13.6874 90.2677 14.4603 90.2677 15.2487C90.2677 16.0371 90.3753 16.81 90.5907 17.5675C90.8214 18.325 91.1597 19.0129 91.6058 19.6312C92.0672 20.2341 92.6363 20.7211 93.313 21.0921C93.9898 21.4476 94.7819 21.6254 95.6894 21.6254C96.4738 21.6254 97.1198 21.5017 97.6273 21.2544C98.1349 21.007 98.5348 20.7288 98.827 20.4196C99.0971 20.1339 99.2884 19.901 99.4008 19.7209C99.4174 19.6943 99.4462 19.6776 99.4775 19.6776C99.526 19.6776 99.5653 19.7169 99.5653 19.7654V21.2935C99.5653 21.3487 99.6101 21.3935 99.6653 21.3935H102.534C102.589 21.3935 102.634 21.3487 102.634 21.2935V9.20391C102.634 9.14868 102.589 9.10391 102.534 9.10391H99.6653C99.6101 9.10391 99.5653 9.14868 99.5653 9.20391V10.732C99.5653 10.7805 99.526 10.8198 99.4775 10.8198C99.4462 10.8198 99.4174 10.8031 99.4008 10.7766C99.2883 10.5976 99.0971 10.3724 98.827 10.101C98.5348 9.79182 98.1349 9.51357 97.6273 9.26623ZM94.7435 11.9792C95.2203 11.5927 95.8047 11.3995 96.4969 11.3995C97.189 11.3995 97.7658 11.5927 98.2272 11.9792C98.6886 12.3502 99.0347 12.8294 99.2654 13.4169C99.4961 14.0043 99.6115 14.6149 99.6115 15.2487C99.6115 15.8825 99.4961 16.4931 99.2654 17.0806C99.0347 17.668 98.6886 18.1549 98.2272 18.5414C97.7658 18.9124 97.189 19.0979 96.4969 19.0979C95.8047 19.0979 95.2203 18.9124 94.7435 18.5414C94.282 18.1549 93.936 17.668 93.7053 17.0806C93.4745 16.4931 93.3592 15.8825 93.3592 15.2487C93.3592 14.6149 93.4745 14.0043 93.7053 13.4169C93.936 12.8294 94.282 12.3502 94.7435 11.9792Z" fill="currentColor"/>
<path d="M111.891 21.6254C110.845 21.6254 109.93 21.4476 109.146 21.0921C108.361 20.7211 107.708 20.2341 107.185 19.6312C106.662 19.0129 106.269 18.325 106.008 17.5675C105.762 16.81 105.639 16.0371 105.639 15.2487C105.639 14.4603 105.762 13.6874 106.008 12.9299C106.269 12.1724 106.654 11.4923 107.161 10.8894C107.684 10.271 108.338 9.78409 109.123 9.42854C109.907 9.05754 110.83 8.87203 111.891 8.87203C112.937 8.87203 113.806 9.02662 114.498 9.33579C115.19 9.64496 115.736 10.0314 116.136 10.4952C116.551 10.9589 116.859 11.4227 117.059 11.8865C117.259 12.3348 117.39 12.7135 117.451 13.0227L117.52 13.367C117.532 13.4288 117.485 13.4864 117.422 13.4864H114.734C114.69 13.4864 114.651 13.4578 114.638 13.4158L114.567 13.185C114.506 12.9686 114.383 12.7212 114.198 12.443C114.014 12.1647 113.737 11.9174 113.368 11.701C113.014 11.4845 112.537 11.3763 111.937 11.3763C111.23 11.3763 110.63 11.5618 110.138 11.9328C109.661 12.2884 109.299 12.7599 109.053 13.3473C108.807 13.9347 108.684 14.5685 108.684 15.2487C108.684 15.9289 108.807 16.5627 109.053 17.1501C109.299 17.7375 109.661 18.2168 110.138 18.5878C110.63 18.9433 111.23 19.1211 111.937 19.1211C112.537 19.1211 113.014 19.0129 113.368 18.7965C113.737 18.58 114.014 18.3327 114.198 18.0544C114.383 17.7762 114.506 17.5366 114.567 17.3356L114.639 17.0836C114.651 17.0406 114.69 17.011 114.735 17.011H117.422C117.485 17.011 117.532 17.0686 117.52 17.1304L117.451 17.4747C117.39 17.7839 117.259 18.1704 117.059 18.6341C116.859 19.0824 116.551 19.5385 116.136 20.0022C115.736 20.466 115.19 20.8525 114.498 21.1616C113.806 21.4708 112.937 21.6254 111.891 21.6254Z" fill="currentColor"/>
<path d="M120.682 21.2935C120.682 21.3487 120.726 21.3935 120.782 21.3935H123.65C123.705 21.3935 123.75 21.3487 123.75 21.2935V16.0256C123.75 15.9305 123.87 15.8891 123.929 15.964L128.15 21.3552C128.169 21.3794 128.198 21.3935 128.229 21.3935H131.643C131.726 21.3935 131.773 21.2974 131.721 21.2318L126.663 14.7817C126.633 14.7434 126.635 14.689 126.668 14.6529L131.536 9.27099C131.594 9.2067 131.548 9.10391 131.461 9.10391H128.109C128.081 9.10391 128.054 9.11617 128.035 9.1376L123.925 13.776C123.864 13.8449 123.75 13.8017 123.75 13.7097V4.48137C123.75 4.42614 123.705 4.38137 123.65 4.38137H120.782C120.726 4.38137 120.682 4.42614 120.682 4.48137V21.2935Z" fill="currentColor"/>
</g>
<defs>
<linearGradient id="paint0_linear_5742_2920" x1="4.27482" y1="26.2723" x2="22.3451" y2="10.9587" gradientUnits="userSpaceOnUse">
<stop stop-color="#E11D48"/>
<stop offset="0.0001" stop-color="#E11D48"/>
<stop offset="1" stop-color="#F43F5E"/>
</linearGradient>
<linearGradient id="paint1_linear_5742_2920" x1="21.4028" y1="13.1812" x2="0.256039" y2="22.7241" gradientUnits="userSpaceOnUse">
<stop stop-color="#DB2777"/>
<stop offset="1" stop-color="#EC4899"/>
</linearGradient>
<linearGradient id="paint2_linear_5742_2920" x1="0.23855" y1="1.20461" x2="5.0099" y2="23.9406" gradientUnits="userSpaceOnUse">
<stop stop-color="#EA580C"/>
<stop offset="1" stop-color="#F97316"/>
</linearGradient>
<clipPath id="clip0_5742_2920">
<rect width="131.85" height="26" fill="white"/>
</clipPath>
</defs>
</svg>
