<svg height="100%" viewBox="0 0 98 98" fill="none" xmlns="http://www.w3.org/2000/svg" aria-hidden="true" role="img">
<g clip-path="url(#clip0_527_287)">
<path d="M22.8308 76.2872V88.1663L31.7549 91.5757L64.5452 68.7147L49.0054 62.7213L22.8308 76.2872Z" fill="url(#paint0_linear_527_287)"/>
<path d="M51.075 20.3128V58.7496L68.9834 65.6282L85.3606 54.2156V44.3343L51.075 20.3128Z" fill="url(#paint1_linear_527_287)"/>
<path d="M46.6367 58.941L22.8425 71.2747V10.0845L31.3242 6.45978L46.6367 17.1785V58.941Z" fill="url(#paint2_linear_527_287)"/>
<path fill-rule="evenodd" clip-rule="evenodd" d="M30.4021 0.0792459C31.435 -0.361415 32.6222 -0.237609 33.542 0.406683L90.2234 40.1112C91.0917 40.7194 91.6087 41.7129 91.6087 42.7731V49.2869V55.7707C91.6087 56.8334 91.0893 57.8289 90.2176 58.4367L34.045 97.6034C33.1621 98.219 32.0318 98.3576 31.0264 97.9735L18.6923 93.262C17.4335 92.7812 16.6021 91.5735 16.6021 90.226L16.6021 8.11346C16.6021 6.81142 17.3792 5.63505 18.5768 5.12413L30.4021 0.0792459ZM23.1021 10.2604L23.1021 70.2658L45.84 58.4661V16.9573L31.2918 6.76649L23.1021 10.2604ZM51.84 21.1602V58.2117L69.4512 64.9921L85.1087 54.0748V49.2869V44.4646L51.84 21.1602ZM23.1021 87.9884L23.1021 77.0256L49.0425 63.564L63.5106 69.1343L31.7386 91.2875L23.1021 87.9884Z" fill="#1A1A1A"/>
</g>
<defs>
<linearGradient id="paint0_linear_527_287" x1="20.3159" y1="89.0948" x2="60.3679" y2="66.3875" gradientUnits="userSpaceOnUse">
<stop stop-color="#E51919"/>
<stop offset="1" stop-color="#E93C3C"/>
</linearGradient>
<linearGradient id="paint1_linear_527_287" x1="87.8676" y1="53.6167" x2="48.6348" y2="35.7006" gradientUnits="userSpaceOnUse">
<stop stop-color="#F53D7A"/>
<stop offset="1" stop-color="#F75A8E"/>
</linearGradient>
<linearGradient id="paint2_linear_527_287" x1="19.8567" y1="51.7591" x2="47.9243" y2="39.0957" gradientUnits="userSpaceOnUse">
<stop stop-color="#FF5500"/>
<stop offset="1" stop-color="#FF6E26"/>
</linearGradient>
<clipPath id="clip0_527_287">
<rect width="98" height="98" fill="white"/>
</clipPath>
</defs>
</svg>
