<svg aria-hidden="true" role="img" height="100%" fill="none" xmlns="http://www.w3.org/2000/svg"><path d="M31.76 22.603 26.004 5.885h3.228l4.555 13.574 4.55-13.574h3.24l-5.785 16.718H31.76ZM45.596 9.447c-.532 0-.972-.175-1.321-.524a1.749 1.749 0 0 1-.501-1.253c0-.486.167-.903.5-1.253.35-.349.79-.524 1.322-.524.531 0 .972.175 1.321.524.35.35.524.767.524 1.253 0 .486-.175.904-.524 1.253-.35.35-.79.524-1.321.524Zm-1.503 13.156V11.314h3.029v11.289h-3.03ZM55.667 22.83c-.896 0-1.678-.174-2.346-.523a5.307 5.307 0 0 1-1.685-1.435 6.835 6.835 0 0 1-1.003-2.028 8.252 8.252 0 0 1-.319-2.277c0-.775.107-1.534.32-2.278a6.535 6.535 0 0 1 1.002-2.005 4.947 4.947 0 0 1 1.685-1.435c.668-.364 1.45-.546 2.346-.546.775 0 1.412.129 1.913.387.502.243.896.516 1.185.82.288.288.486.524.592.706h.137V5.885h3.03v16.718h-3.03v-1.686h-.137c-.106.182-.304.425-.592.729-.289.304-.683.577-1.184.82-.502.243-1.14.364-1.914.364Zm.797-2.482c.684 0 1.253-.183 1.709-.547a3.51 3.51 0 0 0 1.025-1.435 4.857 4.857 0 0 0 .341-1.8c0-.622-.114-1.222-.341-1.799a3.34 3.34 0 0 0-1.025-1.412c-.456-.38-1.025-.57-1.709-.57-.683 0-1.26.19-1.73.57a3.34 3.34 0 0 0-1.026 1.412 4.857 4.857 0 0 0-.341 1.8c0 .622.114 1.222.341 1.799a3.51 3.51 0 0 0 1.025 1.435c.471.364 1.048.547 1.731.547ZM70.68 22.83c-.987 0-1.8-.129-2.437-.387-.638-.273-1.146-.607-1.526-1.002a5.005 5.005 0 0 1-.82-1.207 5.429 5.429 0 0 1-.365-.98l-.068-.41h2.87l.068.25a2.9 2.9 0 0 0 .32.593c.166.213.417.402.75.57.335.166.775.25 1.322.25.653 0 1.124-.137 1.412-.41.289-.289.433-.607.433-.957 0-.334-.129-.6-.387-.797-.243-.212-.608-.372-1.093-.478l-1.663-.342a8.953 8.953 0 0 1-1.868-.592 3.926 3.926 0 0 1-1.412-1.093c-.365-.471-.547-1.07-.547-1.8 0-1.078.41-1.966 1.23-2.665.82-.713 1.936-1.07 3.348-1.07.896 0 1.633.121 2.21.364.592.243 1.063.547 1.412.911.365.365.63.73.797 1.094.183.364.296.675.342.933l.091.365H72.32l-.068-.205a1.482 1.482 0 0 0-.296-.501c-.137-.182-.35-.342-.638-.479-.273-.152-.645-.227-1.116-.227-.638 0-1.093.136-1.367.41-.258.273-.387.562-.387.865 0 .334.144.592.433.775.288.182.66.319 1.116.41l1.572.341c1.123.228 2.042.623 2.756 1.185.728.562 1.093 1.374 1.093 2.437 0 .714-.19 1.367-.57 1.959-.364.577-.903 1.04-1.617 1.39-.698.333-1.549.5-2.55.5ZM83.267 22.83c-.82 0-1.496-.121-2.028-.364-.531-.243-.949-.562-1.252-.957a3.786 3.786 0 0 1-.615-1.298 5.545 5.545 0 0 1-.183-1.39v-5.853h-2.072V10.53h2.072V7.524h3.03v3.006h2.71v2.438h-2.71v5.785c0 1.078.607 1.617 1.822 1.617.289 0 .554-.015.797-.045l.388-.069v2.37l-.593.09c-.38.076-.835.114-1.366.114ZM92.83 10.303c.775 0 1.413.129 1.914.387.5.243.896.516 1.184.82.289.288.486.524.592.706h.137V10.53h3.03v12.073h-3.03v-1.686h-.137c-.106.182-.303.425-.592.729-.288.304-.683.577-1.184.82-.501.243-1.14.364-1.914.364-.895 0-1.678-.174-2.346-.523a5.307 5.307 0 0 1-1.685-1.435 6.837 6.837 0 0 1-1.003-2.028 8.252 8.252 0 0 1-.318-2.277c0-.775.106-1.534.319-2.278a6.537 6.537 0 0 1 1.002-2.005 4.947 4.947 0 0 1 1.685-1.435c.668-.364 1.45-.546 2.346-.546Zm.798 2.482c-.684 0-1.26.19-1.731.57a3.34 3.34 0 0 0-1.026 1.412 4.857 4.857 0 0 0-.341 1.8c0 .622.114 1.222.341 1.799a3.51 3.51 0 0 0 1.026 1.435c.47.364 1.047.547 1.73.547.684 0 1.253-.183 1.709-.547.456-.38.797-.858 1.025-1.435a4.857 4.857 0 0 0 .342-1.8c0-.622-.114-1.222-.342-1.799a3.339 3.339 0 0 0-1.025-1.412c-.456-.38-1.025-.57-1.708-.57ZM108.826 22.83c-1.033 0-1.936-.174-2.711-.523a5.822 5.822 0 0 1-1.936-1.435 6.29 6.29 0 0 1-1.161-2.028 7.294 7.294 0 0 1 0-4.555 6.224 6.224 0 0 1 1.139-2.005 5.419 5.419 0 0 1 1.936-1.435c.774-.364 1.685-.546 2.733-.546 1.033 0 1.891.151 2.574.455.683.304 1.222.684 1.617 1.14.41.455.714.91.911 1.366.198.44.327.812.387 1.116l.092.455h-2.848l-.091-.296a2.686 2.686 0 0 0-.364-.729c-.182-.273-.456-.516-.82-.729-.349-.212-.82-.318-1.412-.318-.699 0-1.291.182-1.777.546-.471.35-.828.813-1.071 1.39a4.763 4.763 0 0 0-.364 1.868c0 .668.121 1.29.364 1.867s.6 1.048 1.071 1.412c.486.35 1.078.524 1.777.524.592 0 1.063-.106 1.412-.319.364-.212.638-.455.82-.728.182-.274.304-.51.364-.707l.091-.318h2.848l-.092.455c-.06.304-.189.683-.387 1.139-.197.44-.501.888-.911 1.344-.395.456-.934.835-1.617 1.139-.683.303-1.541.455-2.574.455ZM117.505 22.603V5.89h3.029v9.423l4.26-4.784h3.576l-5.011 5.513 5.17 6.56h-3.621l-4.374-5.558v5.558h-3.029Z" fill="currentColor"/><path d="M1.781 20.128v3.104l2.345.89 8.615-5.972-4.083-1.566-6.877 3.544Z" fill="url(#a)"/><path d="M9.201 5.505v10.041l4.705 1.797 4.303-2.981V11.78L9.201 5.505Z" fill="url(#b)"/><path d="M8.037 15.597 1.785 18.82V2.834l2.229-.947 4.023 2.8v10.91Z" fill="url(#c)"/><path fill-rule="evenodd" clip-rule="evenodd" d="M3.716.08a1 1 0 0 1 .962.1L19.57 10.551a1 1 0 0 1 .429.82v3.396a1 1 0 0 1-.43.822L4.81 25.823a1 1 0 0 1-.925.113l-3.24-1.231A1 1 0 0 1 0 23.77V2.318a1 1 0 0 1 .61-.92L3.715.078ZM2 2.98v15.537l5.866-3.026V4.837l-3.877-2.7L2 2.98Zm7.366 2.902v9.546l4.463 1.708 4.17-2.891V11.895L9.366 5.882ZM2 23.08v-2.875l6.665-3.44 3.671 1.406-8.233 5.708L2 23.08Z" fill="#1A1A1A"/><defs><linearGradient id="a" x1="1.121" y1="23.474" x2="11.614" y2="17.491" gradientUnits="userSpaceOnUse"><stop stop-color="#E51919"/><stop offset="1" stop-color="#E93C3C"/></linearGradient><linearGradient id="b" x1="18.868" y1="14.206" x2="8.58" y2="9.481" gradientUnits="userSpaceOnUse"><stop stop-color="#F53D7A"/><stop offset="1" stop-color="#F75A8E"/></linearGradient><linearGradient id="c" x1="1.001" y1="13.721" x2="8.361" y2="10.382" gradientUnits="userSpaceOnUse"><stop stop-color="#F50"/><stop offset="1" stop-color="#FF6E26"/></linearGradient></defs></svg>
