<svg aria-hidden="true" role="img" viewBox="0 0 33 33" fill="none" xmlns="http://www.w3.org/2000/svg">
<path fill-rule="evenodd" clip-rule="evenodd" d="M9.02109 15.0021C8.87089 15.0021 8.72277 14.9668 8.58864 14.8988C8.45452 14.8309 8.33812 14.7323 8.2488 14.611C8.15949 14.4897 8.09975 14.349 8.07438 14.2003C8.04901 14.0515 8.05872 13.8989 8.10273 13.7546C9.3044 9.81098 12.8722 7.16211 16.9802 7.16211C17.9183 7.16211 18.8441 7.30201 19.7317 7.57891C19.8522 7.6164 19.9641 7.67737 20.0612 7.75834C20.1582 7.8393 20.2384 7.93867 20.2972 8.05077C20.356 8.16287 20.3922 8.28551 20.4038 8.41168C20.4154 8.53786 20.4022 8.66509 20.3648 8.78612C20.3276 8.90722 20.267 9.01976 20.1864 9.11729C20.1059 9.21482 20.0069 9.29542 19.8953 9.35448C19.7837 9.41354 19.6616 9.4499 19.5359 9.46147C19.4103 9.47305 19.2836 9.45961 19.1632 9.42193C18.4597 9.20484 17.725 9.09389 16.9802 9.09389C13.7221 9.09389 10.8921 11.1948 9.93921 14.3231C9.87898 14.5206 9.75734 14.6934 9.59213 14.8162C9.42693 14.9391 9.22687 15.0055 9.02133 15.0057L9.02109 15.0021ZM14.5137 15.0015H26.02C26.5506 15.0015 26.9804 14.5698 26.9804 14.0367C26.9804 13.5037 26.5506 13.0719 26.02 13.0719H14.5137C13.9831 13.0719 13.5534 13.5037 13.5534 14.0367C13.5534 14.5698 13.9831 15.0015 14.5137 15.0015ZM19.4476 19.903H7.94085C7.41024 19.903 6.98047 19.4713 6.98047 18.9382C6.98047 18.4052 7.41024 17.9734 7.94085 17.9734H19.4476C19.9782 17.9734 20.408 18.4052 20.408 18.9382C20.408 19.4713 19.9782 19.903 19.4476 19.903ZM16.9803 25.8143C16.0429 25.8143 15.1171 25.6744 14.2288 25.3977C13.9855 25.322 13.7821 25.1523 13.6634 24.926C13.5447 24.6996 13.5203 24.4352 13.5956 24.1908C13.7527 23.6794 14.2919 23.3948 14.7973 23.554C15.5013 23.7735 16.2355 23.8844 16.9803 23.8844C20.2391 23.8844 23.0686 21.7836 24.0215 18.6552C24.0584 18.5341 24.1187 18.4214 24.1989 18.3237C24.2792 18.226 24.3778 18.1452 24.4892 18.0858C24.6006 18.0264 24.7226 17.9897 24.8481 17.9777C24.9736 17.9658 25.1003 17.9788 25.2208 18.016C25.7279 18.1704 26.0131 18.7107 25.858 19.2196C24.6566 23.1635 21.0888 25.8143 16.9803 25.8143ZM23.36 11.042C23.5401 10.8611 23.6413 10.6157 23.6413 10.3598C23.6413 10.1039 23.5401 9.85853 23.36 9.67759C23.1799 9.49666 22.9357 9.39501 22.681 9.39501C22.4262 9.39501 22.182 9.49666 22.0019 9.67759C21.8218 9.85853 21.7206 10.1039 21.7206 10.3598C21.7206 10.6157 21.8218 10.8611 22.0019 11.042C22.182 11.223 22.4262 11.3246 22.681 11.3246C22.9357 11.3246 23.1799 11.223 23.36 11.042ZM11.9592 23.2984C12.1393 23.1175 12.2404 22.8721 12.2404 22.6162C12.2404 22.3603 12.1393 22.1149 11.9592 21.934C11.779 21.7531 11.5348 21.6514 11.2801 21.6514C11.0254 21.6514 10.7811 21.7531 10.601 21.934C10.4209 22.1149 10.3197 22.3603 10.3197 22.6162C10.3197 22.8721 10.4209 23.1175 10.601 23.2984C10.7811 23.4794 11.0254 23.581 11.2801 23.581C11.5348 23.581 11.779 23.4794 11.9592 23.2984Z" fill="currentColor"/>
</svg>
