<svg aria-hidden="true" role="img" viewBox="0 0 33 33" fill="none" xmlns="http://www.w3.org/2000/svg">
<path d="M14.9797 19.9886H20.8601C21.1301 19.6786 21.5301 19.4886 21.9801 19.4886C22.8102 19.4886 23.4802 20.1586 23.4802 20.9887C23.4802 21.8187 22.8102 22.4888 21.9801 22.4888C21.5401 22.4888 21.1401 22.2988 20.8601 21.9888H16.8798C16.6989 22.8737 16.2817 23.6932 15.6725 24.36C15.0632 25.0269 14.2847 25.5163 13.4197 25.7762C12.5546 26.0361 11.6353 26.0569 10.7594 25.8363C9.88352 25.6156 9.08373 25.1619 8.44503 24.5232C7.80633 23.8845 7.35256 23.0847 7.13193 22.2088C6.9113 21.3329 6.93205 20.4136 7.19197 19.5485C7.4519 18.6834 7.94129 17.905 8.60816 17.2957C9.27503 16.6865 10.0945 16.2693 10.9794 16.0884V18.1585C9.81937 18.5685 8.97931 19.6886 8.97931 20.9887C8.97931 22.6388 10.3294 23.9889 11.9795 23.9889C13.6296 23.9889 14.9797 22.6388 14.9797 20.9887V19.9886ZM17.4799 8.98792C19.13 8.98792 20.4801 10.338 20.4801 11.9881H22.4802C22.4802 9.22794 20.24 6.98779 17.4799 6.98779C16.481 6.98859 15.5052 7.28843 14.6782 7.84869C13.8512 8.40896 13.2109 9.20398 12.8397 10.1314C12.4685 11.0588 12.3835 12.076 12.5956 13.0522C12.8077 14.0283 13.3071 14.9186 14.0296 15.6083L11.6795 19.5086C10.9994 19.6486 10.4794 20.2586 10.4794 20.9887C10.4794 21.8187 11.1495 22.4888 11.9795 22.4888C12.2151 22.4891 12.4475 22.4338 12.6577 22.3274C12.8679 22.221 13.0501 22.0666 13.1894 21.8766C13.3287 21.6866 13.4213 21.4664 13.4595 21.234C13.4978 21.0015 13.4807 20.7633 13.4096 20.5387L16.7898 14.9083C16.1324 14.7524 15.5468 14.3793 15.1276 13.8494C14.7084 13.3195 14.4801 12.6638 14.4797 11.9881C14.4797 10.338 15.8298 8.98792 17.4799 8.98792ZM21.9801 17.9885C21.3401 17.9885 20.7501 18.1885 20.26 18.5285L17.2098 13.4582C16.5098 13.3382 15.9798 12.7282 15.9798 11.9881C15.9798 11.1581 16.6498 10.488 17.4799 10.488C18.3099 10.488 18.98 11.1581 18.98 11.9881C18.98 12.1381 18.96 12.2781 18.92 12.4181L21.1101 16.0684C21.3901 16.0184 21.6801 15.9884 21.9801 15.9884C24.7403 15.9884 26.9805 18.2285 26.9805 20.9887C26.9805 23.7489 24.7403 25.989 21.9801 25.989C21.1024 25.989 20.2402 25.7579 19.4801 25.3191C18.7199 24.8802 18.0887 24.249 17.6499 23.4888H20.32C20.8001 23.8089 21.3701 23.9889 21.9801 23.9889C23.6303 23.9889 24.9803 22.6388 24.9803 20.9887C24.9803 19.3386 23.6303 17.9885 21.9801 17.9885Z" fill="currentColor"/>
</svg>
