<svg width="517" height="105" viewBox="0 0 517 105" fill="none" xmlns="http://www.w3.org/2000/svg">
<path d="M129.223 91.0778L106.213 23.9145H119.119L137.326 78.4496L155.51 23.9145H168.466L145.338 91.0778H129.223Z" fill="currentColor"/>
<path d="M184.527 38.2245C182.403 38.2245 180.642 37.5229 179.246 36.1197C177.911 34.7166 177.243 33.039 177.243 31.0868C177.243 29.1346 177.911 27.4569 179.246 26.0538C180.642 24.6507 182.403 23.9491 184.527 23.9491C186.652 23.9491 188.412 24.6507 189.808 26.0538C191.204 27.4569 191.902 29.1346 191.902 31.0868C191.902 33.039 191.204 34.7166 189.808 36.1197C188.412 37.5229 186.652 38.2245 184.527 38.2245ZM178.518 91.0779V45.7282H190.627V91.0779H178.518Z" fill="currentColor"/>
<path d="M224.784 91.9929C221.203 91.9929 218.077 91.2914 215.407 89.8882C212.736 88.4241 210.49 86.5024 208.669 84.1232C206.909 81.6829 205.573 78.9682 204.663 75.9789C203.813 72.9896 203.388 69.9393 203.388 66.828C203.388 63.7167 203.813 60.6664 204.663 57.6771C205.573 54.6879 206.909 52.0036 208.669 49.6244C210.49 47.1841 212.736 45.2625 215.407 43.8593C218.077 42.3952 221.203 41.6631 224.784 41.6631C227.88 41.6631 230.429 42.1817 232.433 43.2188C234.436 44.1949 236.014 45.293 237.167 46.5131C238.32 47.6722 239.109 48.6178 239.534 49.3498H240.081V23.9145H252.19V91.0778H240.081V84.3062H239.534C239.109 85.0383 238.32 86.0144 237.167 87.2345C236.014 88.4546 234.436 89.5527 232.433 90.5288C230.429 91.5049 227.88 91.9929 224.784 91.9929ZM227.971 82.0185C230.703 82.0185 232.979 81.2864 234.8 79.8223C236.621 78.2971 237.986 76.3754 238.897 74.0572C239.807 71.739 240.263 69.3293 240.263 66.828C240.263 64.3268 239.807 61.917 238.897 59.5988C237.986 57.2806 236.621 55.3894 234.8 53.9253C232.979 52.4001 230.703 51.6376 227.971 51.6376C225.24 51.6376 222.933 52.4001 221.052 53.9253C219.231 55.3894 217.865 57.2806 216.954 59.5988C216.044 61.917 215.589 64.3268 215.589 66.828C215.589 69.3293 216.044 71.739 216.954 74.0572C217.865 76.3754 219.231 78.2971 221.052 79.8223C222.933 81.2864 225.24 82.0185 227.971 82.0185Z" fill="currentColor"/>
<path d="M284.795 91.9929C280.85 91.9929 277.602 91.4744 275.053 90.4373C272.504 89.3392 270.47 87.997 268.953 86.4109C267.496 84.7637 266.403 83.1471 265.675 81.5609C264.947 79.9748 264.461 78.6632 264.218 77.6261C264.036 76.5279 263.945 75.9789 263.945 75.9789H275.417C275.417 75.9789 275.508 76.3144 275.69 76.9855C275.933 77.6566 276.358 78.4496 276.965 79.3647C277.633 80.2188 278.634 80.9814 279.969 81.6524C281.305 82.3235 283.065 82.659 285.25 82.659C287.86 82.659 289.742 82.11 290.895 81.0119C292.049 79.8528 292.625 78.5716 292.625 77.1685C292.625 75.8264 292.109 74.7588 291.077 73.9657C290.106 73.1116 288.649 72.4711 286.707 72.044L280.061 70.6714C277.39 70.1223 274.901 69.3293 272.595 68.2922C270.288 67.194 268.406 65.7299 266.95 63.8997C265.493 62.0086 264.764 59.5988 264.764 56.6705C264.764 52.3391 266.403 48.7703 269.681 45.964C272.959 43.0967 277.42 41.6631 283.065 41.6631C286.646 41.6631 289.59 42.1512 291.897 43.1272C294.264 44.1033 296.146 45.3235 297.542 46.7876C298.999 48.2517 300.061 49.7159 300.728 51.18C301.457 52.6442 301.912 53.8948 302.094 54.9319C302.337 55.908 302.458 56.396 302.458 56.396H291.35C291.35 56.396 291.259 56.1215 291.077 55.5724C290.895 54.9624 290.501 54.2913 289.894 53.5592C289.347 52.8272 288.498 52.1866 287.344 51.6376C286.252 51.0275 284.765 50.7225 282.883 50.7225C280.334 50.7225 278.513 51.2715 277.42 52.3696C276.388 53.4677 275.872 54.6269 275.872 55.847C275.872 57.1891 276.449 58.2262 277.602 58.9583C278.756 59.6903 280.243 60.2394 282.064 60.6054L288.346 61.9781C292.838 62.8931 296.51 64.4793 299.363 66.7365C302.276 68.9937 303.733 72.2575 303.733 76.5279C303.733 79.3952 302.974 82.0185 301.457 84.3977C300 86.7159 297.845 88.5766 294.992 89.9797C292.2 91.3219 288.801 91.9929 284.795 91.9929Z" fill="currentColor"/>
<path d="M335.106 91.9929C331.828 91.9929 329.127 91.5049 327.003 90.5288C324.878 89.5527 323.209 88.2716 321.995 86.6854C320.842 85.0993 320.023 83.3606 319.537 81.4694C319.051 79.5782 318.809 77.7176 318.809 75.8874V52.3696H310.523V42.5782H318.809V30.499H330.918V42.5782H341.753V52.3696H330.918V75.6129C330.918 79.9443 333.346 82.11 338.202 82.11C339.355 82.11 340.417 82.049 341.388 81.927C342.42 81.7439 342.936 81.6524 342.936 81.6524V91.1693C342.936 91.1693 342.147 91.2914 340.569 91.5354C339.052 91.8404 337.231 91.9929 335.106 91.9929Z" fill="currentColor"/>
<path d="M373.335 41.6631C376.43 41.6631 378.98 42.1817 380.983 43.2188C382.986 44.1949 384.564 45.293 385.717 46.5131C386.871 47.6722 387.66 48.6178 388.085 49.3498H388.631V42.5782H400.74V91.0778H388.631V84.3062H388.085C387.66 85.0383 386.871 86.0144 385.717 87.2345C384.564 88.4546 382.986 89.5527 380.983 90.5288C378.98 91.5049 376.43 91.9929 373.335 91.9929C369.754 91.9929 366.628 91.2914 363.957 89.8882C361.286 88.4241 359.04 86.5024 357.219 84.1232C355.459 81.6829 354.124 78.9682 353.213 75.9789C352.363 72.9896 351.939 69.9393 351.939 66.828C351.939 63.7167 352.363 60.6664 353.213 57.6771C354.124 54.6879 355.459 52.0036 357.219 49.6244C359.04 47.1841 361.286 45.2625 363.957 43.8593C366.628 42.3952 369.754 41.6631 373.335 41.6631ZM376.522 51.6376C373.79 51.6376 371.484 52.4001 369.602 53.9253C367.781 55.3894 366.415 57.2806 365.505 59.5988C364.594 61.917 364.139 64.3268 364.139 66.828C364.139 69.3293 364.594 71.739 365.505 74.0572C366.415 76.3754 367.781 78.2971 369.602 79.8223C371.484 81.2864 373.79 82.0185 376.522 82.0185C379.253 82.0185 381.529 81.2864 383.35 79.8223C385.171 78.2971 386.537 76.3754 387.447 74.0572C388.358 71.739 388.813 69.3293 388.813 66.828C388.813 64.3268 388.358 61.917 387.447 59.5988C386.537 57.2806 385.171 55.3894 383.35 53.9253C381.529 52.4001 379.253 51.6376 376.522 51.6376Z" fill="currentColor"/>
<path d="M437.273 91.9929C433.146 91.9929 429.534 91.2914 426.439 89.8882C423.343 88.4241 420.763 86.5024 418.699 84.1232C416.636 81.6829 415.088 78.9682 414.056 75.9789C413.085 72.9896 412.599 69.9393 412.599 66.828C412.599 63.7167 413.085 60.6664 414.056 57.6771C415.088 54.6879 416.605 52.0036 418.608 49.6244C420.672 47.1841 423.252 45.2625 426.347 43.8593C429.443 42.3952 433.085 41.6631 437.273 41.6631C441.401 41.6631 444.83 42.2732 447.562 43.4933C450.293 44.7134 452.448 46.2386 454.026 48.0687C455.665 49.8989 456.879 51.7291 457.668 53.5592C458.457 55.3284 458.973 56.8231 459.216 58.0432C459.459 59.2633 459.58 59.8734 459.58 59.8734H448.199C448.199 59.8734 448.078 59.4768 447.835 58.6837C447.592 57.8297 447.106 56.8536 446.378 55.7555C445.65 54.6574 444.557 53.6813 443.1 52.8272C441.704 51.9731 439.823 51.5461 437.455 51.5461C434.663 51.5461 432.296 52.2781 430.354 53.7423C428.472 55.1454 427.046 57.0061 426.074 59.3243C425.103 61.6425 424.618 64.1438 424.618 66.828C424.618 69.5123 425.103 72.0135 426.074 74.3317C427.046 76.65 428.472 78.5411 430.354 80.0053C432.296 81.4084 434.663 82.11 437.455 82.11C439.823 82.11 441.704 81.6829 443.1 80.8289C444.557 79.9748 445.65 78.9987 446.378 77.9006C447.106 76.8025 447.592 75.8569 447.835 75.0638C448.078 74.2097 448.199 73.7827 448.199 73.7827H459.58C459.58 73.7827 459.459 74.3927 459.216 75.6129C458.973 76.833 458.457 78.3581 457.668 80.1883C456.879 81.9575 455.665 83.7571 454.026 85.5873C452.448 87.4175 450.293 88.9426 447.562 90.1628C444.83 91.3829 441.401 91.9929 437.273 91.9929Z" fill="currentColor"/>
<path d="M471.965 91.0778V23.9411H484.074V61.795L501.1 42.5782H515.394L495.364 64.7233L516.032 91.0778H501.555L484.074 68.7497V91.0778H471.965Z" fill="currentColor"/>
<path d="M7.11067 81.1364V93.6043L16.4299 97.1827L50.6721 73.1886L34.4442 66.8981L7.11067 81.1364Z" fill="url(#paint0_linear_2102_555)"/>
<path d="M36.6056 22.3878V62.7296L55.307 69.9492L72.4093 57.9709V47.5998L36.6056 22.3878Z" fill="url(#paint1_linear_2102_555)"/>
<path d="M31.9708 62.9305L7.12305 75.8755V11.6526L15.9803 7.84818L31.9708 19.0982V62.9305Z" fill="url(#paint2_linear_2102_555)"/>
<path fill-rule="evenodd" clip-rule="evenodd" d="M14.9697 1.07213C16.086 0.59348 17.3706 0.727803 18.3638 1.42702L77.5548 43.0994C78.486 43.755 79.04 44.8225 79.04 45.9613V52.798V59.6031C79.04 60.7446 78.4834 61.8143 77.5486 62.4694L18.8888 103.577C17.9355 104.245 16.7125 104.396 15.6257 103.979L2.74553 99.0335C1.39283 98.5142 0.5 97.215 0.5 95.7661L0.500025 9.58382C0.500025 8.18394 1.33415 6.91871 2.62075 6.36705L14.9697 1.07213ZM7.50002 11.8913L7.50001 74.6432L31.0215 62.3751V18.8992L15.9321 8.27581L7.50002 11.8913ZM37.5215 23.4754V62.0996L55.791 69.1691L72.04 57.782V52.798V47.7776L37.5215 23.4754ZM7.5 93.3607L7.5 81.9742L34.4909 67.8965L49.3835 73.6593L16.3964 96.7763L7.5 93.3607Z" fill="#0F172A"/>
<defs>
<linearGradient id="paint0_linear_2102_555" x1="16.4171" y1="97.5" x2="35.677" y2="66.9795" gradientUnits="userSpaceOnUse">
<stop stop-color="#E11D48"/>
<stop offset="0.0001" stop-color="#E11D48"/>
<stop offset="1" stop-color="#F43F5E"/>
</linearGradient>
<linearGradient id="paint1_linear_2102_555" x1="74.9171" y1="46.5" x2="36.7876" y2="63.3389" gradientUnits="userSpaceOnUse">
<stop stop-color="#DB2777"/>
<stop offset="1" stop-color="#EC4899"/>
</linearGradient>
<linearGradient id="paint2_linear_2102_555" x1="7.41699" y1="11" x2="30.3804" y2="62.9581" gradientUnits="userSpaceOnUse">
<stop stop-color="#EA580C"/>
<stop offset="1" stop-color="#F97316"/>
</linearGradient>
</defs>
</svg>
