<svg width="80" height="105" viewBox="0 0 80 105" fill="none" xmlns="http://www.w3.org/2000/svg">
<path d="M7.14253 81.1364V93.6043L16.4618 97.1827L50.7039 73.1886L34.4761 66.8981L7.14253 81.1364Z" fill="url(#paint0_linear_2066_315)"/>
<path d="M36.6375 22.3878V62.7296L55.3388 69.9492L72.4412 57.9709V47.5998L36.6375 22.3878Z" fill="url(#paint1_linear_2066_315)"/>
<path d="M32.0026 62.9305L7.15491 75.8755V11.6526L16.0121 7.84818L32.0026 19.0982V62.9305Z" fill="url(#paint2_linear_2066_315)"/>
<path fill-rule="evenodd" clip-rule="evenodd" d="M15.0015 1.07213C16.1178 0.59348 17.4025 0.727803 18.3956 1.42702L77.5867 43.0994C78.5178 43.755 79.0718 44.8225 79.0718 45.9613V52.798V59.6031C79.0718 60.7446 78.5152 61.8143 77.5805 62.4694L18.9207 103.577C17.9674 104.245 16.7443 104.396 15.6576 103.979L2.7774 99.0335C1.42469 98.5142 0.53186 97.215 0.53186 95.7661L0.531885 9.58382C0.531886 8.18394 1.36602 6.91871 2.65261 6.36705L15.0015 1.07213ZM7.53188 11.8913L7.53187 74.6432L31.0533 62.3751V18.8992L15.9639 8.27581L7.53188 11.8913ZM37.5533 23.4754V62.0996L55.8229 69.1691L72.0718 57.782V52.798V47.7776L37.5533 23.4754ZM7.53186 93.3607L7.53186 81.9742L34.5227 67.8965L49.4154 73.6593L16.4282 96.7763L7.53186 93.3607Z" fill="#0F172A"/>
<defs>
<linearGradient id="paint0_linear_2066_315" x1="16.449" y1="97.5" x2="35.7089" y2="66.9795" gradientUnits="userSpaceOnUse">
<stop stop-color="#E11D48"/>
<stop offset="0.0001" stop-color="#E11D48"/>
<stop offset="1" stop-color="#F43F5E"/>
</linearGradient>
<linearGradient id="paint1_linear_2066_315" x1="74.949" y1="46.5" x2="36.8195" y2="63.3389" gradientUnits="userSpaceOnUse">
<stop stop-color="#DB2777"/>
<stop offset="1" stop-color="#EC4899"/>
</linearGradient>
<linearGradient id="paint2_linear_2066_315" x1="7.44885" y1="11" x2="30.4122" y2="62.9581" gradientUnits="userSpaceOnUse">
<stop stop-color="#EA580C"/>
<stop offset="1" stop-color="#F97316"/>
</linearGradient>
</defs>
</svg>
