<svg aria-hidden="true" role="img" viewBox="0 0 33 33" fill="none" xmlns="http://www.w3.org/2000/svg">
<path d="M16.4005 8.78574C15.3005 8.68574 14.3305 9.49574 14.2305 10.6057L13.9805 13.4957H16.8005V15.4957H13.8005L13.3605 20.5657C13.2856 21.4009 12.9502 22.1915 12.4017 22.8258C11.8532 23.4601 11.1193 23.906 10.3036 24.1005C9.4879 24.295 8.63172 24.2283 7.85598 23.9099C7.08025 23.5914 6.42419 23.0373 5.98047 22.3257L7.48047 20.8257C7.81047 21.8757 8.94047 22.4657 9.98047 22.1257C10.7605 21.8857 11.3105 21.1957 11.3805 20.3857L11.8005 15.4957H8.80047V13.4957H11.9805L12.2505 10.4257C12.3421 9.3681 12.8493 8.38994 13.661 7.70572C14.4727 7.0215 15.5226 6.68707 16.5805 6.77574C17.8405 6.88574 18.9805 7.58574 19.6405 8.66574L18.1405 10.1657C17.8905 9.39574 17.2105 8.85574 16.4005 8.78574ZM25.9805 17.1457L24.5705 15.7357L21.7405 18.5657L18.9105 15.7357L17.4805 17.1457L20.3305 19.9957L17.4805 22.8057L18.9105 24.2157L21.7405 21.3857L24.5705 24.2157L25.9805 22.8057L23.1505 19.9957L25.9805 17.1457Z" fill="currentColor"/>
</svg>
