<svg aria-hidden="true" role="img" viewBox="0 0 33 33" fill="none" xmlns="http://www.w3.org/2000/svg">
<path fill-rule="evenodd" clip-rule="evenodd" d="M6.5218 20.0242C8.47763 20.0242 10.0631 18.4412 10.0631 16.4884C10.0631 14.5357 8.47763 12.9526 6.5218 12.9526C4.56598 12.9526 2.98047 14.5357 2.98047 16.4884C2.98047 18.4412 4.56598 20.0242 6.5218 20.0242ZM19.3058 19.0277C20.6891 19.0277 21.8106 17.9081 21.8106 16.5269C21.8106 15.1457 20.6891 14.026 19.3058 14.026C17.9224 14.026 16.801 15.1457 16.801 16.5269C16.801 17.9081 17.9224 19.0277 19.3058 19.0277ZM30.9807 16.5269C30.9807 17.1539 30.4715 17.6623 29.8435 17.6623C29.2154 17.6623 28.7063 17.1539 28.7063 16.5269C28.7063 15.8998 29.2154 15.3915 29.8435 15.3915C30.4715 15.3915 30.9807 15.8998 30.9807 16.5269Z" fill="currentColor"/>
</svg>
