<svg aria-hidden="true" role="img" viewBox="0 0 33 33" fill="none" xmlns="http://www.w3.org/2000/svg">
<path fill-rule="evenodd" clip-rule="evenodd" d="M13.1583 6.42414C13.4748 6.28985 13.8382 6.32763 14.1204 6.52416L25.4667 14.4272C25.7351 14.6142 25.8951 14.9207 25.8951 15.2478V16.5444V17.835C25.8951 18.1629 25.7344 18.4699 25.4649 18.6568L14.2204 26.4528C13.9496 26.6406 13.6036 26.6828 13.2956 26.5658L10.8266 25.628C10.4383 25.4805 10.1816 25.1085 10.1816 24.6932L10.1816 8.3489C10.1816 7.94753 10.4216 7.58505 10.7911 7.42831L13.1583 6.42414ZM12.1816 9.01095L12.1816 20.3674L16.2343 18.2762L16.2343 10.4339L13.4307 8.48111L12.1816 9.01095ZM17.7343 11.4787L17.7343 18.2145L20.8643 19.4128L23.8951 17.3114V16.5444V15.7699L17.7343 11.4787ZM12.1816 24.0033L12.1816 22.0553L17.0327 19.5521L19.3718 20.4476L13.5135 24.5092L12.1816 24.0033Z" fill="currentColor"/>
</svg>
