<svg aria-hidden="true" role="img" viewBox="0 0 48 48" fill="none" xmlns="http://www.w3.org/2000/svg" aria-hidden="true" role="img"><path d="M12.959 35.576v4.983l3.725 1.427 13.808-9.635-6.502-2.502-11.031 5.727Z" fill="url(#a)"/><path d="M24.907 11.916v16.179l7.538 2.9 6.91-4.822v-4.132L24.907 11.916Z" fill="url(#b)"/><path d="m22.95 28.183-9.997 5.183V7.542l3.54-1.515 6.456 4.519v17.637Z" fill="url(#c)"/><path fill-rule="evenodd" clip-rule="evenodd" d="M16.04 3.113a1.55 1.55 0 0 1 1.498.156l24.01 16.819c.414.29.66.764.66 1.27v5.505c0 .507-.247.982-.663 1.271L17.751 44.727a1.55 1.55 0 0 1-1.44.176l-5.225-1.996a1.55 1.55 0 0 1-.997-1.448V6.675c0-.62.371-1.182.942-1.425l5.01-2.137Zm-2.85 4.586v25.179l9.427-4.893V10.612l-6.152-4.31-3.276 1.397Zm12.027 4.734v15.443l7.267 2.798 6.625-4.62v-3.89l-13.892-9.731ZM13.19 40.391v-4.584l10.815-5.612 5.906 2.274-13.26 9.244-3.46-1.322Z" fill="#1A1A1A"/><defs><linearGradient id="a" x1="11.834" y1="40.978" x2="28.8" y2="31.359" gradientUnits="userSpaceOnUse"><stop stop-color="#E51919"/><stop offset="1" stop-color="#E93C3C"/></linearGradient><linearGradient id="b" x1="40.449" y1="25.949" x2="23.83" y2="18.36" gradientUnits="userSpaceOnUse"><stop stop-color="#F53D7A"/><stop offset="1" stop-color="#F75A8E"/></linearGradient><linearGradient id="c" x1="11.639" y1="25.162" x2="23.529" y2="19.798" gradientUnits="userSpaceOnUse"><stop stop-color="#F50"/><stop offset="1" stop-color="#FF6E26"/></linearGradient></defs></svg>
