<svg width="127" height="26" viewBox="0 0 127 26" fill="none" xmlns="http://www.w3.org/2000/svg">
<g clip-path="url(#clip0_5742_2920)">
<path d="M2.13614 20.1934V22.7358L4.16689 23.4934L11.8867 18.1425L8.57182 16.8713L2.13614 20.1934Z" fill="url(#paint0_linear_5742_2920)"/>
<path d="M9.464 6.28784V15.1936L13.7681 16.8344L17.5497 14.2107V11.9269L9.464 6.28784Z" fill="url(#paint1_linear_5742_2920)"/>
<path d="M7.56018 15.2712L2.13614 18.0649V3.32787L4.0549 2.52228L7.56018 4.96121V15.2712Z" fill="url(#paint2_linear_5742_2920)"/>
<path fill-rule="evenodd" clip-rule="evenodd" d="M3.79351 0.576559C4.09831 0.447186 4.44908 0.483492 4.72025 0.672481L19.0501 10.6594C19.3044 10.8366 19.4556 11.1252 19.4556 11.433V14.7023C19.4556 15.0108 19.3036 15.2999 19.0484 15.477L4.84717 25.3287C4.58688 25.5093 4.25293 25.5499 3.95621 25.4371L0.837978 24.252C0.468634 24.1117 0.224854 23.7605 0.224854 23.3689L0.22486 2.71496C0.22486 2.33659 0.452612 1.99462 0.803905 1.84551L3.79351 0.576559ZM2.19405 3.31406C2.15892 3.32897 2.13615 3.36317 2.13615 3.40101L2.13615 17.907C2.13615 17.978 2.21228 18.0237 2.2759 17.9908L7.50134 15.2929C7.53291 15.2766 7.55271 15.2443 7.55271 15.209L7.55271 5.00949C7.55271 4.97871 7.53758 4.94986 7.51216 4.93214L4.09992 2.55404C4.07281 2.53514 4.03773 2.53151 4.00725 2.54445L2.19405 3.31406ZM9.61458 6.39738C9.55126 6.35326 9.464 6.39809 9.464 6.47474L9.464 15.1211C9.464 15.1601 9.48827 15.1952 9.52508 15.2093L13.716 16.8146C13.7457 16.826 13.7792 16.822 13.8053 16.8039L17.5036 14.2383C17.5291 14.2206 17.5443 14.1917 17.5443 14.1608V11.973C17.5443 11.9422 17.5292 11.9133 17.5038 11.8956L9.61458 6.39738ZM2.19746 22.7421C2.16052 22.728 2.13614 22.6929 2.13614 22.6537L2.13614 20.2543C2.13614 20.219 2.15594 20.1867 2.18752 20.1704L8.53484 16.8932C8.55921 16.8806 8.58788 16.879 8.61352 16.8888L11.7125 18.0759C11.7838 18.1032 11.7954 18.1982 11.7329 18.2416L4.20826 23.4616C4.18223 23.4796 4.14884 23.4837 4.11917 23.4724L2.19746 22.7421Z" fill="#050B17"/>
<path d="M32.7319 21.0057C32.7452 21.0446 32.7817 21.0707 32.8228 21.0707H36.6121C36.6531 21.0707 36.6896 21.0446 36.703 21.0058L42.2718 4.83382C42.2933 4.77139 42.2469 4.70636 42.1809 4.70636H39.2283C39.1869 4.70636 39.1502 4.73284 39.1371 4.7721L34.8196 17.7204C34.7904 17.8081 34.6665 17.8081 34.6372 17.7205L30.3142 4.77206C30.3011 4.73282 30.2644 4.70636 30.223 4.70636H27.2825C27.2165 4.70636 27.1702 4.77127 27.1915 4.83368L32.7319 21.0057Z" fill="currentColor"/>
<path d="M44.9424 7.68017C45.2825 8.02204 45.7114 8.19298 46.229 8.19298C46.7467 8.19298 47.1755 8.02204 47.5157 7.68017C47.8558 7.33829 48.0259 6.92953 48.0259 6.45388C48.0259 5.97823 47.8558 5.56947 47.5157 5.2276C47.1755 4.88573 46.7467 4.71479 46.229 4.71479C45.7114 4.71479 45.2825 4.88573 44.9424 5.2276C44.617 5.56947 44.4543 5.97823 44.4543 6.45388C44.4543 6.92953 44.617 7.33829 44.9424 7.68017Z" fill="currentColor"/>
<path d="M44.7649 20.9746C44.7649 21.0277 44.808 21.0707 44.8611 21.0707H47.6192C47.6723 21.0707 47.7153 21.0277 47.7153 20.9746V10.1174C47.7153 10.0643 47.6723 10.0213 47.6192 10.0213H44.8611C44.808 10.0213 44.7649 10.0643 44.7649 10.1174V20.9746Z" fill="currentColor"/>
<path fill-rule="evenodd" clip-rule="evenodd" d="M56.0377 21.2936C55.1652 21.2936 54.4035 21.1227 53.7528 20.7808C53.1021 20.4241 52.5549 19.9559 52.1112 19.3762C51.6823 18.7816 51.357 18.1202 51.1351 17.3918C50.9281 16.6635 50.8245 15.9203 50.8245 15.1622C50.8245 14.4042 50.9281 13.661 51.1351 12.9326C51.357 12.2043 51.6823 11.5503 52.1112 10.9706C52.5549 10.376 53.1021 9.90778 53.7528 9.56591C54.4035 9.20917 55.1652 9.0308 56.0377 9.0308C56.792 9.0308 57.4131 9.15715 57.9012 9.40984C58.3892 9.64766 58.7737 9.91521 59.0547 10.2125C59.3144 10.4735 59.4982 10.69 59.6064 10.8621C59.6224 10.8876 59.65 10.9037 59.6801 10.9037C59.7268 10.9037 59.7646 10.8659 59.7646 10.8192V4.80251C59.7646 4.74941 59.8077 4.70636 59.8608 4.70636H62.6189C62.672 4.70636 62.715 4.74941 62.715 4.80251V20.9745C62.715 21.0276 62.672 21.0707 62.6189 21.0707H59.8608C59.8077 21.0707 59.7646 21.0276 59.7646 20.9745V19.5052C59.7646 19.4586 59.7268 19.4208 59.6801 19.4208C59.65 19.4208 59.6224 19.4368 59.6064 19.4624C59.4983 19.6355 59.3144 19.8595 59.0547 20.1342C58.7737 20.4315 58.3892 20.6991 57.9012 20.9369C57.4131 21.1747 56.792 21.2936 56.0377 21.2936ZM56.8142 18.8634C57.4797 18.8634 58.0343 18.685 58.4779 18.3283C58.9216 17.9567 59.2544 17.4884 59.4762 16.9236C59.6981 16.3588 59.809 15.7717 59.809 15.1622C59.809 14.5528 59.6981 13.9657 59.4762 13.4008C59.2544 12.836 58.9216 12.3752 58.4779 12.0185C58.0343 11.6469 57.4797 11.4611 56.8142 11.4611C56.1486 11.4611 55.5867 11.6469 55.1282 12.0185C54.6845 12.3752 54.3518 12.836 54.1299 13.4008C53.9081 13.9657 53.7972 14.5528 53.7972 15.1622C53.7972 15.7717 53.9081 16.3588 54.1299 16.9236C54.3518 17.4884 54.6845 17.9567 55.1282 18.3283C55.5867 18.685 56.1486 18.8634 56.8142 18.8634Z" fill="currentColor"/>
<path d="M68.2856 20.9146C68.9068 21.1673 69.698 21.2936 70.6593 21.2936C71.6354 21.2936 72.4636 21.1301 73.1439 20.8031C73.8389 20.4613 74.364 20.0079 74.7189 19.4431C75.0886 18.8634 75.2735 18.2242 75.2735 17.5256C75.2735 16.4851 74.9186 15.6899 74.2087 15.1399C73.5136 14.59 72.6188 14.2035 71.5244 13.9805L69.9938 13.6461C69.5501 13.5569 69.1877 13.4231 68.9068 13.2448C68.6258 13.0664 68.4853 12.8137 68.4853 12.4867C68.4853 12.1894 68.611 11.907 68.8624 11.6394C69.1286 11.3719 69.5723 11.2381 70.1934 11.2381C70.6519 11.2381 71.0142 11.3124 71.2804 11.4611C71.5614 11.5949 71.7685 11.7509 71.9016 11.9293C72.0495 12.1077 72.1456 12.2712 72.19 12.4198L72.2347 12.5546C72.2477 12.594 72.2845 12.6205 72.3259 12.6205H74.8399C74.9024 12.6205 74.9483 12.5619 74.9333 12.5012L74.8742 12.2637C74.8298 12.011 74.7189 11.7063 74.5414 11.3496C74.3788 10.9929 74.1199 10.6361 73.765 10.2794C73.4249 9.92265 72.9664 9.62537 72.3896 9.38754C71.8276 9.14972 71.1103 9.0308 70.2378 9.0308C68.8624 9.0308 67.7754 9.38011 66.9768 10.0787C66.1781 10.7625 65.7788 11.632 65.7788 12.6874C65.7788 13.4008 65.9563 13.988 66.3112 14.4487C66.6662 14.8947 67.1247 15.2514 67.6866 15.519C68.2486 15.7717 68.855 15.9649 69.5057 16.0987L71.1251 16.4331C71.5984 16.5371 71.9533 16.6932 72.19 16.9013C72.4414 17.0945 72.5671 17.3547 72.5671 17.6817C72.5671 18.0236 72.4266 18.3357 72.1456 18.6181C71.8646 18.8857 71.4061 19.0194 70.7702 19.0194C70.2378 19.0194 69.8089 18.9377 69.4835 18.7742C69.1582 18.6107 68.9141 18.4249 68.7515 18.2168C68.6036 17.9938 68.5 17.8006 68.4409 17.6371L68.3936 17.4628C68.3822 17.4209 68.3442 17.3918 68.3008 17.3918H65.6926C65.6332 17.3918 65.588 17.4451 65.5977 17.5037L65.6457 17.7932C65.7049 18.0458 65.8232 18.3654 66.0007 18.7519C66.1781 19.1384 66.4444 19.5323 66.7993 19.9336C67.169 20.32 67.6645 20.6471 68.2856 20.9146Z" fill="currentColor"/>
<path d="M82.9175 21.2936C82.1189 21.2936 81.4608 21.1747 80.9432 20.9369C80.4256 20.6991 80.0189 20.3869 79.7231 20.0005C79.4421 19.614 79.2424 19.1904 79.1241 18.7296C79.0058 18.2688 78.9466 17.8155 78.9466 17.3695V11.7356C78.9466 11.6825 78.9036 11.6394 78.8505 11.6394H77.0241C76.971 11.6394 76.9279 11.5964 76.9279 11.5433V9.34992C76.9279 9.29681 76.971 9.25376 77.0241 9.25376H78.8505C78.9036 9.25376 78.9466 9.21072 78.9466 9.15761V6.40684C78.9466 6.35373 78.9897 6.31068 79.0428 6.31068H81.8009C81.854 6.31068 81.8971 6.35373 81.8971 6.40684V9.15761C81.8971 9.21072 81.9401 9.25376 81.9932 9.25376H84.4408C84.4939 9.25376 84.537 9.29681 84.537 9.34992V11.5433C84.537 11.5964 84.4939 11.6394 84.4408 11.6394H81.9932C81.9401 11.6394 81.8971 11.6825 81.8971 11.7356V17.3026C81.8971 18.358 82.4887 18.8857 83.6718 18.8857C83.9528 18.8857 84.2116 18.8708 84.4482 18.8411L84.7125 18.7942C84.7714 18.7838 84.8253 18.8291 84.8253 18.8889V21.0106C84.8253 21.058 84.7908 21.0983 84.7439 21.1056L84.2486 21.1822C83.8788 21.2565 83.4352 21.2936 82.9175 21.2936Z" fill="currentColor"/>
<path fill-rule="evenodd" clip-rule="evenodd" d="M94.0954 9.40984C93.6074 9.15715 92.9862 9.0308 92.232 9.0308C91.3594 9.0308 90.5977 9.20917 89.947 9.56591C89.2963 9.90778 88.7491 10.376 88.3054 10.9706C87.8765 11.5503 87.5512 12.2043 87.3293 12.9326C87.1223 13.661 87.0188 14.4042 87.0188 15.1622C87.0188 15.9203 87.1223 16.6635 87.3293 17.3918C87.5512 18.1202 87.8765 18.7816 88.3054 19.3762C88.7491 19.9559 89.2963 20.4241 89.947 20.7808C90.5977 21.1227 91.3594 21.2936 92.232 21.2936C92.9862 21.2936 93.6074 21.1747 94.0954 20.9369C94.5834 20.6991 94.968 20.4315 95.2489 20.1342C95.5086 19.8595 95.6925 19.6355 95.8007 19.4624C95.8166 19.4368 95.8443 19.4208 95.8744 19.4208C95.921 19.4208 95.9588 19.4586 95.9588 19.5052V20.9745C95.9588 21.0276 96.0019 21.0707 96.055 21.0707H98.8131C98.8662 21.0707 98.9093 21.0276 98.9093 20.9745V9.34992C98.9093 9.29681 98.8662 9.25376 98.8131 9.25376H96.055C96.0019 9.25376 95.9588 9.29681 95.9588 9.34992V10.8192C95.9588 10.8659 95.921 10.9037 95.8744 10.9037C95.8443 10.9037 95.8166 10.8876 95.8006 10.8621C95.6925 10.69 95.5086 10.4735 95.2489 10.2125C94.968 9.91521 94.5834 9.64766 94.0954 9.40984ZM91.3224 12.0185C91.7809 11.6469 92.3429 11.4611 93.0084 11.4611C93.6739 11.4611 94.2285 11.6469 94.6722 12.0185C95.1159 12.3752 95.4486 12.836 95.6704 13.4008C95.8923 13.9657 96.0032 14.5528 96.0032 15.1622C96.0032 15.7717 95.8923 16.3588 95.6704 16.9236C95.4486 17.4884 95.1159 17.9567 94.6722 18.3283C94.2285 18.685 93.6739 18.8634 93.0084 18.8634C92.3429 18.8634 91.7809 18.685 91.3224 18.3283C90.8787 17.9567 90.546 17.4884 90.3241 16.9236C90.1023 16.3588 89.9914 15.7717 89.9914 15.1622C89.9914 14.5528 90.1023 13.9657 90.3241 13.4008C90.546 12.836 90.8787 12.3752 91.3224 12.0185Z" fill="currentColor"/>
<path d="M107.811 21.2936C106.805 21.2936 105.925 21.1227 105.171 20.7808C104.416 20.4241 103.788 19.9559 103.285 19.3762C102.782 18.7816 102.405 18.1202 102.154 17.3918C101.917 16.6635 101.799 15.9203 101.799 15.1622C101.799 14.4042 101.917 13.661 102.154 12.9326C102.405 12.2043 102.775 11.5503 103.263 10.9706C103.766 10.376 104.394 9.90778 105.148 9.56591C105.903 9.20917 106.79 9.0308 107.811 9.0308C108.816 9.0308 109.652 9.17944 110.317 9.47673C110.983 9.77401 111.508 10.1456 111.892 10.5915C112.292 11.0375 112.587 11.4834 112.78 11.9293C112.972 12.3604 113.098 12.7245 113.157 13.0218L113.223 13.3529C113.235 13.4124 113.189 13.4677 113.128 13.4677H110.544C110.501 13.4677 110.464 13.4402 110.452 13.3998L110.384 13.1779C110.325 12.9698 110.206 12.732 110.029 12.4644C109.851 12.1968 109.585 11.959 109.23 11.7509C108.89 11.5428 108.432 11.4388 107.855 11.4388C107.175 11.4388 106.598 11.6171 106.125 11.9739C105.666 12.3158 105.319 12.7691 105.082 13.3339C104.845 13.8988 104.727 14.5082 104.727 15.1622C104.727 15.8162 104.845 16.4257 105.082 16.9905C105.319 17.5553 105.666 18.0161 106.125 18.3729C106.598 18.7147 107.175 18.8857 107.855 18.8857C108.432 18.8857 108.89 18.7816 109.23 18.5735C109.585 18.3654 109.851 18.1276 110.029 17.86C110.206 17.5925 110.325 17.3621 110.384 17.1689L110.453 16.9266C110.464 16.8852 110.502 16.8567 110.545 16.8567H113.128C113.189 16.8567 113.235 16.9121 113.223 16.9716L113.157 17.3026C113.098 17.5999 112.972 17.9715 112.78 18.4175C112.587 18.8485 112.292 19.287 111.892 19.7329C111.508 20.1788 110.983 20.5504 110.317 20.8477C109.652 21.145 108.816 21.2936 107.811 21.2936Z" fill="currentColor"/>
<path d="M116.263 20.9745C116.263 21.0276 116.306 21.0707 116.359 21.0707H119.117C119.17 21.0707 119.214 21.0276 119.214 20.9745V15.9092C119.214 15.8178 119.329 15.778 119.385 15.85L123.444 21.0338C123.462 21.0571 123.49 21.0707 123.52 21.0707H126.802C126.883 21.0707 126.928 20.9783 126.878 20.9152L122.014 14.7132C121.985 14.6763 121.987 14.624 122.019 14.5893L126.699 9.41442C126.755 9.3526 126.711 9.25376 126.628 9.25376H123.405C123.378 9.25376 123.351 9.26556 123.333 9.28615L119.382 13.7462C119.323 13.8124 119.214 13.7709 119.214 13.6824V4.80901C119.214 4.75591 119.17 4.71286 119.117 4.71286H116.359C116.306 4.71286 116.263 4.75591 116.263 4.80901V20.9745Z" fill="currentColor"/>
</g>
<defs>
<linearGradient id="paint0_linear_5742_2920" x1="4.33338" y1="25.7619" x2="21.7087" y2="11.0372" gradientUnits="userSpaceOnUse">
<stop stop-color="#E11D48"/>
<stop offset="0.0001" stop-color="#E11D48"/>
<stop offset="1" stop-color="#F43F5E"/>
</linearGradient>
<linearGradient id="paint1_linear_5742_2920" x1="20.8026" y1="13.1742" x2="0.469166" y2="22.3501" gradientUnits="userSpaceOnUse">
<stop stop-color="#DB2777"/>
<stop offset="1" stop-color="#EC4899"/>
</linearGradient>
<linearGradient id="paint2_linear_5742_2920" x1="0.452351" y1="1.65828" x2="5.04019" y2="23.5198" gradientUnits="userSpaceOnUse">
<stop stop-color="#EA580C"/>
<stop offset="1" stop-color="#F97316"/>
</linearGradient>
<clipPath id="clip0_5742_2920">
<rect width="127" height="26" fill="white"/>
</clipPath>
</defs>
</svg>
