<svg aria-hidden="true" role="img" viewBox="0 0 64 64" fill="none" xmlns="http://www.w3.org/2000/svg">
<path d="M52.328 11.4094C47.128 3.96689 36.858 1.76089 29.4323 6.49204L16.391 14.8039C12.8287 17.045 10.375 20.6828 9.63165 24.8253C9.00955 28.2762 9.55634 31.8361 11.1855 34.9412C10.0691 36.6346 9.30777 38.5367 8.94735 40.5326C8.19682 44.7547 9.17859 49.101 11.671 52.5905C16.8721 60.0337 27.1422 62.2388 34.5667 57.5079L47.6081 49.196C51.1706 46.9552 53.6243 43.3172 54.3674 39.1746C54.9894 35.7238 54.443 32.164 52.8147 29.0585C53.9307 27.3652 54.6918 25.4631 55.0519 23.4673C55.8029 19.2453 54.8211 14.8987 52.3282 11.4094" fill="#FF3E00"/>
<path d="M28.1568 53.2992C23.9518 54.3926 19.5113 52.7466 17.0349 49.1767C15.5353 47.0777 14.9446 44.4631 15.3961 41.9233C15.4718 41.5105 15.576 41.1035 15.7079 40.7051L15.9536 39.956L16.6219 40.4469C18.1654 41.581 19.8912 42.4432 21.7249 42.9965L22.2098 43.1436L22.1651 43.6275C22.1059 44.3159 22.2923 45.003 22.6913 45.5671C23.4365 46.6424 24.7735 47.1387 26.0398 46.81C26.3233 46.7342 26.5936 46.6154 26.8411 46.4578L39.8867 38.1445C40.5321 37.7381 40.9769 37.079 41.1123 36.3284C41.2475 35.5629 41.0696 34.7752 40.6184 34.1422C39.8727 33.0666 38.5354 32.5702 37.2685 32.8986C36.9854 32.9744 36.7155 33.0931 36.4683 33.2505L31.4902 36.4239C30.6717 36.9444 29.7783 37.3367 28.8412 37.5872C24.6363 38.6805 20.1959 37.0345 17.7195 33.4646C16.2199 31.3657 15.6291 28.7511 16.0808 26.2113C16.5278 23.7196 18.0039 21.5315 20.147 20.1839L33.1913 11.8698C34.0103 11.3485 34.9042 10.9557 35.8421 10.7051C40.047 9.61187 44.4874 11.2578 46.9638 14.8277C48.4634 16.9266 49.0541 19.5412 48.6025 22.081C48.5265 22.4937 48.4224 22.9008 48.2908 23.2992L48.0451 24.0484L47.3771 23.5582C45.8337 22.4235 44.1078 21.5608 42.2738 21.0075L41.7889 20.8603L41.8336 20.3764C41.8923 19.6881 41.706 19.0012 41.3074 18.4369C40.5622 17.3615 39.2252 16.8653 37.9589 17.194C37.6753 17.2698 37.4051 17.3885 37.1576 17.5462L24.112 25.8599C23.4667 26.2659 23.0221 26.9249 22.8873 27.6754C22.7513 28.4408 22.9289 29.2289 23.3803 29.8619C24.126 30.9374 25.4632 31.4339 26.7301 31.1055C27.0136 31.0295 27.2838 30.9108 27.5314 30.7533L32.5088 27.5811C33.327 27.06 34.2203 26.6673 35.1575 26.4169C39.3624 25.3236 43.8029 26.9695 46.2792 30.5394C47.7789 32.6384 48.3696 35.253 47.918 37.7928C47.4706 40.2846 45.9946 42.4729 43.8518 43.8212L30.8073 52.1345C29.9884 52.6558 29.0944 53.0486 28.1566 53.2992" fill="white"/>
</svg>
