<svg  aria-hidden="true" role="img" viewBox="0 0 64 64" fill="none" xmlns="http://www.w3.org/2000/svg">
<path fill-rule="evenodd" clip-rule="evenodd" d="M32 15.2305C24.5333 15.2305 19.8667 18.957 18 26.4101C20.8 22.6836 24.0667 21.2861 27.8 22.2177C29.9301 22.7488 31.4524 24.2922 33.1376 25.9991C35.8827 28.7806 39.0601 31.9999 46 31.9999C53.4667 31.9999 58.1333 28.2734 60 20.8203C57.2 24.5468 53.9333 25.9443 50.2 25.0127C48.0699 24.4816 46.5476 22.9382 44.8624 21.2312C42.1173 18.4498 38.9398 15.2305 32 15.2305ZM18 31.9999C10.5333 31.9999 5.86667 35.7265 4 43.1796C6.8 39.453 10.0667 38.0556 13.8 38.9872C15.9301 39.5193 17.4524 41.0616 19.1376 42.7686C21.8827 45.5501 25.0601 48.7694 32 48.7694C39.4667 48.7694 44.1333 45.0428 46 37.5897C43.2 41.3163 39.9333 42.7137 36.2 41.7821C34.0699 41.2511 32.5476 39.7077 30.8624 38.0007C28.1173 35.2192 24.9399 31.9999 18 31.9999Z" fill="#06B6D4"/>
</svg>
