<svg aria-hidden="true" role="img" viewBox="0 0 32 32" fill="none" xmlns="http://www.w3.org/2000/svg">
<path d="M16 24.5C20.6944 24.5 24.5 20.6944 24.5 16C24.5 11.3056 20.6944 7.5 16 7.5C11.3056 7.5 7.5 11.3056 7.5 16C7.5 20.6944 11.3056 24.5 16 24.5Z" fill="#FF4500"/>
<path d="M21.667 16.0001C21.667 15.3142 21.1102 14.7574 20.4243 14.7574C20.0863 14.7574 19.788 14.8867 19.5693 15.1054C18.7243 14.4989 17.5512 14.1013 16.2588 14.0516L16.8254 11.3972L18.6646 11.7849C18.6845 12.2522 19.0722 12.6299 19.5494 12.6299C20.0366 12.6299 20.4342 12.2323 20.4342 11.7451C20.4342 11.258 20.0366 10.8604 19.5494 10.8604C19.2015 10.8604 18.9032 11.0592 18.764 11.3574L16.7061 10.92C16.6465 10.9101 16.5868 10.92 16.5371 10.9498C16.4874 10.9796 16.4576 11.0294 16.4377 11.089L15.8114 14.0516C14.4892 14.0913 13.3061 14.4791 12.4512 15.1054C12.2325 14.8966 11.9243 14.7574 11.5962 14.7574C10.9102 14.7574 10.3535 15.3142 10.3535 16.0001C10.3535 16.5071 10.6518 16.9346 11.0892 17.1335C11.0693 17.2528 11.0594 17.382 11.0594 17.5112C11.0594 19.42 13.2763 20.9609 16.0202 20.9609C18.764 20.9609 20.981 19.42 20.981 17.5112C20.981 17.382 20.9711 17.2627 20.9512 17.1434C21.3588 16.9446 21.667 16.5071 21.667 16.0001ZM13.167 16.8849C13.167 16.3978 13.5646 16.0001 14.0518 16.0001C14.5389 16.0001 14.9366 16.3978 14.9366 16.8849C14.9366 17.372 14.5389 17.7697 14.0518 17.7697C13.5646 17.7697 13.167 17.372 13.167 16.8849ZM18.1079 19.2212C17.5015 19.8276 16.3483 19.8674 16.0102 19.8674C15.6722 19.8674 14.5091 19.8177 13.9126 19.2212C13.8231 19.1317 13.8231 18.9826 13.9126 18.8931C14.0021 18.8036 14.1512 18.8036 14.2406 18.8931C14.6184 19.2709 15.4336 19.4101 16.0202 19.4101C16.6067 19.4101 17.412 19.2709 17.7997 18.8931C17.8892 18.8036 18.0383 18.8036 18.1278 18.8931C18.1974 18.9925 18.1974 19.1317 18.1079 19.2212ZM17.9488 17.7697C17.4617 17.7697 17.064 17.372 17.064 16.8849C17.064 16.3978 17.4617 16.0001 17.9488 16.0001C18.436 16.0001 18.8336 16.3978 18.8336 16.8849C18.8336 17.372 18.436 17.7697 17.9488 17.7697Z" fill="white"/>
</svg>
