<svg aria-hidden="true" role="img" viewBox="0 0 40 40" fill="none" xmlns="http://www.w3.org/2000/svg">
<path d="M35.6888 16.8664H34.4V16.8H20V23.2H29.0424C27.7232 26.9256 24.1784 29.6 20 29.6C14.6984 29.6 10.4 25.3016 10.4 20C10.4 14.6984 14.6984 10.4 20 10.4C22.4472 10.4 24.6736 11.3232 26.3688 12.8312L30.8944 8.3056C28.0368 5.6424 24.2144 4 20 4C11.164 4 4 11.164 4 20C4 28.836 11.164 36 20 36C28.836 36 36 28.836 36 20C36 18.9272 35.8896 17.88 35.6888 16.8664Z" fill="#FFC107"/>
<path d="M5.8457 12.5528L11.1025 16.408C12.5249 12.8864 15.9697 10.4 20.0009 10.4C22.4481 10.4 24.6745 11.3232 26.3697 12.8312L30.8953 8.3056C28.0377 5.6424 24.2153 4 20.0009 4C13.8553 4 8.5257 7.4696 5.8457 12.5528Z" fill="#FF3D00"/>
<path d="M19.9999 36C24.1327 36 27.8879 34.4184 30.7271 31.8464L25.7751 27.656C24.1687 28.8728 22.1719 29.6 19.9999 29.6C15.8383 29.6 12.3047 26.9464 10.9735 23.2432L5.75586 27.2632C8.40386 32.4448 13.7815 36 19.9999 36Z" fill="#4CAF50"/>
<path d="M35.6888 16.8662H34.4V16.7998H20V23.1998H29.0424C28.4088 24.9894 27.2576 26.5326 25.7728 27.6566C25.7736 27.6558 25.7744 27.6558 25.7752 27.655L30.7272 31.8454C30.3768 32.1638 36 27.9998 36 19.9998C36 18.927 35.8896 17.8798 35.6888 16.8662Z" fill="#1976D2"/>
</svg>
