<svg aria-hidden="true" role="img" viewBox="0 0 40 40" fill="none" xmlns="http://www.w3.org/2000/svg">
<g clip-path="url(#clip0_756_2221)">
<path fill-rule="evenodd" clip-rule="evenodd" d="M19.1396 18.4524L39.761 19.3584C39.8994 19.3648 40.0079 19.4818 40.0015 19.62C39.9973 19.703 39.9547 19.7774 39.8845 19.8221L22.4818 30.8815C22.4392 30.9092 22.3881 30.9219 22.3349 30.9198L1.71348 30.0138C1.57511 30.0074 1.46654 29.8904 1.47292 29.7522C1.47718 29.6692 1.51976 29.5948 1.59001 29.5501L18.9927 18.4907C19.0353 18.463 19.0864 18.4502 19.1396 18.4524Z" fill="#C2C3ED"/>
<path fill-rule="evenodd" clip-rule="evenodd" d="M17.6689 9.0793L38.2903 9.98534C38.4286 9.99172 38.5372 10.1087 38.5308 10.2469C38.5266 10.3299 38.484 10.4043 38.4137 10.449L21.011 21.5085C20.9685 21.5361 20.9174 21.5489 20.8642 21.5468L0.24277 20.6407C0.1044 20.6343 -0.00416523 20.5174 0.00222108 20.3792C0.00647862 20.2962 0.0490547 20.2217 0.119304 20.1771L17.522 9.11759C17.5667 9.09206 17.6178 9.07718 17.6689 9.0793Z" fill="#303F9F"/>
</g>
<defs>
<clipPath id="clip0_756_2221">
<rect width="40" height="40" fill="white"/>
</clipPath>
</defs>
</svg>
