<svg aria-hidden="true" role="img" viewBox="0 0 40 40" fill="none" xmlns="http://www.w3.org/2000/svg">
<path d="M5.05909 25.0479C7.85315 25.0479 10.1182 22.7879 10.1182 20C10.1182 17.2122 7.85315 14.9521 5.05909 14.9521C2.26503 14.9521 0 17.2122 0 20C0 22.7879 2.26503 25.0479 5.05909 25.0479Z" fill="currentColor"/>
<path d="M23.3225 23.6261C25.2987 23.6261 26.9008 22.0276 26.9008 20.0557C26.9008 18.0839 25.2987 16.4854 23.3225 16.4854C21.3462 16.4854 19.7441 18.0839 19.7441 20.0557C19.7441 22.0276 21.3462 23.6261 23.3225 23.6261Z" fill="currentColor"/>
<path d="M38.3746 21.6765C39.2718 21.6765 39.9991 20.9508 39.9991 20.0555C39.9991 19.1603 39.2718 18.4346 38.3746 18.4346C37.4773 18.4346 36.75 19.1603 36.75 20.0555C36.75 20.9508 37.4773 21.6765 38.3746 21.6765Z" fill="currentColor"/>
</svg>
