<svg aria-hidden="true" role="img" viewBox="0 0 40 40" fill="none" xmlns="http://www.w3.org/2000/svg">
<g opacity="0.7">
<path opacity="0.7" d="M37.6938 25.9533C38.2215 26.481 39.077 26.481 39.6047 25.9533C40.1323 25.4256 40.1323 24.57 39.6047 24.0424L29.6056 14.0432C29.0779 13.5155 28.2223 13.5155 27.6946 14.0432C27.1669 14.5709 27.1669 15.4265 27.6946 15.9541L37.6938 25.9533Z" fill="url(#paint0_linear_756_2219)"/>
</g>
<path d="M37.6938 14.0433L27.6946 24.0424C27.1669 24.5701 27.1669 25.4256 27.6946 25.9534C28.2223 26.481 29.0779 26.481 29.6055 25.9534L39.6047 15.9542C40.1323 15.4265 40.1323 14.571 39.6047 14.0433C39.3408 13.7794 38.995 13.6475 38.6492 13.6475C38.3034 13.6475 37.9576 13.7794 37.6938 14.0433Z" fill="url(#paint1_linear_756_2219)"/>
<g opacity="0.7">
<path opacity="0.7" d="M20.0446 23.6466C21.761 23.6466 23.1524 22.2552 23.1524 20.5388V15.049C23.1524 14.275 23.7302 13.6475 24.5037 13.6475C25.2772 13.6475 25.8549 14.275 25.8549 15.049V20.5388C25.8549 23.7478 23.2535 26.3492 20.0446 26.3492C19.2983 26.3492 18.6934 25.7442 18.6934 24.9979C18.6934 24.2516 19.2983 23.6466 20.0446 23.6466Z" fill="url(#paint2_linear_756_2219)"/>
</g>
<g opacity="0.7">
<path opacity="0.7" d="M11.3415 13.6475C10.5679 13.6475 9.99023 14.275 9.99023 15.049V24.9477C9.99023 25.7216 10.5679 26.3492 11.3415 26.3492C12.115 26.3492 12.6927 25.7216 12.6927 24.9477V15.049C12.6927 14.275 12.115 13.6475 11.3415 13.6475Z" fill="url(#paint3_linear_756_2219)"/>
</g>
<path fill-rule="evenodd" clip-rule="evenodd" d="M23.1445 14.9986C23.1445 15.7444 23.75 16.3498 24.4958 16.3498C25.2415 16.3498 25.847 15.7444 25.847 14.9986C25.847 14.2529 25.2415 13.6475 24.4958 13.6475C23.75 13.6475 23.1445 14.2529 23.1445 14.9986H23.1445Z" fill="url(#paint4_linear_756_2219)"/>
<path fill-rule="evenodd" clip-rule="evenodd" d="M37.2871 25.0007C37.2871 25.7464 37.8926 26.3519 38.6384 26.3519C39.3842 26.3519 39.9896 25.7464 39.9896 25.0007C39.9896 24.2549 39.3842 23.6494 38.6384 23.6494C37.8926 23.6494 37.2871 24.2549 37.2871 25.0007Z" fill="url(#paint5_linear_756_2219)"/>
<path d="M0 15.0489V24.9476C0 25.7216 0.577664 26.3491 1.35124 26.3491C2.12472 26.3491 2.70246 25.7216 2.70246 24.9476V15.0489C2.70246 14.2749 2.12472 13.6475 1.35124 13.6475C0.577664 13.6475 0 14.2749 0 15.0489Z" fill="url(#paint6_linear_756_2219)"/>
<path fill-rule="evenodd" clip-rule="evenodd" d="M9.99023 25.0007C9.99023 25.7465 10.5957 26.3519 11.3415 26.3519C12.0873 26.3519 12.6928 25.7465 12.6928 25.0007C12.6928 24.2549 12.0873 23.6494 11.3415 23.6494C10.5957 23.6494 9.99023 24.2549 9.99023 25.0007Z" fill="url(#paint7_linear_756_2219)"/>
<g opacity="0.7">
<path opacity="0.7" d="M5.39541 20.9537C5.9231 21.4814 6.77865 21.4814 7.30635 20.9537C7.83404 20.426 7.83404 19.5705 7.30635 19.0428L2.30673 14.0432C1.77904 13.5155 0.923488 13.5155 0.39578 14.0432C-0.131927 14.5709 -0.131927 15.4265 0.39578 15.9541L5.39541 20.9537Z" fill="url(#paint8_linear_756_2219)"/>
</g>
<path d="M10.4403 14.0433L5.44063 19.0428C4.91302 19.5705 4.91302 20.4261 5.44063 20.9538C5.96841 21.4815 6.82396 21.4815 7.3516 20.9538L12.3512 15.9542C12.8789 15.4265 12.8789 14.571 12.3512 14.0433C12.0874 13.7794 11.7416 13.6475 11.3957 13.6475C11.0499 13.6475 10.7041 13.7794 10.4403 14.0433Z" fill="url(#paint9_linear_756_2219)"/>
<path d="M14.1445 15.0489V20.5387C14.1445 23.7476 16.7459 26.3491 19.9549 26.3491C20.7012 26.3491 21.3061 25.7441 21.3061 24.9978C21.3061 24.2515 20.7012 23.6465 19.9549 23.6465C18.2385 23.6465 16.8471 22.2551 16.8471 20.5387V15.0489C16.8471 14.2748 16.2693 13.6475 15.4958 13.6475C14.7222 13.6475 14.1445 14.2748 14.1445 15.0489Z" fill="url(#paint10_linear_756_2219)"/>
<defs>
<linearGradient id="paint0_linear_756_2219" x1="-0.40158" y1="19.9982" x2="40.2732" y2="19.9982" gradientUnits="userSpaceOnUse">
<stop stop-color="#FF4E00"/>
<stop offset="1" stop-color="#FF1791"/>
</linearGradient>
<linearGradient id="paint1_linear_756_2219" x1="-0.0862827" y1="19.9983" x2="40.2257" y2="19.9983" gradientUnits="userSpaceOnUse">
<stop stop-color="#FF4E00"/>
<stop offset="1" stop-color="#FF1791"/>
</linearGradient>
<linearGradient id="paint2_linear_756_2219" x1="40.3132" y1="19.9983" x2="-0.0891229" y2="19.9983" gradientUnits="userSpaceOnUse">
<stop stop-color="#FF4E00"/>
<stop offset="1" stop-color="#FF1791"/>
</linearGradient>
<linearGradient id="paint3_linear_756_2219" x1="-0.414302" y1="19.9983" x2="39.988" y2="19.9983" gradientUnits="userSpaceOnUse">
<stop stop-color="#FF4E00"/>
<stop offset="1" stop-color="#FF1791"/>
</linearGradient>
<linearGradient id="paint4_linear_756_2219" x1="-0.0517547" y1="14.9986" x2="40.2154" y2="14.9986" gradientUnits="userSpaceOnUse">
<stop stop-color="#FF4E00"/>
<stop offset="1" stop-color="#FF1791"/>
</linearGradient>
<linearGradient id="paint5_linear_756_2219" x1="-0.412353" y1="25.0006" x2="39.99" y2="25.0006" gradientUnits="userSpaceOnUse">
<stop stop-color="#FF4E00"/>
<stop offset="1" stop-color="#FF1791"/>
</linearGradient>
<linearGradient id="paint6_linear_756_2219" x1="-0.405364" y1="19.9982" x2="39.997" y2="19.9982" gradientUnits="userSpaceOnUse">
<stop stop-color="#FF4E00"/>
<stop offset="1" stop-color="#FF1791"/>
</linearGradient>
<linearGradient id="paint7_linear_756_2219" x1="-0.414298" y1="25.0007" x2="39.988" y2="25.0007" gradientUnits="userSpaceOnUse">
<stop stop-color="#FF4E00"/>
<stop offset="1" stop-color="#FF1791"/>
</linearGradient>
<linearGradient id="paint8_linear_756_2219" x1="4.15692e-05" y1="17.4985" x2="40.1818" y2="17.4985" gradientUnits="userSpaceOnUse">
<stop stop-color="#FF4E00"/>
<stop offset="1" stop-color="#FF1791"/>
</linearGradient>
<linearGradient id="paint9_linear_756_2219" x1="-0.0897719" y1="17.4985" x2="40.1777" y2="17.4985" gradientUnits="userSpaceOnUse">
<stop stop-color="#FF4E00"/>
<stop offset="1" stop-color="#FF1791"/>
</linearGradient>
<linearGradient id="paint10_linear_756_2219" x1="-0.448705" y1="19.9982" x2="39.9536" y2="19.9982" gradientUnits="userSpaceOnUse">
<stop stop-color="#FF4E00"/>
<stop offset="1" stop-color="#FF1791"/>
</linearGradient>
</defs>
</svg>
