<svg width="28" height="28" viewBox="0 0 28 28" fill="none" xmlns="http://www.w3.org/2000/svg">
<path d="M6.41668 5.83334C6.09451 5.83334 5.83334 6.09451 5.83334 6.41668V8.16668C5.83334 8.48884 6.09451 8.75001 6.41668 8.75001H18.0833C18.4055 8.75001 18.6667 8.48884 18.6667 8.16668V6.41668C18.6667 6.09451 18.4055 5.83334 18.0833 5.83334H6.41668Z" fill="currentColor"/>
<path d="M17.0104 19.0914C16.9647 19.1894 16.9471 19.2981 16.9596 19.4054L17.1525 21.0622C17.2027 21.4936 17.6899 21.7208 18.0527 21.482L19.4459 20.5647C19.5361 20.5053 19.6081 20.422 19.6538 20.3241L24.2538 10.4592C24.39 10.1673 24.2636 9.82019 23.9716 9.68404L22.3856 8.94446C22.0936 8.80831 21.7466 8.93463 21.6104 9.22661L17.0104 19.0914Z" fill="currentColor"/>
<path d="M6.41668 18.6667C6.09451 18.6667 5.83334 18.9278 5.83334 19.25V21C5.83334 21.3222 6.09451 21.5833 6.41668 21.5833H13.4167C13.7388 21.5833 14 21.3222 14 21V19.25C14 18.9278 13.7388 18.6667 13.4167 18.6667H6.41668Z" fill="currentColor"/>
<path d="M5.83334 12.8333C5.83334 12.5112 6.09451 12.25 6.41668 12.25H15.75C16.0722 12.25 16.3333 12.5112 16.3333 12.8333V14.5833C16.3333 14.9055 16.0722 15.1667 15.75 15.1667H6.41668C6.09451 15.1667 5.83334 14.9055 5.83334 14.5833V12.8333Z" fill="currentColor"/>
</svg>
