<svg width="28" height="28" viewBox="0 0 28 28" fill="none" xmlns="http://www.w3.org/2000/svg">
<path d="M6.41665 5.83333C6.09448 5.83333 5.83331 6.0945 5.83331 6.41666V8.16666C5.83331 8.48883 6.09448 8.74999 6.41665 8.74999H21.5833C21.9055 8.74999 22.1666 8.48883 22.1666 8.16666V6.41666C22.1666 6.0945 21.9055 5.83333 21.5833 5.83333H6.41665Z" fill="currentColor"/>
<path d="M5.83331 12.8333C5.83331 12.5112 6.09448 12.25 6.41665 12.25H16.3322C16.6543 12.25 16.9155 12.5112 16.9155 12.8333V14.5833C16.9155 14.9055 16.6543 15.1667 16.3322 15.1667H6.41665C6.09448 15.1667 5.83331 14.9055 5.83331 14.5833V12.8333Z" fill="currentColor"/>
<path d="M22.1655 22.7534C22.1655 23.0756 21.9043 23.3367 21.5822 23.3367H20.4155C20.0933 23.3367 19.8322 23.0756 19.8322 22.7534V20.5367C19.8322 20.4723 19.7799 20.4201 19.7155 20.4201H17.4988C17.1767 20.4201 16.9155 20.1589 16.9155 19.8367V18.6701C16.9155 18.3479 17.1767 18.0867 17.4988 18.0867H19.7155C19.7799 18.0867 19.8322 18.0345 19.8322 17.9701V15.7534C19.8322 15.4312 20.0933 15.1701 20.4155 15.1701H21.5822C21.9043 15.1701 22.1655 15.4312 22.1655 15.7534V17.9701C22.1655 18.0345 22.2177 18.0867 22.2822 18.0867H24.4988C24.821 18.0867 25.0822 18.3479 25.0822 18.6701V19.8367C25.0822 20.1589 24.821 20.4201 24.4988 20.4201H22.2822C22.2177 20.4201 22.1655 20.4723 22.1655 20.5367V22.7534Z" fill="currentColor"/>
<path d="M6.41665 18.6667C6.09448 18.6667 5.83331 18.9278 5.83331 19.25V21C5.83331 21.3222 6.09448 21.5833 6.41665 21.5833H13.4166C13.7388 21.5833 14 21.3222 14 21V19.25C14 18.9278 13.7388 18.6667 13.4166 18.6667H6.41665Z" fill="currentColor"/>
</svg>
