<svg width="28" height="28" viewBox="0 0 28 28" fill="none" xmlns="http://www.w3.org/2000/svg">
<path d="M14.9919 21.5827C15.3141 21.5827 15.5753 21.3215 15.5753 20.9993V15.6908C15.5753 15.6264 15.6275 15.5742 15.6919 15.5742H20.9999C21.3221 15.5742 21.5833 15.313 21.5833 14.9908V13.0075C21.5833 12.6853 21.3221 12.4242 20.9999 12.4242L15.6919 12.4242C15.6275 12.4242 15.5753 12.3719 15.5753 12.3075V6.99935C15.5753 6.67718 15.3141 6.41602 14.9919 6.41602H13.0086C12.6864 6.41602 12.4253 6.67718 12.4253 6.99935V12.3075C12.4253 12.3719 12.373 12.4242 12.3086 12.4242L6.99993 12.4242C6.67776 12.4242 6.4166 12.6853 6.4166 13.0075V14.9908C6.4166 15.313 6.67776 15.5742 6.99993 15.5742L12.3086 15.5742C12.373 15.5742 12.4253 15.6264 12.4253 15.6908V20.9993C12.4253 21.3215 12.6864 21.5827 13.0086 21.5827H14.9919Z" fill="currentColor"/>
</svg>
