<svg width="28" height="28" viewBox="0 0 28 28" fill="none" xmlns="http://www.w3.org/2000/svg">
<path d="M4.66666 5.24999C4.66666 4.92782 4.92783 4.66666 5.25 4.66666H22.75C23.0722 4.66666 23.3333 4.92782 23.3333 5.24999V18.0833C23.3333 18.4055 23.0722 18.6667 22.75 18.6667H20.7438C20.5587 18.6667 20.3846 18.5788 20.2746 18.43L19.4126 17.2633C19.1281 16.8782 19.403 16.3333 19.8818 16.3333H20.4167C20.7388 16.3333 21 16.0722 21 15.75V7.58332C21 7.26116 20.7388 6.99999 20.4167 6.99999H7.58333C7.26116 6.99999 7 7.26116 7 7.58332V15.75C7 16.0722 7.26116 16.3333 7.58333 16.3333H8.13187C8.61063 16.3333 8.88553 16.8782 8.60104 17.2633L7.73908 18.43C7.6291 18.5788 7.455 18.6667 7.26991 18.6667H5.25C4.92783 18.6667 4.66666 18.4055 4.66666 18.0833V5.24999Z" fill="currentColor"/>
<path d="M7.68712 22.4033C7.40261 22.7884 7.67751 23.3333 8.15628 23.3333L19.8436 23.3333C20.3224 23.3333 20.5973 22.7884 20.3128 22.4033L14.4689 14.4946C14.2357 14.179 13.7637 14.1791 13.5305 14.4946L7.68712 22.4033Z" fill="currentColor"/>
</svg>
