<svg width="28" height="28" viewBox="0 0 28 28" fill="none" xmlns="http://www.w3.org/2000/svg">
<path d="M11.4544 12.5418C11.3505 12.5418 11.2984 12.4161 11.3719 12.3426L15.4893 8.22519C15.7171 7.99739 15.7171 7.62804 15.4893 7.40023L14.2519 6.1628C14.0241 5.93499 13.6547 5.93499 13.4269 6.1628L6.00232 13.5874C5.77452 13.8152 5.77452 14.1846 6.00232 14.4124L7.23976 15.6498L7.24094 15.651L13.4272 21.8372C13.655 22.065 14.0243 22.065 14.2521 21.8372L15.4896 20.5998C15.7174 20.372 15.7174 20.0026 15.4896 19.7748L11.3723 15.6576C11.2988 15.5841 11.3509 15.4584 11.4548 15.4584L22.75 15.4584C23.0722 15.4584 23.3333 15.1973 23.3333 14.8751V13.1251C23.3333 12.8029 23.0722 12.5418 22.75 12.5418L11.4544 12.5418Z" fill="currentColor"/>
</svg>
