<svg width="28" height="28" viewBox="0 0 28 28" fill="none" xmlns="http://www.w3.org/2000/svg">
<path fill-rule="evenodd" clip-rule="evenodd" d="M13.9421 19.8664C13.978 19.8459 14.022 19.8459 14.0579 19.8664L21.2939 24.0013C21.6828 24.2235 22.1667 23.9427 22.1667 23.4948V4.08333C22.1667 3.76117 21.9055 3.5 21.5833 3.5H6.41668C6.09451 3.5 5.83334 3.76117 5.83334 4.08333V23.4948C5.83334 23.9427 6.31721 24.2235 6.70609 24.0013L13.9421 19.8664ZM14.0579 16.7759C14.022 16.7554 13.978 16.7554 13.9421 16.7759L8.69123 19.7764C8.61345 19.8208 8.51668 19.7647 8.51668 19.6751V6.3C8.51668 6.23557 8.56891 6.18333 8.63334 6.18333H19.3667C19.4311 6.18333 19.4833 6.23557 19.4833 6.3V19.6751C19.4833 19.7647 19.3866 19.8208 19.3088 19.7764L14.0579 16.7759Z" fill="currentColor"/>
</svg>
