<svg width="28" height="28" viewBox="0 0 28 28" fill="none" xmlns="http://www.w3.org/2000/svg">
<path d="M14 17.9671C15.4498 17.9671 16.625 16.7919 16.625 15.3421C16.625 13.8924 15.4498 12.7171 14 12.7171C12.5503 12.7171 11.375 13.8924 11.375 15.3421C11.375 16.7919 12.5503 17.9671 14 17.9671Z" fill="currentColor"/>
<path fill-rule="evenodd" clip-rule="evenodd" d="M9.48263 5.83334C9.25334 5.83334 9.04532 5.96766 8.95097 6.17664L8.08348 8.09802C8.06461 8.13981 8.023 8.16668 7.97714 8.16668H5.25002C4.92785 8.16668 4.66669 8.42784 4.66669 8.75001V22.75C4.66669 23.0722 4.92785 23.3333 5.25002 23.3333H22.75C23.0722 23.3333 23.3334 23.0722 23.3334 22.75V8.75001C23.3334 8.42784 23.0722 8.16668 22.75 8.16668H20.0252C19.9793 8.16668 19.9376 8.13978 19.9188 8.09796L19.0528 6.17695C18.9585 5.96781 18.7504 5.83334 18.521 5.83334H9.48263ZM11.0681 8.16668C10.8628 8.16668 10.6725 8.27468 10.5673 8.45103L9.37818 10.4431C9.35713 10.4784 9.31908 10.5 9.278 10.5H7.58335C7.26119 10.5 7.00002 10.7612 7.00002 11.0833V20.4167C7.00002 20.7388 7.26119 21 7.58335 21H20.4167C20.7389 21 21 20.7388 21 20.4167V11.0833C21 10.7612 20.7389 10.5 20.4167 10.5H18.7212C18.6801 10.5 18.642 10.4784 18.621 10.4431L17.434 8.45138C17.3288 8.27483 17.1384 8.16668 16.9329 8.16668H11.0681Z" fill="currentColor"/>
</svg>
