<svg width="28" height="28" viewBox="0 0 28 28" fill="none" xmlns="http://www.w3.org/2000/svg">
<path d="M14.6061 22.1678C14.2839 22.1678 14.0228 21.9066 14.0228 21.5844L14.0228 6.41778C14.0228 6.09561 14.2839 5.83444 14.6061 5.83444L16.3561 5.83444C16.6783 5.83444 16.9394 6.09561 16.9394 6.41778L16.9394 21.5844C16.9394 21.9066 16.6783 22.1678 16.3561 22.1678H14.6061Z" fill="currentColor"/>
<path d="M21.0228 22.1678C20.7006 22.1678 20.4394 21.9066 20.4394 21.5844L20.4394 6.41778C20.4394 6.09561 20.7006 5.83444 21.0228 5.83444L22.7728 5.83444C23.0949 5.83444 23.3561 6.09561 23.3561 6.41778V21.5844C23.3561 21.9066 23.0949 22.1678 22.7728 22.1678H21.0228Z" fill="currentColor"/>
<path d="M4.79599 20.9481C4.71261 21.2593 4.89728 21.5791 5.20847 21.6625L6.89884 22.1154C7.21003 22.1988 7.52989 22.0141 7.61328 21.703L11.5387 7.05308C11.6221 6.74189 11.4374 6.42203 11.1262 6.33865L9.43585 5.88572C9.12466 5.80233 8.8048 5.98701 8.72141 6.29819L4.79599 20.9481Z" fill="currentColor"/>
</svg>
