<svg width="28" height="28" viewBox="0 0 28 28" fill="none" xmlns="http://www.w3.org/2000/svg">
<path d="M15.1667 13.125C15.1667 12.8028 15.4278 12.5416 15.75 12.5416H18.0833C18.4055 12.5416 18.6667 12.8028 18.6667 13.125V14.2916C18.6667 14.6138 18.4055 14.875 18.0833 14.875H15.75C15.4278 14.875 15.1667 14.6138 15.1667 14.2916V13.125Z" fill="currentColor"/>
<path d="M9.91666 12.5416C9.59449 12.5416 9.33332 12.8028 9.33332 13.125V14.2916C9.33332 14.6138 9.59449 14.875 9.91666 14.875H12.25C12.5722 14.875 12.8333 14.6138 12.8333 14.2916V13.125C12.8333 12.8028 12.5722 12.5416 12.25 12.5416H9.91666Z" fill="currentColor"/>
<path fill-rule="evenodd" clip-rule="evenodd" d="M4.66666 6.41665C4.66666 6.09448 4.92782 5.83331 5.24999 5.83331H22.75C23.0722 5.83331 23.3333 6.09448 23.3333 6.41665V21C23.3333 21.3221 23.0722 21.5833 22.75 21.5833H16.5091C16.4721 21.5833 16.4373 21.6009 16.4153 21.6306L14.4693 24.2644C14.2362 24.5799 13.7642 24.58 13.531 24.2644L11.5849 21.6306C11.5629 21.6009 11.5281 21.5833 11.491 21.5833H5.24999C4.92782 21.5833 4.66666 21.3221 4.66666 21V6.41665ZM7.58332 8.16665C7.26116 8.16665 6.99999 8.42781 6.99999 8.74998V18.6666C6.99999 18.9888 7.26116 19.25 7.58332 19.25H20.4167C20.7388 19.25 21 18.9888 21 18.6666V8.74998C21 8.42781 20.7388 8.16665 20.4167 8.16665H7.58332Z" fill="currentColor"/>
</svg>
