<svg width="28" height="28" viewBox="0 0 28 28" fill="none" xmlns="http://www.w3.org/2000/svg">
<path fill-rule="evenodd" clip-rule="evenodd" d="M24.514 20.5279L23.459 21.7853C23.4176 21.8346 23.344 21.8411 23.2946 21.7997L22.9803 21.5361C22.9803 21.5361 22.9804 21.5361 22.9803 21.5361L7.20411 8.30675C7.20406 8.3068 7.20417 8.3067 7.20411 8.30675L4.70411 6.21063C4.70409 6.21071 4.70414 6.21056 4.70411 6.21063L4.70008 6.20724C4.65084 6.16579 4.64446 6.0923 4.68584 6.04299L5.74096 4.78553C5.94805 4.53873 6.31604 4.50648 6.5629 4.71348L7.86581 5.80606C7.88682 5.82368 7.91336 5.83333 7.94078 5.83333H22.75C23.0722 5.83333 23.3333 6.0945 23.3333 6.41667V18.7221C23.3333 18.7566 23.3486 18.7894 23.3751 18.8115L24.442 19.7062C24.6888 19.9132 24.7211 20.2811 24.514 20.5279ZM20.8084 16.6592C20.8843 16.7229 21 16.6689 21 16.5698V8.75C21 8.42783 20.7389 8.16667 20.4167 8.16667H11.0016C10.8926 8.16667 10.8431 8.30273 10.9266 8.37273L20.8084 16.6592Z" fill="currentColor"/>
<path d="M16.5799 19.25C16.6074 19.25 16.6339 19.2597 16.6549 19.2773L19.1592 21.3773C19.2427 21.4473 19.1932 21.5833 19.0842 21.5833H16.5337C16.4967 21.5833 16.4619 21.6009 16.4399 21.6307L14.4693 24.2977C14.2362 24.6133 13.7642 24.6133 13.531 24.2977L11.5603 21.6307C11.5383 21.6009 11.5035 21.5833 11.4664 21.5833H5.25002C4.92785 21.5833 4.66668 21.3222 4.66668 21V9.47448C4.66668 9.3754 4.78239 9.32142 4.85832 9.38509L6.95832 11.1461C6.98475 11.1682 7.00002 11.201 7.00002 11.2355V18.6667C7.00002 18.9888 7.26119 19.25 7.58335 19.25H16.5799Z" fill="currentColor"/>
</svg>
