<svg width="28" height="28" viewBox="0 0 28 28" fill="none" xmlns="http://www.w3.org/2000/svg">
<path d="M13.9169 15.2959C13.9625 15.3414 14.0363 15.3414 14.0819 15.2959L19.6097 9.76805C19.8375 9.54025 20.2068 9.54025 20.4346 9.76805L21.8371 11.1705C22.0649 11.3983 22.0649 11.7676 21.8371 11.9954L15.8399 17.9926C15.832 18.0016 15.8237 18.0104 15.8151 18.019L14.4127 19.4214C14.1848 19.6492 13.8155 19.6492 13.5877 19.4214L6.16307 11.9968C5.93527 11.769 5.93527 11.3997 6.16307 11.1718L7.5655 9.76942C7.79331 9.54161 8.16265 9.54161 8.39046 9.76942L13.9169 15.2959Z" fill="currentColor"/>
</svg>
