<svg width="28" height="28" viewBox="0 0 28 28" fill="none" xmlns="http://www.w3.org/2000/svg">
<path d="M15.7036 14.0832C15.7492 14.0376 15.7492 13.9637 15.7036 13.9182L10.1758 8.39037C9.94799 8.16256 9.94799 7.79321 10.1758 7.56541L11.5782 6.16298C11.806 5.93518 12.1754 5.93518 12.4032 6.16298L18.4003 12.1601C18.4093 12.1681 18.4181 12.1764 18.4267 12.185L19.8292 13.5874C20.057 13.8152 20.057 14.1845 19.8292 14.4124L12.4045 21.837C12.1767 22.0648 11.8074 22.0648 11.5796 21.837L10.1772 20.4345C9.94936 20.2067 9.94936 19.8374 10.1772 19.6096L15.7036 14.0832Z" fill="currentColor"/>
</svg>
