<svg width="28" height="28" viewBox="0 0 28 28" fill="none" xmlns="http://www.w3.org/2000/svg">
<path fill-rule="evenodd" clip-rule="evenodd" d="M5.25 6.125C4.92783 6.125 4.66667 6.38617 4.66667 6.70833V13.0083C4.66667 13.0728 4.7194 13.1249 4.78383 13.1258C9.52383 13.188 13.3537 17.0178 13.4159 21.7578C13.4167 21.8223 13.4689 21.875 13.5333 21.875H22.75C23.0722 21.875 23.3333 21.6138 23.3333 21.2917V6.70833C23.3333 6.38617 23.0722 6.125 22.75 6.125H5.25ZM14.8854 19.4507C14.898 19.5038 14.9452 19.5417 14.9997 19.5417H20.4167C20.7388 19.5417 21 19.2805 21 18.9583V9.04167C21 8.7195 20.7388 8.45833 20.4167 8.45833H7.58333C7.26117 8.45833 7 8.7195 7 9.04167V11.542C7 11.5965 7.0379 11.6437 7.09093 11.6562C10.9431 12.5666 13.9751 15.5986 14.8854 19.4507Z" fill="currentColor"/>
<path d="M11.55 21.875C11.6144 21.875 11.6668 21.8223 11.6657 21.7579C11.6038 17.9851 8.55653 14.9379 4.78379 14.876C4.71936 14.8749 4.66667 14.9272 4.66667 14.9917V16.5083C4.66667 16.5728 4.71929 16.6249 4.78371 16.6263C7.59032 16.6877 9.854 18.9513 9.91539 21.758C9.9168 21.8224 9.9689 21.875 10.0333 21.875H11.55Z" fill="currentColor"/>
<path d="M4.66667 18.4917C4.66667 18.4272 4.71916 18.3748 4.78355 18.3769C6.62404 18.4373 8.1044 19.9176 8.16475 21.7581C8.16686 21.8225 8.11443 21.875 8.05 21.875H5.25C4.92783 21.875 4.66667 21.6138 4.66667 21.2917V18.4917Z" fill="currentColor"/>
</svg>
