<svg width="28" height="28" viewBox="0 0 28 28" fill="none" xmlns="http://www.w3.org/2000/svg">
<path d="M17.626 2.88226C17.3148 2.96564 17.1301 3.2855 17.2135 3.59669L17.6665 5.28706C17.7498 5.59825 18.0697 5.78292 18.3809 5.69954L20.0713 5.24661C20.3825 5.16322 20.5671 4.84336 20.4837 4.53217L20.0308 2.8418C19.9474 2.53061 19.6276 2.34594 19.3164 2.42932L17.626 2.88226Z" fill="currentColor"/>
<path d="M11.8046 5.04602C11.7212 4.73483 11.9059 4.41497 12.217 4.33158L13.9074 3.87865C14.2186 3.79527 14.5385 3.97994 14.6218 4.29113L15.0748 5.9815C15.1582 6.29269 14.9735 6.61255 14.6623 6.69593L12.9719 7.14887C12.6607 7.23225 12.3409 7.04758 12.2575 6.73639L11.8046 5.04602Z" fill="currentColor"/>
<path d="M6.80808 5.78091C6.49689 5.86429 6.31221 6.18416 6.3956 6.49535L6.84853 8.18572C6.93191 8.49691 7.25178 8.68158 7.56296 8.5982L9.25333 8.14526C9.56452 8.06188 9.7492 7.74202 9.66581 7.43083L9.21288 5.74046C9.1295 5.42927 8.80963 5.2446 8.49845 5.32798L6.80808 5.78091Z" fill="currentColor"/>
<path d="M6.41666 10.5C6.73882 10.5 6.99999 10.7612 6.99999 11.0833V20.4167C6.99999 20.7388 7.26116 21 7.58332 21H20.4167C20.7388 21 21 20.7388 21 20.4167V11.0833C21 10.7612 21.2612 10.5 21.5833 10.5H22.75C23.0722 10.5 23.3333 10.7612 23.3333 11.0833V22.75C23.3333 23.0722 23.0722 23.3333 22.75 23.3333H5.24999C4.92782 23.3333 4.66666 23.0722 4.66666 22.75V11.0833C4.66666 10.7612 4.92782 10.5 5.24999 10.5H6.41666Z" fill="currentColor"/>
<path d="M10.3245 10.5C10.0024 10.5 9.7412 10.7612 9.7412 11.0833V12.8333C9.7412 13.1555 10.0024 13.4167 10.3245 13.4167H12.0745C12.3967 13.4167 12.6579 13.1555 12.6579 12.8333V11.0833C12.6579 10.7612 12.3967 10.5 12.0745 10.5H10.3245Z" fill="currentColor"/>
<path d="M15.341 11.0833C15.341 10.7612 15.6021 10.5 15.9243 10.5H17.6743C17.9965 10.5 18.2576 10.7612 18.2576 11.0833V12.8333C18.2576 13.1555 17.9965 13.4167 17.6743 13.4167H15.9243C15.6021 13.4167 15.341 13.1555 15.341 12.8333V11.0833Z" fill="currentColor"/>
</svg>
