<svg width="28" height="28" viewBox="0 0 28 28" fill="none" xmlns="http://www.w3.org/2000/svg">
<path d="M7 24.5003C7 24.1781 7.26117 23.9169 7.58333 23.9169H20.4167C20.7388 23.9169 21 24.1781 21 24.5003V25.6669C21 25.9891 20.7388 26.2503 20.4167 26.2503H7.58333C7.26117 26.2503 7 25.9891 7 25.6669V24.5003Z" fill="currentColor"/>
<path fill-rule="evenodd" clip-rule="evenodd" d="M4.08276 5.83362C3.7606 5.83362 3.49943 6.09479 3.49943 6.41695V21.5836C3.49943 21.9058 3.7606 22.167 4.08276 22.167H23.9161C24.2383 22.167 24.4994 21.9058 24.4994 21.5836V6.41695C24.4994 6.09479 24.2383 5.83362 23.9161 5.83362H4.08276ZM7.58326 18.6667C7.26109 18.6667 6.99993 18.4055 6.99993 18.0833V9.91667C6.99993 9.5945 7.26109 9.33333 7.58326 9.33333H12.2499C12.5721 9.33333 12.8333 9.5945 12.8333 9.91667V11.0833C12.8333 11.4055 12.5721 11.6667 12.2499 11.6667H9.44993C9.38549 11.6667 9.33326 11.7189 9.33326 11.7833V16.2167C9.33326 16.2811 9.38549 16.3333 9.44993 16.3333H12.2499C12.5721 16.3333 12.8333 16.5945 12.8333 16.9167V18.0833C12.8333 18.4055 12.5721 18.6667 12.2499 18.6667H7.58326ZM15.7499 18.6667C15.4278 18.6667 15.1666 18.4055 15.1666 18.0833V9.91667C15.1666 9.5945 15.4278 9.33333 15.7499 9.33333H20.4166C20.7388 9.33333 20.9999 9.5945 20.9999 9.91667V11.0833C20.9999 11.4055 20.7388 11.6667 20.4166 11.6667H17.6166C17.5522 11.6667 17.4999 11.7189 17.4999 11.7833V16.2167C17.4999 16.2811 17.5522 16.3333 17.6166 16.3333H20.4166C20.7388 16.3333 20.9999 16.5945 20.9999 16.9167V18.0833C20.9999 18.4055 20.7388 18.6667 20.4166 18.6667H15.7499Z" fill="currentColor"/>
</svg>
