<svg width="28" height="28" viewBox="0 0 28 28" fill="none" xmlns="http://www.w3.org/2000/svg">
<path fill-rule="evenodd" clip-rule="evenodd" d="M4.08284 5.83362C3.76067 5.83362 3.4995 6.09479 3.4995 6.41695V21.5836C3.4995 21.9058 3.76067 22.167 4.08284 22.167H23.9162C24.2383 22.167 24.4995 21.9058 24.4995 21.5836V6.41695C24.4995 6.09479 24.2383 5.83362 23.9162 5.83362H4.08284ZM7.58333 18.6667C7.26117 18.6667 7 18.4055 7 18.0833V9.91667C7 9.5945 7.26117 9.33333 7.58333 9.33333H12.25C12.5722 9.33333 12.8333 9.5945 12.8333 9.91667V11.0833C12.8333 11.4055 12.5722 11.6667 12.25 11.6667H9.45C9.38557 11.6667 9.33333 11.7189 9.33333 11.7833V16.2167C9.33333 16.2811 9.38557 16.3333 9.45 16.3333H12.25C12.5722 16.3333 12.8333 16.5945 12.8333 16.9167V18.0833C12.8333 18.4055 12.5722 18.6667 12.25 18.6667H7.58333ZM15.75 18.6667C15.4278 18.6667 15.1667 18.4055 15.1667 18.0833V9.91667C15.1667 9.5945 15.4278 9.33333 15.75 9.33333H20.4167C20.7388 9.33333 21 9.5945 21 9.91667V11.0833C21 11.4055 20.7388 11.6667 20.4167 11.6667H17.6167C17.5522 11.6667 17.5 11.7189 17.5 11.7833V16.2167C17.5 16.2811 17.5522 16.3333 17.6167 16.3333H20.4167C20.7388 16.3333 21 16.5945 21 16.9167V18.0833C21 18.4055 20.7388 18.6667 20.4167 18.6667H15.75Z" fill="currentColor"/>
</svg>
