<svg width="28" height="28" viewBox="0 0 28 28" fill="none" xmlns="http://www.w3.org/2000/svg">
<path d="M15.4583 13.125C15.4583 12.8029 15.7195 12.5417 16.0417 12.5417H17.7917C18.1138 12.5417 18.375 12.8029 18.375 13.125V14.875C18.375 15.1972 18.1138 15.4584 17.7917 15.4584H16.0417C15.7195 15.4584 15.4583 15.1972 15.4583 14.875V13.125Z" fill="currentColor"/>
<path d="M10.2083 12.5417C9.88617 12.5417 9.625 12.8029 9.625 13.125V14.875C9.625 15.1972 9.88617 15.4584 10.2083 15.4584H11.9583C12.2805 15.4584 12.5417 15.1972 12.5417 14.875V13.125C12.5417 12.8029 12.2805 12.5417 11.9583 12.5417H10.2083Z" fill="currentColor"/>
<path fill-rule="evenodd" clip-rule="evenodd" d="M12.3594 4.66669C7.46648 4.66669 3.5 8.63316 3.5 13.5261C3.5 18.419 7.46648 22.3854 12.3594 22.3854C14.4493 22.3854 16.3101 23.4556 18.057 24.6029C20.1491 25.977 20.5233 24.1381 20.8911 22.3307C21.0901 21.3524 21.2873 20.3833 21.7541 19.9381C23.4459 18.3246 24.5 16.0484 24.5 13.5261C24.5 8.63316 20.5335 4.66669 15.6406 4.66669H12.3594ZM15.6406 7.00002H12.3594C8.75514 7.00002 5.83333 9.92183 5.83333 13.5261C5.83333 17.1303 8.75514 20.0521 12.3594 20.0521C14.7673 20.0521 16.841 21.0897 18.4742 22.0996C18.5098 22.1217 18.5563 22.1015 18.5648 22.0604L18.6015 21.8806C18.6591 21.5974 18.7257 21.2697 18.7988 20.9613C18.8884 20.5834 19.0096 20.1361 19.1876 19.7028C19.3592 19.285 19.6448 18.7254 20.1438 18.2495C21.393 17.0581 22.1667 15.3844 22.1667 13.5261C22.1667 9.92183 19.2449 7.00002 15.6406 7.00002Z" fill="currentColor"/>
</svg>
