<svg width="28" height="28" viewBox="0 0 28 28" fill="none" xmlns="http://www.w3.org/2000/svg">
<path fill-rule="evenodd" clip-rule="evenodd" d="M4.66666 5.24999C4.66666 4.92782 4.92782 4.66666 5.24999 4.66666H22.75C23.0722 4.66666 23.3333 4.92782 23.3333 5.24999V18.0833C23.3333 18.4055 23.0722 18.6667 22.75 18.6667H5.24999C4.92782 18.6667 4.66666 18.4055 4.66666 18.0833V5.24999ZM7.35005 7.93302C7.35005 7.61086 7.61121 7.34969 7.93338 7.34969H20.0672C20.3893 7.34969 20.6505 7.61086 20.6505 7.93302V15.4001C20.6505 15.7223 20.3893 15.9835 20.0672 15.9835H7.93338C7.61121 15.9835 7.35005 15.7223 7.35005 15.4001V7.93302Z" fill="currentColor"/>
<path d="M5.24999 20.9999C4.92782 20.9999 4.66666 21.2611 4.66666 21.5833V22.7499C4.66666 23.0721 4.92782 23.3333 5.24999 23.3333H22.75C23.0722 23.3333 23.3333 23.0721 23.3333 22.7499V21.5833C23.3333 21.2611 23.0722 20.9999 22.75 20.9999H5.24999Z" fill="currentColor"/>
</svg>
