<svg width="28" height="28" viewBox="0 0 28 28" fill="none" xmlns="http://www.w3.org/2000/svg">
<path d="M3.5 4.08333C3.5 3.76117 3.76117 3.5 4.08333 3.5H16.25C16.5722 3.5 16.8333 3.76117 16.8333 4.08333V8.04993C16.8333 8.11436 16.7811 8.1666 16.7167 8.1666H14.6183C14.5539 8.1666 14.5017 8.11436 14.5017 8.04993V6.41667C14.5017 6.0945 14.2405 5.83333 13.9183 5.83333H6.41667C6.0945 5.83333 5.83333 6.0945 5.83333 6.41667V12.25C5.83333 12.5722 6.0945 12.8333 6.41667 12.8333H11.55C11.6144 12.8333 11.6667 12.8856 11.6667 12.95V15.05C11.6667 15.1144 11.6144 15.1667 11.55 15.1667H4.08333C3.76117 15.1667 3.5 14.9055 3.5 14.5833V4.08333Z" fill="currentColor"/>
<path d="M11.55 19.8333C11.6144 19.8333 11.6667 19.781 11.6667 19.7166V17.6166C11.6667 17.5522 11.6144 17.4999 11.55 17.4999H4.08333C3.76117 17.4999 3.5 17.7611 3.5 18.0833V19.2499C3.5 19.5721 3.76117 19.8333 4.08333 19.8333H11.55Z" fill="currentColor"/>
<path fill-rule="evenodd" clip-rule="evenodd" d="M14 11.0833C14 10.7611 14.2612 10.4999 14.5833 10.4999H23.9167C24.2388 10.4999 24.5 10.7611 24.5 11.0833V23.9166C24.5 24.2388 24.2388 24.4999 23.9167 24.4999H14.5833C14.2612 24.4999 14 24.2388 14 23.9166V11.0833ZM16.3333 13.4166C16.3333 13.0944 16.5945 12.8333 16.9167 12.8333H21.5833C21.9055 12.8333 22.1667 13.0944 22.1667 13.4166V21.5833C22.1667 21.9054 21.9055 22.1666 21.5833 22.1666H16.9167C16.5945 22.1666 16.3333 21.9054 16.3333 21.5833V13.4166Z" fill="currentColor"/>
</svg>
