<svg width="28" height="28" viewBox="0 0 28 28" fill="none" xmlns="http://www.w3.org/2000/svg">
<path d="M12.4447 12.0633C12.5182 12.1368 12.6438 12.0848 12.6438 11.9808V5.24962C12.6438 4.92746 12.905 4.66629 13.2272 4.66629H14.7438C15.066 4.66629 15.3272 4.92746 15.3272 5.24962V11.9802C15.3272 12.0841 15.4528 12.1362 15.5263 12.0627L17.4504 10.1386C17.6782 9.91079 18.0476 9.91079 18.2754 10.1386L19.3478 11.211C19.5756 11.4388 19.5756 11.8082 19.3478 12.036L14.3981 16.9857C14.1703 17.2135 13.8005 17.214 13.5727 16.9862L8.62295 12.0364C8.39515 11.8086 8.39515 11.4393 8.62295 11.2115L9.6954 10.139C9.9232 9.91122 10.2925 9.91122 10.5204 10.139L12.4447 12.0633Z" fill="currentColor"/>
<path d="M5.24999 17.7336C4.92782 17.7336 4.66666 17.9948 4.66666 18.3169V22.7497C4.66666 23.0719 4.92782 23.333 5.24999 23.333H22.75C23.0722 23.333 23.3333 23.0719 23.3333 22.7497V18.3169C23.3333 17.9948 23.0722 17.7336 22.75 17.7336H21.2333C20.9112 17.7336 20.65 17.9948 20.65 18.3169V20.0666C20.65 20.3888 20.3888 20.6499 20.0667 20.6499H7.93309C7.61093 20.6499 7.34976 20.3888 7.34976 20.0666V18.3169C7.34976 17.9948 7.08859 17.7336 6.76643 17.7336H5.24999Z" fill="currentColor"/>
</svg>
