<svg width="28" height="28" viewBox="0 0 28 28" fill="none" xmlns="http://www.w3.org/2000/svg">
<path d="M21 16.9162V8.28333C21 8.2189 20.9478 8.16666 20.8833 8.16666L9.91666 8.16666C9.59449 8.16666 9.33332 7.90549 9.33332 7.58333V6.41666C9.33332 6.0945 9.59449 5.83333 9.91666 5.83333H22.75C23.0722 5.83333 23.3333 6.0945 23.3333 6.41666V16.9162C23.3333 17.2383 23.0722 17.4995 22.75 17.4995H21.5833C21.2612 17.4995 21 17.2383 21 16.9162Z" fill="currentColor"/>
<path fill-rule="evenodd" clip-rule="evenodd" d="M5.24999 10.5C4.92782 10.5 4.66666 10.7612 4.66666 11.0833V21.5833C4.66666 21.9055 4.92782 22.1667 5.24999 22.1667H18.0838C18.4059 22.1667 18.6671 21.9055 18.6671 21.5833V11.0833C18.6671 10.7612 18.4059 10.5 18.0838 10.5H5.24999ZM7.58332 12.8333C7.26116 12.8333 6.99999 13.0945 6.99999 13.4167V19.25C6.99999 19.5722 7.26116 19.8333 7.58332 19.8333H15.75C16.0722 19.8333 16.3333 19.5722 16.3333 19.25V13.4167C16.3333 13.0945 16.0722 12.8333 15.75 12.8333H7.58332Z" fill="currentColor"/>
</svg>
