<svg width="28" height="28" viewBox="0 0 28 28" fill="none" xmlns="http://www.w3.org/2000/svg">
<path d="M9.70413 12.5414C9.60019 12.5414 9.54814 12.4158 9.62163 12.3423L12.914 9.04993C13.1418 8.82212 13.1418 8.45278 12.914 8.22497L11.6765 6.98754C11.4487 6.75973 11.0794 6.75973 10.8516 6.98754L4.25192 13.5872C4.02412 13.815 4.02412 14.1844 4.25192 14.4122L5.48936 15.6496C5.48911 15.6493 5.48961 15.6498 5.48936 15.6496L10.8518 21.012C11.0796 21.2398 11.449 21.2398 11.6768 21.012L12.9142 19.7746C13.142 19.5468 13.142 19.1774 12.9142 18.9496L9.62183 15.6573C9.54833 15.5838 9.60039 15.4581 9.70432 15.4581H16.3334C16.6555 15.4581 16.9167 15.1969 16.9167 14.8748V13.1248C16.9167 12.8026 16.6555 12.5414 16.3334 12.5414H9.70413Z" fill="currentColor"/>
<path d="M21 6.98521C20.6779 6.98521 20.4167 7.24638 20.4167 7.56855V20.4019C20.4167 20.724 20.6779 20.9852 21 20.9852H22.75C23.0722 20.9852 23.3334 20.724 23.3334 20.4019V7.56855C23.3334 7.24638 23.0722 6.98521 22.75 6.98521H21Z" fill="currentColor"/>
</svg>
