<svg width="28" height="28" viewBox="0 0 28 28" fill="none" xmlns="http://www.w3.org/2000/svg">
<path d="M20.355 19.3615C20.5828 19.5893 20.9522 19.5893 21.18 19.3615L22.2524 18.2891C22.4802 18.0612 22.4802 17.6919 22.2524 17.4641L20.3282 15.5398C20.2547 15.4663 20.3067 15.3407 20.4107 15.3407H25.2427C25.5649 15.3407 25.8261 15.0795 25.8261 14.7573V13.2407C25.8261 12.9185 25.5649 12.6573 25.2427 12.6573H20.4103C20.3064 12.6573 20.2543 12.5317 20.3278 12.4582L22.252 10.534C22.4798 10.3062 22.4798 9.93687 22.252 9.70906L21.1795 8.63661C20.9517 8.40881 20.5824 8.40881 20.3546 8.63661L15.4048 13.5864C15.177 13.8142 15.177 14.1835 15.4048 14.4113L20.355 19.3615Z" fill="currentColor"/>
<path d="M11.5221 12.5144L7.645 8.63732C7.4172 8.40952 7.04785 8.40952 6.82004 8.63732L5.7476 9.70977C5.51979 9.93757 5.51979 10.3069 5.7476 10.5347L7.67186 12.459C7.74536 12.5325 7.69331 12.6582 7.58937 12.6582L2.75728 12.6582C2.43512 12.6582 2.17395 12.9193 2.17395 13.2415V14.7582C2.17395 15.0803 2.43512 15.3415 2.75728 15.3415L7.58969 15.3415C7.69363 15.3415 7.74568 15.4672 7.67219 15.5406L5.74803 17.4648C5.52022 17.6926 5.52022 18.062 5.74803 18.2898L6.82048 19.3622C7.04828 19.59 7.41763 19.59 7.64543 19.3622L12.5952 14.4125C12.823 14.1847 12.823 13.8153 12.5952 13.5875L11.5221 12.5144Z" fill="currentColor"/>
</svg>
