<svg width="28" height="28" viewBox="0 0 28 28" fill="none" xmlns="http://www.w3.org/2000/svg">
<path d="M26.7548 13.586L21.8051 8.63622C21.5773 8.40841 21.2079 8.40841 20.9801 8.63622L19.9077 9.70866C19.6799 9.93647 19.6799 10.3058 19.9077 10.5336L21.8319 12.4579C21.9054 12.5314 21.8534 12.657 21.7494 12.657L16.9174 12.657C16.5952 12.657 16.334 12.9182 16.334 13.2404V14.757C16.334 15.0792 16.5952 15.3404 16.9174 15.3404L21.7498 15.3404C21.8537 15.3404 21.9058 15.466 21.8323 15.5395L19.9081 17.4637C19.6803 17.6915 19.6803 18.0609 19.9081 18.2887L20.9806 19.3611C21.2084 19.5889 21.5777 19.5889 21.8055 19.3611L26.7553 14.4114C26.9831 14.1835 26.9826 13.8138 26.7548 13.586Z" fill="currentColor"/>
<path d="M2.31721 15.4849C2.31706 15.4848 2.31736 15.4851 2.31721 15.4849L1.2452 14.4129C1.01739 14.1851 1.01696 13.8153 1.24477 13.5875L6.19451 8.63779C6.42232 8.40998 6.79167 8.40998 7.01947 8.63779L8.09192 9.71023C8.31972 9.93804 8.31972 10.3074 8.09192 10.5352L6.16776 12.4593C6.09427 12.5328 6.14632 12.6585 6.25026 12.6585H11.0827C11.4048 12.6585 11.666 12.9197 11.666 13.2418V14.7585C11.666 15.0807 11.4048 15.3418 11.0827 15.3418H6.25058C6.14664 15.3418 6.09459 15.4675 6.16808 15.541L8.09235 17.4653C8.32015 17.6931 8.32015 18.0624 8.09235 18.2902L7.0199 19.3627C6.7921 19.5905 6.42275 19.5905 6.19494 19.3627L2.31721 15.4849Z" fill="currentColor"/>
</svg>
