<svg width="28" height="28" viewBox="0 0 28 28" fill="none" xmlns="http://www.w3.org/2000/svg">
<path d="M15.086 9.04993L18.3786 12.3425C18.4521 12.416 18.4001 12.5417 18.2961 12.5417H11.6667C11.3445 12.5417 11.0833 12.8029 11.0833 13.125L11.0833 14.875C11.0833 15.1972 11.3445 15.4584 11.6667 15.4584L18.2954 15.4584C18.3994 15.4584 18.4514 15.584 18.3779 15.6575L15.0858 18.9496C14.858 19.1774 14.858 19.5468 15.0858 19.7746L16.3233 21.012C16.5511 21.2398 16.9204 21.2398 17.1482 21.012L23.7479 14.4124C23.9757 14.1846 23.9759 13.815 23.7481 13.5872L17.1484 6.98754C16.9206 6.75973 16.5513 6.75973 16.3235 6.98754L15.086 8.22497C14.8582 8.45278 14.8582 8.82212 15.086 9.04993Z" fill="currentColor"/>
<path d="M7 6.98521C7.32216 6.98521 7.58333 7.24638 7.58333 7.56855V20.4019C7.58333 20.724 7.32216 20.9852 7 20.9852H5.25C4.92783 20.9852 4.66666 20.724 4.66666 20.4019V7.56855C4.66666 7.24638 4.92783 6.98521 5.25 6.98521H7Z" fill="currentColor"/>
</svg>
