<svg width="28" height="28" viewBox="0 0 28 28" fill="none" xmlns="http://www.w3.org/2000/svg">
<path d="M14 17.5C15.933 17.5 17.5 15.933 17.5 14C17.5 12.067 15.933 10.5 14 10.5C12.067 10.5 10.5 12.067 10.5 14C10.5 15.933 12.067 17.5 14 17.5Z" fill="currentColor"/>
<path fill-rule="evenodd" clip-rule="evenodd" d="M24.5 14.005C24.5 16.3371 20.5625 22.1667 14 22.1667C7.4375 22.1667 3.5 16.3416 3.5 14.005C3.5 11.6685 7.44141 5.83334 14 5.83334C20.5586 5.83334 24.5 11.673 24.5 14.005ZM22.1653 13.9942C22.1662 14.0015 22.1662 14.0087 22.1653 14.0159C22.1615 14.0499 22.147 14.1512 22.0924 14.3244C22.0229 14.545 21.9058 14.8279 21.7286 15.1564C21.3731 15.8155 20.8223 16.5723 20.0871 17.2848C18.6192 18.7073 16.5505 19.8333 14 19.8333C11.4489 19.8333 9.38019 18.708 7.91261 17.2862C7.17758 16.5741 6.62692 15.8176 6.27152 15.1585C6.09436 14.83 5.97724 14.5471 5.90775 14.3262C5.84449 14.1252 5.83499 14.0212 5.83358 14.0058L5.83358 14.0043C5.83502 13.9887 5.84458 13.8847 5.90789 13.6835C5.97752 13.4622 6.09485 13.1788 6.27227 12.8496C6.62819 12.1893 7.1795 11.4313 7.91505 10.7179C9.38395 9.2932 11.4525 8.16668 14 8.16668C16.5469 8.16668 18.6154 9.29384 20.0847 10.7193C20.8204 11.4331 21.3718 12.1914 21.7278 12.8517C21.9053 13.1809 22.0227 13.4643 22.0923 13.6853C22.1469 13.8588 22.1615 13.9601 22.1653 13.9942Z" fill="currentColor"/>
</svg>
