<svg width="28" height="28" viewBox="0 0 28 28" fill="none" xmlns="http://www.w3.org/2000/svg">
<path fill-rule="evenodd" clip-rule="evenodd" d="M7.34996 16.45C7.34996 16.3856 7.40219 16.3333 7.46663 16.3333H15.05C15.1144 16.3333 15.1666 16.3856 15.1666 16.45V18.0833C15.1666 18.4055 15.4278 18.6667 15.75 18.6667H22.75C23.0721 18.6667 23.3333 18.4055 23.3333 18.0833V7.58332C23.3333 7.26116 23.0721 6.99999 22.75 6.99999H15.2833C15.2189 6.99999 15.1666 6.94776 15.1666 6.88332V5.24999C15.1666 4.92782 14.9055 4.66666 14.5833 4.66666H5.24997C4.92781 4.66666 4.66663 4.92782 4.66663 5.24999V22.75C4.66663 23.0722 4.92779 23.3333 5.24996 23.3333H6.76663C7.08879 23.3333 7.34996 23.0722 7.34996 22.75V16.45ZM7.46663 14C7.40219 14 7.34996 13.9478 7.34996 13.8833V7.11666C7.34996 7.05222 7.40219 6.99999 7.46663 6.99999H12.7166C12.7811 6.99999 12.8333 7.05222 12.8333 7.11666V9.21666C12.8333 9.28109 12.8855 9.33332 12.95 9.33332H20.8833C20.9477 9.33332 21 9.38556 21 9.44999V16.2167C21 16.2811 20.9477 16.3333 20.8833 16.3333H17.6166C17.5522 16.3333 17.5 16.2811 17.5 16.2167V14.1167C17.5 14.0522 17.4477 14 17.3833 14H7.46663Z" fill="currentColor"/>
</svg>
