<svg width="28" height="28" viewBox="0 0 28 28" fill="none" xmlns="http://www.w3.org/2000/svg">
<path d="M16.9166 11.6667C16.5945 11.6667 16.3333 11.4055 16.3333 11.0833L16.3333 6.41667C16.3333 6.0945 16.5945 5.83334 16.9166 5.83334H18.6666C18.9888 5.83334 19.25 6.0945 19.25 6.41667V8.63334C19.25 8.69777 19.3022 8.75 19.3666 8.75L21.5833 8.75C21.9055 8.75 22.1666 9.01117 22.1666 9.33334V11.0833C22.1666 11.4055 21.9055 11.6667 21.5833 11.6667L16.9166 11.6667Z" fill="currentColor"/>
<path d="M11.6666 16.9167C11.6666 16.5945 11.4055 16.3333 11.0833 16.3333H6.41665C6.09448 16.3333 5.83331 16.5945 5.83331 16.9167V18.6667C5.83331 18.9888 6.09448 19.25 6.41665 19.25H8.63331C8.69775 19.25 8.74998 19.3022 8.74998 19.3667L8.74998 21.5833C8.74998 21.9055 9.01115 22.1667 9.33331 22.1667H11.0833C11.4055 22.1667 11.6666 21.9055 11.6666 21.5833L11.6666 16.9167Z" fill="currentColor"/>
<path d="M16.3333 21.5833C16.3333 21.9055 16.5945 22.1667 16.9166 22.1667H18.6666C18.9888 22.1667 19.25 21.9055 19.25 21.5833V19.3667C19.25 19.3022 19.3022 19.25 19.3666 19.25H21.5833C21.9055 19.25 22.1666 18.9888 22.1666 18.6667L22.1666 16.9167C22.1666 16.5945 21.9055 16.3333 21.5833 16.3333L16.9166 16.3333C16.5945 16.3333 16.3333 16.5945 16.3333 16.9167L16.3333 21.5833Z" fill="currentColor"/>
<path d="M9.33331 11.6667H11.0833C11.4055 11.6667 11.6666 11.4055 11.6666 11.0833L11.6666 9.33334V6.41667C11.6666 6.0945 11.4055 5.83334 11.0833 5.83334H9.33331C9.01115 5.83334 8.74998 6.0945 8.74998 6.41667L8.74998 8.63334C8.74998 8.69777 8.69775 8.75 8.63331 8.75L6.41665 8.75C6.09448 8.75 5.83331 9.01117 5.83331 9.33334V11.0833C5.83331 11.4055 6.09448 11.6667 6.41665 11.6667L9.33331 11.6667Z" fill="currentColor"/>
</svg>
