<svg width="28" height="28" viewBox="0 0 28 28" fill="none" xmlns="http://www.w3.org/2000/svg">
<path d="M17.4239 5.65098V8.37214C17.4239 8.47608 17.5495 8.52814 17.623 8.45464L21.0401 5.03761C21.2679 4.80981 21.6372 4.80981 21.865 5.03761L22.9375 6.11006C23.1653 6.33787 23.1653 6.70721 22.9375 6.93502L19.5207 10.3518C19.4472 10.4253 19.4992 10.551 19.6032 10.551H22.3245C22.6467 10.551 22.9078 10.8121 22.9078 11.1343V12.651C22.9078 12.9731 22.6467 13.2343 22.3245 13.2343H16.8409C16.8408 13.2343 16.8411 13.2343 16.8409 13.2343H15.3245C15.0023 13.2343 14.7405 12.9731 14.7405 12.651V5.65098C14.7405 5.32881 15.0017 5.06765 15.3239 5.06765H16.8405C17.1627 5.06765 17.4239 5.32881 17.4239 5.65098Z" fill="currentColor"/>
<path d="M8.51422 17.4489C8.61816 17.4489 8.67022 17.5746 8.59672 17.6481L5.17992 21.0649C4.95212 21.2927 4.95212 21.662 5.17992 21.8898L6.25237 22.9623C6.48017 23.1901 6.84952 23.1901 7.07733 22.9623L10.4944 19.5452C10.5678 19.4717 10.6935 19.5238 10.6935 19.6277V22.3489C10.6935 22.6711 10.9547 22.9322 11.2768 22.9322H12.7935C13.1157 22.9322 13.3768 22.6711 13.3768 22.3489L13.3768 15.3489C13.3768 15.0267 13.1157 14.7656 12.7935 14.7656H5.79291C5.47074 14.7656 5.20957 15.0267 5.20957 15.3489V16.8656C5.20957 17.1877 5.47074 17.4489 5.79291 17.4489H8.51422Z" fill="currentColor"/>
</svg>
