<svg width="28" height="28" viewBox="0 0 28 28" fill="none" xmlns="http://www.w3.org/2000/svg">
<path d="M22.1636 6.35703C22.1338 6.06288 21.8853 5.83334 21.5833 5.83334H16.9166C16.5945 5.83334 16.3333 6.0945 16.3333 6.41667V8.16667C16.3333 8.48884 16.5945 8.75 16.9166 8.75L19.1333 8.75C19.1977 8.75 19.25 8.80224 19.25 8.86667V11.0833C19.25 11.4055 19.5111 11.6667 19.8333 11.6667H21.5833C21.9055 11.6667 22.1666 11.4055 22.1666 11.0833V6.41667C22.1666 6.39653 22.1656 6.37664 22.1636 6.35703Z" fill="currentColor"/>
<path d="M19.25 19.1333C19.25 19.1978 19.1977 19.25 19.1333 19.25L16.9166 19.25C16.5945 19.25 16.3333 19.5112 16.3333 19.8333V21.5833C16.3333 21.9055 16.5945 22.1667 16.9166 22.1667H21.5833C21.9055 22.1667 22.1666 21.9055 22.1666 21.5833V16.9167C22.1666 16.5945 21.9055 16.3333 21.5833 16.3333H19.8333C19.5111 16.3333 19.25 16.5945 19.25 16.9167V19.1333Z" fill="currentColor"/>
<path d="M11.0833 19.25H8.86665C8.80221 19.25 8.74998 19.1978 8.74998 19.1333V16.9167C8.74998 16.5945 8.48881 16.3333 8.16665 16.3333H6.41665C6.09448 16.3333 5.83331 16.5945 5.83331 16.9167V21.5833C5.83331 21.9055 6.09448 22.1667 6.41665 22.1667H11.0833C11.4055 22.1667 11.6666 21.9055 11.6666 21.5833V19.8333C11.6666 19.5112 11.4055 19.25 11.0833 19.25Z" fill="currentColor"/>
<path d="M8.74998 11.0833V8.86667C8.74998 8.80224 8.80221 8.75 8.86665 8.75L11.0833 8.75C11.4055 8.75 11.6666 8.48884 11.6666 8.16667V6.41667C11.6666 6.0945 11.4055 5.83334 11.0833 5.83334H6.41665C6.09448 5.83334 5.83331 6.0945 5.83331 6.41667V11.0833C5.83331 11.4055 6.09448 11.6667 6.41665 11.6667H8.16665C8.48881 11.6667 8.74998 11.4055 8.74998 11.0833Z" fill="currentColor"/>
</svg>
