<svg width="28" height="28" viewBox="0 0 28 28" fill="none" xmlns="http://www.w3.org/2000/svg">
<path d="M15.1534 10.9249L18.5702 7.50814C18.6437 7.43465 18.5916 7.30898 18.4877 7.30898H15.7665C15.4443 7.30898 15.1831 7.04781 15.1831 6.72565V5.20898C15.1831 4.88682 15.4443 4.62565 15.7665 4.62565H22.7665C23.0886 4.62565 23.3504 4.88682 23.3504 5.20898L23.3504 12.209C23.3504 12.5311 23.0892 12.7923 22.7671 12.7923H21.2504C20.9282 12.7923 20.6671 12.5311 20.6671 12.209V9.48773C20.6671 9.38379 20.5414 9.33174 20.4679 9.40523L17.0508 12.8223C16.823 13.0501 16.4537 13.0501 16.2259 12.8223L15.1534 11.7499C14.9256 11.522 14.9256 11.1527 15.1534 10.9249Z" fill="currentColor"/>
<path d="M5.35085 23.3743H12.3508C12.673 23.3743 12.9342 23.1132 12.9342 22.791V21.2743C12.9342 20.9522 12.673 20.691 12.3508 20.691H9.62962C9.52568 20.691 9.47363 20.5653 9.54712 20.4919L12.9639 17.0751C13.1917 16.8473 13.1917 16.4779 12.9639 16.2501L11.8914 15.1777C11.6636 14.9499 11.2943 14.9499 11.0665 15.1777L7.6494 18.5948C7.57591 18.6683 7.45024 18.6162 7.45024 18.5123L7.45024 15.791C7.45024 15.4688 7.18907 15.2077 6.86691 15.2077H5.35024C5.02808 15.2077 4.76691 15.4688 4.76691 15.791V22.791C4.76691 23.1132 5.02868 23.3743 5.35085 23.3743Z" fill="currentColor"/>
</svg>
