<svg width="28" height="28" viewBox="0 0 28 28" fill="none" xmlns="http://www.w3.org/2000/svg">
<path fill-rule="evenodd" clip-rule="evenodd" d="M22.186 15.1403L22.7824 14.5568C25.0452 12.294 25.0452 8.62663 22.7824 6.3638C20.5212 4.1026 16.8522 4.1026 14.591 6.3638L14.0834 6.87137C14.0379 6.91689 13.9641 6.91694 13.9185 6.87148L13.4094 6.3638C11.1466 4.10098 7.47923 4.10098 5.21641 6.3638C2.95521 8.62501 2.95521 12.294 5.21641 14.5552L13.912 23.2508C13.9576 23.2964 14.0315 23.2964 14.077 23.2508L18.0337 19.2926C18.0531 19.2748 18.0709 19.257 18.0903 19.2376L22.186 15.1403ZM11.512 8.26121L13.9211 10.6637C13.9667 10.7092 14.0405 10.7091 14.086 10.6636L16.4884 8.26121C17.7017 7.04791 19.6717 7.04791 20.885 8.26121C22.0969 9.47318 22.0999 11.435 20.8938 12.6506L20.2988 13.2327L16.1969 17.3362L16.1773 17.3542L14.0767 19.4556C14.0311 19.5012 13.9572 19.5012 13.9117 19.4557L7.11382 12.6578C5.90052 11.4445 5.90052 9.47451 7.11382 8.26121C8.32873 7.04629 10.2971 7.04629 11.512 8.26121Z" fill="currentColor"/>
</svg>
