<svg width="28" height="28" viewBox="0 0 28 28" fill="none" xmlns="http://www.w3.org/2000/svg">
<path d="M15.3422 9.33402C15.3422 10.075 14.7415 10.6757 14.0005 10.6757C13.2596 10.6757 12.6589 10.075 12.6589 9.33402C12.6589 8.59303 13.2596 7.99235 14.0005 7.99235C14.7415 7.99235 15.3422 8.59303 15.3422 9.33402Z" fill="currentColor"/>
<path d="M12.8343 12.4255C12.8343 12.1033 13.0955 11.8421 13.4177 11.8421H14.5843C14.9065 11.8421 15.1677 12.1033 15.1677 12.4255V19.4255C15.1677 19.7476 14.9065 20.0088 14.5843 20.0088H13.4177C13.0955 20.0088 12.8343 19.7476 12.8343 19.4255V12.4255Z" fill="currentColor"/>
<path fill-rule="evenodd" clip-rule="evenodd" d="M24.5 14C24.5 19.799 19.799 24.5 14 24.5C8.20101 24.5 3.5 19.799 3.5 14C3.5 8.20101 8.20101 3.5 14 3.5C19.799 3.5 24.5 8.20101 24.5 14ZM21.8167 14C21.8167 18.317 18.317 21.8167 14 21.8167C9.68297 21.8167 6.18333 18.317 6.18333 14C6.18333 9.68297 9.68297 6.18333 14 6.18333C18.317 6.18333 21.8167 9.68297 21.8167 14Z" fill="currentColor"/>
</svg>
