<svg width="28" height="28" viewBox="0 0 28 28" fill="none" xmlns="http://www.w3.org/2000/svg">
<path d="M3.5 6.46498C3.5 6.40055 3.55223 6.34831 3.61667 6.34831H8.90677C8.9712 6.34831 9.02344 6.29608 9.02344 6.23165V4.78334C9.02344 4.71891 9.07567 4.66667 9.1401 4.66667H11.1353C11.1997 4.66667 11.252 4.71891 11.252 4.78334V6.23165C11.252 6.29608 11.3042 6.34831 11.3686 6.34831H16.6542C16.7186 6.34831 16.7708 6.40055 16.7708 6.46498V8.4556C16.7708 8.52004 16.7186 8.57227 16.6542 8.57227H14.6218C14.5716 8.57227 14.5268 8.60505 14.5108 8.65261C13.5141 11.6061 12.3501 13.2959 11.8262 14.0501C11.7957 14.0989 13.2417 15.3675 13.5602 15.6461C13.5976 15.6789 13.6093 15.7308 13.5906 15.7769L12.8213 17.6817C12.7942 17.7487 12.7133 17.7753 12.6523 17.7365C11.8602 17.2333 11.2489 16.6886 10.4758 15.8886C10.4294 15.8406 10.3514 15.8418 10.3055 15.8903C8.4851 17.8131 7.53197 18.4749 5.95817 19.4066C5.90406 19.4386 5.8339 19.4221 5.80012 19.3691L4.75734 17.7316C4.72247 17.6769 4.73929 17.604 4.79423 17.5694C6.44652 16.5291 7.59939 15.4872 8.86391 14.1629C8.90332 14.1217 8.90678 14.0574 8.8725 14.0117C7.79629 12.5794 7.17823 11.5881 6.39887 9.94563C6.3729 9.89089 6.39314 9.82497 6.44556 9.79459L8.16138 8.80015C8.22058 8.76584 8.29647 8.78968 8.32582 8.85149C8.93215 10.1286 9.55342 11.1705 10.2437 12.1328C10.2919 12.2 10.3928 12.1961 10.4361 12.1256C11.1307 10.9947 11.586 10.067 12.1145 8.73144C12.1447 8.65506 12.0884 8.57227 12.0062 8.57227H3.5V6.46498Z" fill="currentColor"/>
<path fill-rule="evenodd" clip-rule="evenodd" d="M14.7277 23.3332C14.9784 23.3332 15.201 23.1731 15.2807 22.9354L16.1731 20.2745C16.1891 20.227 16.2336 20.1949 16.2838 20.1949H20.9008C20.9509 20.1949 20.9955 20.2269 21.0114 20.2744L21.9056 22.9357C21.9854 23.1732 22.208 23.3332 22.4585 23.3332H23.6759C24.0783 23.3332 24.3599 22.9354 24.2261 22.556L20.1505 10.9953C20.0683 10.762 19.8478 10.606 19.6004 10.606H17.5801C17.3326 10.606 17.112 10.7621 17.0298 10.9956L12.9599 22.5562C12.8263 22.9356 13.1079 23.3332 13.5101 23.3332H14.7277ZM20.2002 18.343C20.2799 18.343 20.3362 18.2648 20.3108 18.1892L18.6557 13.2632C18.6462 13.235 18.6198 13.216 18.5901 13.216C18.5604 13.216 18.534 13.235 18.5246 13.2632L16.8725 18.1892C16.8471 18.2648 16.9034 18.343 16.9831 18.343H20.2002Z" fill="currentColor"/>
</svg>
