<svg width="28" height="28" viewBox="0 0 28 28" fill="none" xmlns="http://www.w3.org/2000/svg">
<path d="M13.4155 6.41667C13.0934 6.41667 12.8322 6.1555 12.8322 5.83333V4.08333C12.8322 3.76117 13.0934 3.5 13.4155 3.5H14.5822C14.9044 3.5 15.1655 3.76117 15.1655 4.08333V5.83333C15.1655 6.1555 14.9044 6.41667 14.5822 6.41667H13.4155Z" fill="currentColor"/>
<path d="M13.4155 24.5C13.0934 24.5 12.8322 24.2388 12.8322 23.9167V22.1667C12.8322 21.8445 13.0934 21.5833 13.4155 21.5833H14.5822C14.9044 21.5833 15.1655 21.8445 15.1655 22.1667V23.9167C15.1655 24.2388 14.9044 24.5 14.5822 24.5H13.4155Z" fill="currentColor"/>
<path d="M6.34332 10.9272C6.62232 11.0883 6.97908 10.9927 7.14017 10.7137L7.7235 9.70337C7.88458 9.42436 7.78899 9.0676 7.50999 8.90652L5.99444 8.03152C5.71544 7.87044 5.35868 7.96603 5.19759 8.24503L4.61426 9.2554C4.45318 9.5344 4.54877 9.89116 4.82778 10.0522L6.34332 10.9272Z" fill="currentColor"/>
<path d="M22.8008 19.7554C22.6397 20.0344 22.283 20.13 22.0039 19.9689L20.4884 19.0939C20.2094 18.9328 20.1138 18.5761 20.2749 18.2971L20.8582 17.2867C21.0193 17.0077 21.3761 16.9121 21.6551 17.0732L23.1706 17.9482C23.4496 18.1093 23.5452 18.466 23.3841 18.745L22.8008 19.7554Z" fill="currentColor"/>
<path d="M7.50999 19.0939C7.78899 18.9328 7.88458 18.5761 7.7235 18.2971L7.14017 17.2867C6.97908 17.0077 6.62232 16.9121 6.34332 17.0732L4.82777 17.9482C4.54877 18.1093 4.45318 18.466 4.61426 18.745L5.19759 19.7554C5.35868 20.0344 5.71544 20.13 5.99444 19.9689L7.50999 19.0939Z" fill="currentColor"/>
<path d="M23.3841 9.2554C23.5452 9.5344 23.4496 9.89116 23.1706 10.0522L21.6551 10.9272C21.3761 11.0883 21.0193 10.9927 20.8582 10.7137L20.2749 9.70337C20.1138 9.42436 20.2094 9.0676 20.4884 8.90652L22.0039 8.03152C22.2829 7.87044 22.6397 7.96603 22.8008 8.24503L23.3841 9.2554Z" fill="currentColor"/>
<path d="M14 8.75C11.1005 8.75 8.75 11.1005 8.75 14C8.75 16.8995 11.1005 19.25 14 19.25C16.8995 19.25 19.25 16.8995 19.25 14C19.25 11.1005 16.8995 8.75 14 8.75Z" fill="currentColor"/>
</svg>
