<svg width="28" height="28" viewBox="0 0 28 28" fill="none" xmlns="http://www.w3.org/2000/svg">
<path d="M22.2501 5.75044C19.9718 3.47214 16.2788 3.47214 14.0005 5.75044L11.5257 8.22532C11.2979 8.45312 11.2979 8.82247 11.5257 9.05027L12.3506 9.87523C12.5784 10.103 12.9478 10.103 13.1756 9.87523L15.6505 7.40036C17.0176 6.03322 19.2331 6.03322 20.6002 7.40036C21.9673 8.7675 21.9673 10.983 20.6002 12.3501L18.1253 14.825C17.8975 15.0528 17.8975 15.4221 18.1253 15.6499L18.9503 16.4749C19.1781 16.7027 19.5474 16.7027 19.7752 16.4749L22.2501 14C24.5284 11.7217 24.5284 8.02875 22.2501 5.75044Z" fill="currentColor"/>
<path d="M8.22503 11.526C8.45284 11.2981 8.82218 11.2981 9.04999 11.526L9.87495 12.3509C10.1028 12.5787 10.1028 12.9481 9.87495 13.1759L7.40088 15.6499C6.03374 17.0171 6.03374 19.2325 7.40088 20.5997C8.76802 21.9668 10.9835 21.9668 12.3506 20.5997L14.8247 18.1256C15.0525 17.8978 15.4218 17.8978 15.6497 18.1256L16.4746 18.9506C16.7024 19.1784 16.7024 19.5477 16.4746 19.7755L14.0005 22.2496C11.7222 24.5279 8.02926 24.5279 5.75096 22.2496C3.47266 19.9713 3.47266 16.2783 5.75096 14L8.22503 11.526Z" fill="currentColor"/>
<path d="M16.7641 10.1639C16.5363 9.93612 16.1669 9.93612 15.9391 10.1639L10.1644 15.9386C9.93663 16.1664 9.93663 16.5358 10.1644 16.7636L11.2369 17.836C11.4647 18.0638 11.834 18.0638 12.0618 17.836L17.8365 12.0613C18.0643 11.8335 18.0643 11.4642 17.8365 11.2364L16.7641 10.1639Z" fill="currentColor"/>
</svg>
