<svg width="28" height="28" viewBox="0 0 28 28" fill="none" xmlns="http://www.w3.org/2000/svg">
<path fill-rule="evenodd" clip-rule="evenodd" d="M14 3.5C17.1826 3.5 19.7698 6.04864 19.8322 9.21626C19.8335 9.28068 19.8856 9.33333 19.95 9.33333H21.5833C21.9055 9.33333 22.1667 9.5945 22.1667 9.91667V22.75C22.1667 23.0722 21.9055 23.3333 21.5833 23.3333H6.41668C6.09451 23.3333 5.83334 23.0722 5.83334 22.75V9.91667C5.83334 9.5945 6.09451 9.33333 6.41668 9.33333H8.05001C8.11444 9.33333 8.16656 9.28068 8.16783 9.21626C8.23019 6.04864 10.8175 3.5 14 3.5ZM10.5019 9.21645C10.4998 9.28084 10.5522 9.33333 10.6167 9.33333H17.3833C17.4478 9.33333 17.5002 9.28084 17.4981 9.21645C17.4364 7.33756 15.8939 5.83333 14 5.83333C12.1061 5.83333 10.5636 7.33756 10.5019 9.21645ZM8.16668 12.25C8.16668 11.9278 8.42784 11.6667 8.75001 11.6667H19.25C19.5722 11.6667 19.8333 11.9278 19.8333 12.25V20.4167C19.8333 20.7388 19.5722 21 19.25 21H8.75001C8.42784 21 8.16668 20.7388 8.16668 20.4167V12.25Z" fill="currentColor"/>
</svg>
