<svg width="28" height="28" viewBox="0 0 28 28" fill="none" xmlns="http://www.w3.org/2000/svg">
<path d="M7 11.6667C5.71133 11.6667 4.66666 12.7113 4.66666 14C4.66666 15.2887 5.71133 16.3333 7 16.3333C8.28866 16.3333 9.33333 15.2887 9.33333 14C9.33333 12.7113 8.28866 11.6667 7 11.6667Z" fill="currentColor"/>
<path d="M11.6667 14C11.6667 12.7113 12.7113 11.6667 14 11.6667C15.2887 11.6667 16.3333 12.7113 16.3333 14C16.3333 15.2887 15.2887 16.3333 14 16.3333C12.7113 16.3333 11.6667 15.2887 11.6667 14Z" fill="currentColor"/>
<path d="M18.6667 14C18.6667 12.7113 19.7113 11.6667 21 11.6667C22.2887 11.6667 23.3333 12.7113 23.3333 14C23.3333 15.2887 22.2887 16.3333 21 16.3333C19.7113 16.3333 18.6667 15.2887 18.6667 14Z" fill="currentColor"/>
</svg>
