<svg width="28" height="28" viewBox="0 0 28 28" fill="none" xmlns="http://www.w3.org/2000/svg">
<path d="M11.6667 6.99999C11.6667 8.28865 12.7113 9.33332 14 9.33332C15.2887 9.33332 16.3333 8.28865 16.3333 6.99999C16.3333 5.71133 15.2887 4.66666 14 4.66666C12.7113 4.66666 11.6667 5.71133 11.6667 6.99999Z" fill="currentColor"/>
<path d="M14 16.3333C12.7113 16.3333 11.6667 15.2887 11.6667 14C11.6667 12.7113 12.7113 11.6667 14 11.6667C15.2887 11.6667 16.3333 12.7113 16.3333 14C16.3333 15.2887 15.2887 16.3333 14 16.3333Z" fill="currentColor"/>
<path d="M14 23.3333C12.7113 23.3333 11.6667 22.2887 11.6667 21C11.6667 19.7113 12.7113 18.6667 14 18.6667C15.2887 18.6667 16.3333 19.7113 16.3333 21C16.3333 22.2887 15.2887 23.3333 14 23.3333Z" fill="currentColor"/>
</svg>
