<svg width="28" height="28" viewBox="0 0 28 28" fill="none" xmlns="http://www.w3.org/2000/svg">
<path d="M19.535 13.856C19.3606 13.8858 19.1849 13.8221 19.0598 13.6969L14.3036 8.94072C14.1785 8.81556 14.1147 8.63995 14.1446 8.46548C14.3017 7.54667 14.735 6.66587 15.4443 5.95659C17.2667 4.13414 20.2215 4.13414 22.0439 5.95659C23.8664 7.77903 23.8664 10.7338 22.0439 12.5563C21.3346 13.2655 20.4538 13.6988 19.535 13.856Z" fill="currentColor"/>
<path d="M13.4213 11.3583C13.1787 11.1157 12.7801 11.1338 12.5605 11.3975L5.06385 20.4C4.87083 20.6317 4.88635 20.9724 5.09963 21.1857L6.81805 22.9041C7.03139 23.1175 7.3722 23.1329 7.60397 22.9398L16.6035 15.4402C16.867 15.2206 16.8851 14.8221 16.6425 14.5796L13.4213 11.3583Z" fill="currentColor"/>
</svg>
