<svg width="28" height="28" viewBox="0 0 28 28" fill="none" xmlns="http://www.w3.org/2000/svg">
<path fill-rule="evenodd" clip-rule="evenodd" d="M7.58333 4.66666C7.26117 4.66666 7 4.92782 7 5.24999V22.75C7 23.0722 7.26117 23.3333 7.58333 23.3333H20.4167C20.7388 23.3333 21 23.0722 21 22.75V5.24999C21 4.92782 20.7388 4.66666 20.4167 4.66666H7.58333ZM10.2667 7.34969C9.94456 7.34969 9.68339 7.61086 9.68339 7.93302V20.0668C9.68339 20.389 9.94456 20.6501 10.2667 20.6501H17.7338C18.056 20.6501 18.3172 20.389 18.3172 20.0668V7.93302C18.3172 7.61086 18.056 7.34969 17.7338 7.34969H10.2667Z" fill="currentColor"/>
</svg>
