<svg width="28" height="28" viewBox="0 0 28 28" fill="none" xmlns="http://www.w3.org/2000/svg">
<path fill-rule="evenodd" clip-rule="evenodd" d="M23.3333 5.24999C23.3333 4.92782 23.0722 4.66666 22.75 4.66666H9.91667C9.5945 4.66666 9.33333 4.92782 9.33333 5.24999V15.375C9.33333 15.4607 9.24387 15.5174 9.16487 15.4842C8.67845 15.2797 8.14409 15.1667 7.58333 15.1667C5.32817 15.1667 3.5 16.9948 3.5 19.25C3.5 21.5052 5.32817 23.3333 7.58333 23.3333C9.8385 23.3333 11.6667 21.5052 11.6667 19.25V7.58332C11.6667 7.26116 11.9278 6.99999 12.25 6.99999L20.4167 6.99999C20.7388 6.99999 21 7.26116 21 7.58332V13.0417C21 13.1274 20.9105 13.1841 20.8315 13.1509C20.3451 12.9464 19.8108 12.8333 19.25 12.8333C16.9948 12.8333 15.1667 14.6615 15.1667 16.9167C15.1667 19.1718 16.9948 21 19.25 21C21.5052 21 23.3333 19.1718 23.3333 16.9167V5.24999ZM19.25 18.6667C20.2165 18.6667 21 17.8832 21 16.9167C21 15.9502 20.2165 15.1667 19.25 15.1667C18.2835 15.1667 17.5 15.9502 17.5 16.9167C17.5 17.8832 18.2835 18.6667 19.25 18.6667ZM7.58333 21C8.54983 21 9.33333 20.2165 9.33333 19.25C9.33333 18.2835 8.54983 17.5 7.58333 17.5C6.61684 17.5 5.83333 18.2835 5.83333 19.25C5.83333 20.2165 6.61684 21 7.58333 21Z" fill="currentColor"/>
</svg>
