<svg width="28" height="28" viewBox="0 0 28 28" fill="none" xmlns="http://www.w3.org/2000/svg">
<path d="M15.3205 21.577C15.3205 22.0558 14.7756 22.3307 14.3905 22.0462L8.26741 17.5221C8.24734 17.5072 8.22304 17.4992 8.19808 17.4992H4.08333C3.76117 17.4992 3.5 17.2381 3.5 16.9159V11.0826C3.5 10.7604 3.76117 10.4992 4.08333 10.4992H8.19976C8.22471 10.4992 8.24902 10.4912 8.26909 10.4764L14.3905 5.95315C14.7755 5.66862 15.3205 5.94352 15.3205 6.4223L15.3205 21.577Z" fill="currentColor"/>
<path d="M25.2543 11.9369C25.4822 11.7091 25.4822 11.3398 25.2543 11.112L24.4294 10.287C24.2016 10.0592 23.8322 10.0592 23.6044 10.287L21.6242 12.2672C21.5787 12.3128 21.5048 12.3128 21.4592 12.2672L19.4792 10.2872C19.2514 10.0594 18.8821 10.0594 18.6542 10.2872L17.8293 11.1121C17.6015 11.3399 17.6015 11.7093 17.8293 11.9371L19.8093 13.9171C19.8549 13.9627 19.8549 14.0365 19.8093 14.0821L17.8297 16.0617C17.6019 16.2895 17.6019 16.6589 17.8297 16.8867L18.6547 17.7116C18.8825 17.9394 19.2518 17.9394 19.4796 17.7116L21.4592 15.732C21.5048 15.6865 21.5787 15.6865 21.6242 15.732L23.604 17.7118C23.8318 17.9396 24.2011 17.9396 24.429 17.7118L25.2539 16.8868C25.4817 16.659 25.4817 16.2897 25.2539 16.0619L23.2741 14.0821C23.2286 14.0365 23.2286 13.9627 23.2741 13.9171L25.2543 11.9369Z" fill="currentColor"/>
</svg>
