<svg width="28" height="28" viewBox="0 0 28 28" fill="none" xmlns="http://www.w3.org/2000/svg">
<path fill-rule="evenodd" clip-rule="evenodd" d="M21.0763 11.9412C21.3509 7.84652 18.1038 4.375 14 4.375C9.89616 4.375 6.64909 7.84652 6.92253 11.9412L7.10902 14.717C7.11597 14.8205 7.09521 14.9239 7.0489 15.0167L5.21105 18.6978C5.01741 19.0856 5.29946 19.5417 5.73295 19.5417H9.80002C9.86445 19.5417 9.91651 19.5942 9.91832 19.6586C9.98023 21.8597 11.784 23.625 14 23.625C16.2161 23.625 18.0198 21.8597 18.0817 19.6586C18.0835 19.5942 18.1356 19.5417 18.2 19.5417H22.2671C22.7005 19.5417 22.9826 19.0856 22.789 18.6978L20.9511 15.0166C20.9048 14.9239 20.884 14.8205 20.8909 14.7171L21.0763 11.9412ZM15.7462 19.6584C15.7504 19.5941 15.6978 19.5417 15.6333 19.5417H12.3667C12.3022 19.5417 12.2496 19.5941 12.2538 19.6584C12.3139 20.5704 13.0727 21.2917 14 21.2917C14.9273 21.2917 15.6861 20.5704 15.7462 19.6584ZM19.2487 17.2083C19.3354 17.2083 19.3918 17.1171 19.3531 17.0396L18.8634 16.0588C18.632 15.5953 18.5282 15.0785 18.5628 14.5616L18.7482 11.7851C18.9325 9.03771 16.754 6.70833 14 6.70833C11.2465 6.70833 9.06773 9.03815 9.25068 11.7858L9.4371 14.5606C9.47185 15.0779 9.36809 15.5951 9.1365 16.059L8.64692 17.0396C8.60819 17.1171 8.6646 17.2083 8.7513 17.2083H19.2487Z" fill="currentColor"/>
</svg>
