<svg width="28" height="28" viewBox="0 0 28 28" fill="none" xmlns="http://www.w3.org/2000/svg">
<path d="M7.58333 5.83333C7.26117 5.83333 7 6.0945 7 6.41667V21.5833C7 21.9055 7.26117 22.1667 7.58333 22.1667H11.0833C11.4055 22.1667 11.6667 21.9055 11.6667 21.5833V6.41667C11.6667 6.0945 11.4055 5.83333 11.0833 5.83333H7.58333Z" fill="currentColor"/>
<path d="M16.9167 5.83333C16.5945 5.83333 16.3333 6.0945 16.3333 6.41667V21.5833C16.3333 21.9055 16.5945 22.1667 16.9167 22.1667H20.4167C20.7388 22.1667 21 21.9055 21 21.5833V6.41667C21 6.0945 20.7388 5.83333 20.4167 5.83333H16.9167Z" fill="currentColor"/>
</svg>
