<svg width="28" height="28" viewBox="0 0 28 28" fill="none" xmlns="http://www.w3.org/2000/svg">
<path d="M23.3333 14C23.3333 19.1547 19.1547 23.3333 14 23.3333C8.84535 23.3333 4.66667 19.1547 4.66667 14C4.66667 8.84534 8.84535 4.66667 14 4.66667C19.1547 4.66667 23.3333 8.84534 23.3333 14Z" fill="currentColor"/>
<path d="M15.4039 9.66972C15.4039 9.34755 15.665 9.08638 15.9872 9.08638H17.6283C17.9505 9.08638 18.2117 9.34755 18.2117 9.66972V18.3303C18.2117 18.6524 17.9505 18.9136 17.6283 18.9136H15.9872C15.665 18.9136 15.4039 18.6524 15.4039 18.3303V9.66972Z" fill="currentColor"/>
<path d="M9.78834 9.66972C9.78834 9.34755 10.0495 9.08638 10.3717 9.08638H12.0128C12.3349 9.08638 12.5961 9.34755 12.5961 9.66972V18.3303C12.5961 18.6524 12.3349 18.9136 12.0128 18.9136H10.3717C10.0495 18.9136 9.78834 18.6524 9.78834 18.3303V9.66972Z" fill="currentColor"/>
</svg>
