<svg width="28" height="28" viewBox="0 0 28 28" fill="none" xmlns="http://www.w3.org/2000/svg">
<path d="M4.66666 22.75V17.0333C4.66666 16.9689 4.71889 16.9167 4.78332 16.9167H6.88332C6.94776 16.9167 6.99999 16.9689 6.99999 17.0333V20.4167C6.99999 20.7388 7.26116 21 7.58332 21H20.4167C20.7388 21 21 20.7388 21 20.4167V7.58334C21 7.26117 20.7388 7.00001 20.4167 7.00001H17.0333C16.9689 7.00001 16.9167 6.94777 16.9167 6.88334V4.78334C16.9167 4.71891 16.9689 4.66667 17.0333 4.66667H22.75C23.0722 4.66667 23.3333 4.92784 23.3333 5.25001V22.75C23.3333 23.0722 23.0722 23.3333 22.75 23.3333H5.24999C4.92782 23.3333 4.66666 23.0722 4.66666 22.75Z" fill="currentColor"/>
<path d="M12.2585 7.37065H9.4552C9.35126 7.37065 9.29921 7.49632 9.37271 7.56981L14.4804 12.6775C14.7082 12.9053 14.7082 13.2747 14.4804 13.5025L13.408 14.5749C13.1802 14.8027 12.8108 14.8027 12.583 14.5749L7.5577 9.54961C7.4842 9.47611 7.35853 9.52817 7.35853 9.6321V12.2707C7.35853 12.5928 7.09737 12.854 6.7752 12.854H5.25853C4.93637 12.854 4.6752 12.5928 4.6752 12.2707L4.6752 5.27065C4.6752 4.94848 4.93637 4.68732 5.25853 4.68732L12.2585 4.68732C12.5807 4.68732 12.8419 4.94849 12.8419 5.27065V6.78732C12.8419 7.10948 12.5807 7.37065 12.2585 7.37065Z" fill="currentColor"/>
</svg>
