<svg width="28" height="28" viewBox="0 0 28 28" fill="none" xmlns="http://www.w3.org/2000/svg">
<path d="M14 13.4167C13.6778 13.4167 13.4167 13.6778 13.4167 14V17.5C13.4167 17.8222 13.6778 18.0833 14 18.0833H18.6667C18.9888 18.0833 19.25 17.8222 19.25 17.5V14C19.25 13.6778 18.9888 13.4167 18.6667 13.4167H14Z" fill="currentColor"/>
<path fill-rule="evenodd" clip-rule="evenodd" d="M4.66667 6.41666C4.66667 6.0945 4.92784 5.83333 5.25001 5.83333H22.75C23.0722 5.83333 23.3333 6.0945 23.3333 6.41666V21.5833C23.3333 21.9055 23.0722 22.1667 22.75 22.1667H5.25001C4.92784 22.1667 4.66667 21.9055 4.66667 21.5833V6.41666ZM7.00001 8.75C7.00001 8.42783 7.26117 8.16666 7.58334 8.16666H20.4167C20.7388 8.16666 21 8.42783 21 8.75V19.25C21 19.5722 20.7388 19.8333 20.4167 19.8333H7.58334C7.26117 19.8333 7.00001 19.5722 7.00001 19.25V8.75Z" fill="currentColor"/>
</svg>
