<svg width="28" height="28" viewBox="0 0 28 28" fill="none" xmlns="http://www.w3.org/2000/svg">
<path d="M12.1812 4.84376C12.5253 4.77578 12.8334 5.04863 12.8334 5.39944V6.62563C12.8334 6.91055 12.6268 7.15117 12.3498 7.2181C11.0234 7.53864 9.84435 8.23696 8.93303 9.19278C8.73669 9.39871 8.42544 9.4569 8.17903 9.31464L7.12352 8.70524C6.81973 8.52985 6.73741 8.1268 6.96818 7.86262C8.29945 6.33857 10.1182 5.25125 12.1812 4.84376Z" fill="currentColor"/>
<path d="M5.15356 11.0169C5.26583 10.6839 5.65683 10.5527 5.96123 10.7285L7.01055 11.3343C7.2571 11.4767 7.36225 11.7755 7.28212 12.0487C7.09849 12.6747 7.00002 13.3371 7.00002 14.0225C7.00002 14.7079 7.09849 15.3702 7.28212 15.9962C7.36225 16.2694 7.2571 16.5683 7.01055 16.7106L5.97403 17.3091C5.67049 17.4843 5.28056 17.3545 5.16709 17.0229C4.84273 16.0748 4.66669 15.0579 4.66669 14C4.66669 12.9568 4.83783 11.9536 5.15356 11.0169Z" fill="currentColor"/>
<path d="M7.14972 19.3246C6.84508 19.5005 6.76334 19.9051 6.99594 20.1689C8.32468 21.6764 10.1325 22.7515 12.1812 23.1562C12.5253 23.2242 12.8334 22.9513 12.8334 22.6005V21.4193C12.8334 21.1344 12.6268 20.8938 12.3498 20.8268C11.0234 20.5063 9.84435 19.808 8.93303 18.8522C8.73669 18.6462 8.42544 18.588 8.17903 18.7303L7.14972 19.3246Z" fill="currentColor"/>
<path d="M15.1667 22.6005C15.1667 22.9513 15.475 23.2241 15.8192 23.1561C20.103 22.3098 23.3334 18.5321 23.3334 14C23.3334 9.46781 20.103 5.69014 15.8192 4.84382C15.475 4.77583 15.1667 5.04863 15.1667 5.39944V6.62563C15.1667 6.91055 15.3735 7.15122 15.6505 7.21815C18.72 7.96005 21 10.725 21 14.0225C21 17.3199 18.72 20.0849 15.6505 20.8268C15.3735 20.8937 15.1667 21.1344 15.1667 21.4193V22.6005Z" fill="currentColor"/>
<path d="M12.5967 9.11424C12.2116 8.82973 11.6667 9.10464 11.6667 9.58341L11.6667 18.4165C11.6667 18.8952 12.2116 19.1701 12.5967 18.8856L18.5739 14.4689C18.8895 14.2357 18.8895 13.7637 18.5739 13.5306L12.5967 9.11424Z" fill="currentColor"/>
</svg>
