<svg width="28" height="28" viewBox="0 0 28 28" fill="none" xmlns="http://www.w3.org/2000/svg">
<path d="M10.5 6.70833C10.5 6.38617 10.7612 6.125 11.0834 6.125H22.75C23.0722 6.125 23.3334 6.38617 23.3334 6.70833V8.45833C23.3334 8.7805 23.0722 9.04167 22.75 9.04167H11.0834C10.7612 9.04167 10.5 8.7805 10.5 8.45833V6.70833Z" fill="currentColor"/>
<path d="M10.5 13.125C10.5 12.8028 10.7612 12.5417 11.0834 12.5417H22.75C23.0722 12.5417 23.3334 12.8028 23.3334 13.125V14.875C23.3334 15.1972 23.0722 15.4583 22.75 15.4583H11.0834C10.7612 15.4583 10.5 15.1972 10.5 14.875V13.125Z" fill="currentColor"/>
<path d="M5.25002 18.9583C4.92785 18.9583 4.66669 19.2195 4.66669 19.5417V21.2917C4.66669 21.6138 4.92785 21.875 5.25002 21.875H7.00002C7.32219 21.875 7.58335 21.6138 7.58335 21.2917V19.5417C7.58335 19.2195 7.32219 18.9583 7.00002 18.9583H5.25002Z" fill="currentColor"/>
<path d="M11.0834 18.9583C10.7612 18.9583 10.5 19.2195 10.5 19.5417V21.2917C10.5 21.6138 10.7612 21.875 11.0834 21.875H22.75C23.0722 21.875 23.3334 21.6138 23.3334 21.2917V19.5417C23.3334 19.2195 23.0722 18.9583 22.75 18.9583H11.0834Z" fill="currentColor"/>
<path d="M5.25002 12.5417C4.92785 12.5417 4.66669 12.8028 4.66669 13.125V14.875C4.66669 15.1972 4.92785 15.4583 5.25002 15.4583H7.00002C7.32219 15.4583 7.58335 15.1972 7.58335 14.875V13.125C7.58335 12.8028 7.32219 12.5417 7.00002 12.5417H5.25002Z" fill="currentColor"/>
<path d="M5.25002 6.125C4.92785 6.125 4.66669 6.38617 4.66669 6.70833V8.45833C4.66669 8.7805 4.92785 9.04167 5.25002 9.04167H7.00002C7.32219 9.04167 7.58335 8.7805 7.58335 8.45833V6.70833C7.58335 6.38617 7.32219 6.125 7.00002 6.125H5.25002Z" fill="currentColor"/>
</svg>
