<svg width="28" height="28" viewBox="0 0 28 28" fill="none" xmlns="http://www.w3.org/2000/svg">
<path d="M21.9975 21.9703C21.8899 22.0966 21.7312 22.1667 21.5653 22.1667H19.9608C19.3449 22.1667 19.0517 21.1638 19.4901 20.7312C20.9266 19.3138 21.8169 17.3443 21.8169 15.1667C21.8169 10.8498 18.3169 7.34978 14 7.34978C9.68311 7.34978 6.18311 10.8498 6.18311 15.1667C6.18311 17.3443 7.0734 19.3138 8.50985 20.7312C8.9483 21.1638 8.65511 22.1667 8.03917 22.1667H6.43474C6.26882 22.1667 6.11008 22.0966 6.00251 21.9703C4.4424 20.1382 3.5 17.7617 3.5 15.1667C3.5 9.36752 8.20085 4.66667 14 4.66667C19.7992 4.66667 24.5 9.36752 24.5 15.1667C24.5 17.7617 23.5576 20.1382 21.9975 21.9703Z" fill="currentColor"/>
<path d="M18.5493 12.5474C18.7771 12.3196 18.7771 11.9503 18.5493 11.7225L17.7243 10.8975C17.4965 10.6697 17.1272 10.6697 16.8994 10.8975L14.393 13.4039C14.3662 13.4307 14.3281 13.4426 14.2905 13.4372C14.1956 13.4237 14.0986 13.4167 14 13.4167C12.8724 13.4167 11.9583 14.3308 11.9583 15.4584C11.9583 16.586 12.8724 17.5 14 17.5C15.1276 17.5 16.0417 16.586 16.0417 15.4584C16.0417 15.3531 16.0337 15.2498 16.0184 15.1488C16.0126 15.1109 16.0244 15.0723 16.0515 15.0452L18.5493 12.5474Z" fill="currentColor"/>
</svg>
