<svg width="28" height="28" viewBox="0 0 28 28" fill="none" xmlns="http://www.w3.org/2000/svg">
<path d="M11.8281 17.3516C11.8281 17.5184 11.9633 17.6536 12.1301 17.6536H14.8928C15.0596 17.6536 15.1948 17.5184 15.1948 17.3516C15.2007 16.7712 15.2747 16.2827 15.4169 15.8859C15.5649 15.4891 15.787 15.1397 16.0831 14.8377C16.3851 14.5357 16.77 14.2455 17.2379 13.9672C17.7945 13.6355 18.2772 13.2654 18.6858 12.8568C19.0944 12.4422 19.4112 11.9685 19.6363 11.4355C19.8672 10.8966 19.9827 10.2807 19.9827 9.58784C19.9827 8.55149 19.7251 7.66615 19.2099 6.93182C18.6947 6.19749 17.984 5.63786 17.078 5.25293C16.1719 4.86208 15.1296 4.66666 13.9512 4.66666C12.8793 4.66666 11.8992 4.85912 11.0109 5.24405C10.1226 5.62306 9.40899 6.20045 8.87009 6.97624C8.42454 7.61274 8.15305 8.39092 8.05563 9.31078C8.0211 9.63683 8.28754 9.90762 8.61542 9.90762H11.0792C11.3931 9.90762 11.6413 9.65613 11.7142 9.35085C11.7733 9.10294 11.8676 8.88287 11.9969 8.69065C12.216 8.35902 12.4973 8.1103 12.8408 7.94448C13.1843 7.77274 13.5485 7.68687 13.9334 7.68687C14.3302 7.68687 14.6914 7.76978 15.0171 7.9356C15.3488 8.10141 15.6123 8.33829 15.8077 8.64624C16.0031 8.95418 16.1008 9.31246 16.1008 9.72108C16.1008 10.106 16.015 10.4554 15.8432 10.7693C15.6715 11.0772 15.4405 11.3585 15.1504 11.6132C14.8602 11.8678 14.5315 12.1136 14.1644 12.3504C13.6728 12.6584 13.2524 13.0019 12.903 13.3809C12.5536 13.7599 12.2871 14.2573 12.1035 14.8732C11.9258 15.4891 11.834 16.3152 11.8281 17.3516Z" fill="currentColor"/>
<path d="M12.068 22.7169C12.4884 23.1314 12.9948 23.3387 13.587 23.3387C13.966 23.3387 14.3154 23.244 14.6352 23.0545C14.9549 22.859 15.2125 22.6014 15.408 22.2816C15.6093 21.9559 15.713 21.5976 15.7189 21.2068C15.713 20.6264 15.4968 20.129 15.0704 19.7145C14.644 19.2999 14.1495 19.0926 13.587 19.0926C12.9948 19.0926 12.4884 19.2999 12.068 19.7145C11.6534 20.129 11.4491 20.6264 11.455 21.2068C11.4491 21.7931 11.6534 22.2964 12.068 22.7169Z" fill="currentColor"/>
</svg>
