<svg width="28" height="28" viewBox="0 0 28 28" fill="none" xmlns="http://www.w3.org/2000/svg">
<path fill-rule="evenodd" clip-rule="evenodd" d="M6.41665 5.25C6.09448 5.25 5.83331 5.51117 5.83331 5.83333V11.6667C5.83331 11.9888 6.09448 12.25 6.41665 12.25H21.5833C21.9055 12.25 22.1666 11.9888 22.1666 11.6667V5.83333C22.1666 5.51117 21.9055 5.25 21.5833 5.25H6.41665ZM8.28331 7.58333C8.21888 7.58333 8.16665 7.63557 8.16665 7.7V9.8C8.16665 9.86443 8.21888 9.91667 8.28331 9.91667H19.7166C19.7811 9.91667 19.8333 9.86443 19.8333 9.8V7.7C19.8333 7.63557 19.7811 7.58333 19.7166 7.58333H8.28331Z" fill="currentColor"/>
<path d="M5.83331 15.75C5.83331 15.4278 6.09448 15.1667 6.41665 15.1667H21.5833C21.9055 15.1667 22.1666 15.4278 22.1666 15.75V16.9167C22.1666 17.2388 21.9055 17.5 21.5833 17.5H6.41665C6.09448 17.5 5.83331 17.2388 5.83331 16.9167V15.75Z" fill="currentColor"/>
<path d="M5.83331 21C5.83331 20.6778 6.09448 20.4167 6.41665 20.4167H21.5833C21.9055 20.4167 22.1666 20.6778 22.1666 21V22.1667C22.1666 22.4888 21.9055 22.75 21.5833 22.75H6.41665C6.09448 22.75 5.83331 22.4888 5.83331 22.1667V21Z" fill="currentColor"/>
</svg>
