<svg width="28" height="28" viewBox="0 0 28 28" fill="none" xmlns="http://www.w3.org/2000/svg">
<path d="M14 18.0833C16.2552 18.0833 18.0834 16.2552 18.0834 14C18.0834 11.7448 16.2552 9.91666 14 9.91666C11.7449 9.91666 9.91669 11.7448 9.91669 14C9.91669 16.2552 11.7449 18.0833 14 18.0833Z" fill="currentColor"/>
<path fill-rule="evenodd" clip-rule="evenodd" d="M23.3334 14C23.3334 19.1546 19.1547 23.3333 14 23.3333C8.84536 23.3333 4.66669 19.1546 4.66669 14C4.66669 8.84533 8.84536 4.66666 14 4.66666C19.1547 4.66666 23.3334 8.84533 23.3334 14ZM21 14C21 17.866 17.866 21 14 21C10.134 21 7.00002 17.866 7.00002 14C7.00002 10.134 10.134 6.99999 14 6.99999C17.866 6.99999 21 10.134 21 14Z" fill="currentColor"/>
</svg>
