<svg width="28" height="28" viewBox="0 0 28 28" fill="none" xmlns="http://www.w3.org/2000/svg">
<path d="M4.66667 10.5C4.66667 7.92268 6.756 5.83334 9.33333 5.83334H18.6667C21.244 5.83334 23.3333 7.92268 23.3333 10.5V17.5C23.3333 20.0773 21.244 22.1667 18.6667 22.1667H18.6307C18.5662 22.1667 18.514 22.2189 18.514 22.2833V23.7516C18.514 24.2304 17.9691 24.5053 17.584 24.2208L13.6227 21.2939C13.3071 21.0607 13.3071 20.5887 13.6226 20.3556L17.584 17.4284C17.9691 17.1439 18.514 17.4188 18.514 17.8976V19.3485C18.514 19.4168 18.5725 19.4707 18.6401 19.4614C19.7758 19.304 20.6502 18.3292 20.6502 17.1502V10.8498C20.6502 9.56112 19.6056 8.51645 18.3169 8.51645H9.6831C8.39444 8.51645 7.34977 9.56112 7.34977 10.8498V17.1502C7.34977 18.4389 8.39444 19.4836 9.6831 19.4836H10.0705C10.3926 19.4836 10.6538 19.7447 10.6538 20.0669V21.5833C10.6538 21.9055 10.3926 22.1667 10.0705 22.1667H9.33333C6.756 22.1667 4.66667 20.0773 4.66667 17.5V10.5Z" fill="currentColor"/>
<path d="M14 15.75C14.9665 15.75 15.75 14.9665 15.75 14C15.75 13.0335 14.9665 12.25 14 12.25C13.0335 12.25 12.25 13.0335 12.25 14C12.25 14.9665 13.0335 15.75 14 15.75Z" fill="currentColor"/>
</svg>
