<svg width="28" height="28" viewBox="0 0 28 28" fill="none" xmlns="http://www.w3.org/2000/svg">
<path d="M19.4224 4.36488C19.0373 4.08038 18.4924 4.35528 18.4924 4.83405V6.30231C18.4924 6.36674 18.4401 6.41897 18.3757 6.41897H9.74238C7.16505 6.41897 5.07571 8.50831 5.07571 11.0856V12.8356C5.07571 13.1578 5.33688 13.419 5.65904 13.419H7.17571C7.49788 13.419 7.75904 13.1578 7.75904 12.8356V11.4354C7.75904 10.1467 8.80371 9.10208 10.0924 9.10208H18.3757C18.4401 9.10208 18.4924 9.15431 18.4924 9.21874V10.6881C18.4924 11.1669 19.0373 11.4418 19.4224 11.1572L23.3837 8.23008C23.6993 7.9969 23.6993 7.52493 23.3837 7.29177L19.4224 4.36488Z" fill="currentColor"/>
<path d="M14 15.75C14.9665 15.75 15.75 14.9665 15.75 14C15.75 13.0335 14.9665 12.25 14 12.25C13.0335 12.25 12.25 13.0335 12.25 14C12.25 14.9665 13.0335 15.75 14 15.75Z" fill="currentColor"/>
<path d="M18.2571 21.5811H9.62378C9.55935 21.5811 9.50712 21.6333 9.50712 21.6977V23.166C9.50712 23.6448 8.9622 23.9197 8.57714 23.6352L4.61578 20.7083C4.3002 20.4751 4.30019 20.0032 4.61576 19.77L8.57712 16.8428C8.96218 16.5583 9.50712 16.8332 9.50712 17.312V18.7813C9.50712 18.8457 9.55935 18.898 9.62378 18.898H17.9071C19.1958 18.898 20.2405 17.8533 20.2405 16.5646V15.1644C20.2405 14.8422 20.5016 14.5811 20.8238 14.5811H22.3405C22.6626 14.5811 22.9238 14.8422 22.9238 15.1644V16.9144C22.9238 19.4917 20.8344 21.5811 18.2571 21.5811Z" fill="currentColor"/>
</svg>
