<svg width="28" height="28" viewBox="0 0 28 28" fill="none" xmlns="http://www.w3.org/2000/svg">
<path d="M19.4224 4.36488C19.0373 4.08038 18.4924 4.35528 18.4924 4.83405V6.30231C18.4924 6.36674 18.4401 6.41897 18.3757 6.41897H9.74238C7.16505 6.41897 5.07571 8.50831 5.07571 11.0856V12.8356C5.07571 13.1578 5.33688 13.419 5.65904 13.419H7.17571C7.49788 13.419 7.75904 13.1578 7.75904 12.8356V11.4354C7.75904 10.1467 8.80371 9.10208 10.0924 9.10208H18.3757C18.4401 9.10208 18.4924 9.15431 18.4924 9.21874V10.6881C18.4924 11.1669 19.0373 11.4418 19.4224 11.1572L23.3837 8.23008C23.6993 7.9969 23.6993 7.52493 23.3837 7.29177L19.4224 4.36488Z" fill="currentColor"/>
<path d="M9.50712 21.6977C9.50712 21.6333 9.55935 21.5811 9.62378 21.5811H18.2571C20.8344 21.5811 22.9238 19.4917 22.9238 16.9144V15.1644C22.9238 14.8422 22.6626 14.5811 22.3405 14.5811H20.8238C20.5016 14.5811 20.2405 14.8422 20.2405 15.1644V16.5646C20.2405 17.8533 19.1958 18.898 17.9071 18.898H9.62378C9.55935 18.898 9.50712 18.8457 9.50712 18.7813V17.312C9.50712 16.8332 8.96218 16.5583 8.57712 16.8428L4.61576 19.77C4.30019 20.0032 4.3002 20.4751 4.61578 20.7083L8.57714 23.6352C8.9622 23.9197 9.50712 23.6448 9.50712 23.166V21.6977Z" fill="currentColor"/>
</svg>
