<svg width="28" height="28" viewBox="0 0 28 28" fill="none" xmlns="http://www.w3.org/2000/svg">
<path d="M9.33335 5.83334C6.75602 5.83334 4.66669 7.92268 4.66669 10.5V17.5C4.66669 20.0773 6.75602 22.1667 9.33335 22.1667H10.0705C10.3927 22.1667 10.6538 21.9055 10.6538 21.5833V20.0669C10.6538 19.7447 10.3927 19.4836 10.0705 19.4836H9.68313C8.39446 19.4836 7.34979 18.4389 7.34979 17.1502V10.8498C7.34979 9.56112 8.39446 8.51645 9.68313 8.51645H18.3169C19.6056 8.51645 20.6502 9.56112 20.6502 10.8498V17.1502C20.6502 18.3292 19.7758 19.304 18.6401 19.4614C18.5725 19.4707 18.514 19.4168 18.514 19.3485V17.8976C18.514 17.4188 17.9691 17.1439 17.584 17.4284L13.6227 20.3556C13.3071 20.5887 13.3071 21.0607 13.6227 21.2939L17.584 24.2208C17.9691 24.5053 18.514 24.2304 18.514 23.7516V22.2833C18.514 22.2189 18.5663 22.1667 18.6307 22.1667H18.6667C21.244 22.1667 23.3334 20.0773 23.3334 17.5V10.5C23.3334 7.92268 21.244 5.83334 18.6667 5.83334H9.33335Z" fill="currentColor"/>
</svg>
