<svg width="28" height="28" viewBox="0 0 28 28" fill="none" xmlns="http://www.w3.org/2000/svg">
<path d="M13.6534 10.6879C14.0384 10.9724 14.5833 10.6975 14.5833 10.2187V8.90657C14.5833 8.83757 14.6432 8.78358 14.7117 8.79192C17.5977 9.14318 19.8333 11.6019 19.8333 14.5827C19.8333 17.8046 17.2214 20.4165 13.9995 20.4165C10.9743 20.4165 8.48686 18.1138 8.19445 15.1655C8.16265 14.8448 7.90449 14.5829 7.58229 14.583L5.83323 14.5833C5.51111 14.5833 5.24798 14.8453 5.26914 15.1667C5.56932 19.7272 9.36353 23.3334 14 23.3334C18.8325 23.3334 22.75 19.4158 22.75 14.5834C22.75 9.984 19.2014 6.21348 14.6927 5.86037C14.6314 5.85557 14.5833 5.80471 14.5833 5.74325V4.36471C14.5833 3.88592 14.0384 3.61102 13.6533 3.89556L9.69197 6.8227C9.37641 7.05588 9.37642 7.52785 9.69199 7.76102L13.6534 10.6879Z" fill="currentColor"/>
</svg>
