<svg width="28" height="28" viewBox="0 0 28 28" fill="none" xmlns="http://www.w3.org/2000/svg">
<path d="M18.6656 8.10796L18.6656 8.10796C19.0234 7.75007 19.0029 7.1538 18.6017 6.82598C15.557 4.33843 11.0637 4.51396 8.2244 7.35326C7.90333 7.67432 7.61598 8.01701 7.36256 8.37682H6.3662C6.71529 7.80313 7.13811 7.26103 7.63514 6.764C10.8353 3.56385 15.9344 3.41881 19.306 6.32918C19.6433 6.62039 20.1592 6.6143 20.4869 6.28663L21.4332 5.34035L22.0821 9.66131L17.761 9.01255L18.6656 8.10796ZM17.4342 8.9635C17.4344 8.96352 17.4345 8.96353 17.4346 8.96355L17.4342 8.9635ZM9.39829 21.174L9.87281 20.5932L9.39829 21.174C12.443 23.6616 16.9363 23.486 19.7756 20.6467C20.0966 20.3257 20.384 19.983 20.6374 19.6232H21.6338C21.2847 20.1969 20.8619 20.739 20.3648 21.236C17.1647 24.4361 12.0655 24.5812 8.69398 21.6708C8.35664 21.3796 7.84075 21.3857 7.51308 21.7134L6.56679 22.6597L5.91787 18.3387L10.239 18.9874L9.33442 19.892C8.97649 20.2499 8.99708 20.8462 9.39829 21.174ZM10.4726 18.7538L10.4724 18.7541L10.4726 18.7538ZM14.8255 17.8892L10.1114 13.1751L13.1756 10.111L17.8896 14.825L14.8255 17.8892ZM18.0074 14.9429C18.0073 14.9428 18.0072 14.9427 18.0071 14.9426L18.0074 14.9429Z" fill="currentColor" stroke="#050B17" stroke-width="1.5"/>
</svg>
