<svg width="28" height="28" viewBox="0 0 28 28" fill="none" xmlns="http://www.w3.org/2000/svg">
<path fill-rule="evenodd" clip-rule="evenodd" d="M17.6509 19.549C17.6105 19.5086 17.547 19.5034 17.5002 19.5361C16.1773 20.4588 14.5685 21 12.8334 21C8.32303 21 4.66669 17.3436 4.66669 12.8333C4.66669 8.323 8.32303 4.66666 12.8334 4.66666C17.3437 4.66666 21 8.323 21 12.8333C21 14.5689 20.4586 16.178 19.5355 17.5009C19.5029 17.5478 19.5081 17.6113 19.5484 17.6517L22.9207 21.024C23.1485 21.2518 23.1485 21.6211 22.9207 21.8489L21.8482 22.9214C21.6204 23.1492 21.2511 23.1492 21.0233 22.9214L17.6509 19.549ZM18.3169 12.8333C18.3169 15.8618 15.8618 18.3169 12.8334 18.3169C9.80487 18.3169 7.34979 15.8618 7.34979 12.8333C7.34979 9.80484 9.80487 7.34976 12.8334 7.34976C15.8618 7.34976 18.3169 9.80484 18.3169 12.8333Z" fill="currentColor"/>
</svg>
