<svg width="28" height="28" viewBox="0 0 28 28" fill="none" xmlns="http://www.w3.org/2000/svg">
<path d="M14.5833 9.05207C14.5833 9.53084 14.0384 9.80574 13.6534 9.52123L9.69201 6.59435C9.37643 6.36119 9.37642 5.88922 9.69199 5.65604L13.6533 2.72889C14.0384 2.44436 14.5833 2.71926 14.5833 3.19804V4.57347C14.5833 4.63528 14.632 4.68631 14.6936 4.69057C19.8468 5.04662 23.9167 9.33971 23.9167 14.5834C23.9167 20.0602 19.4768 24.5 14 24.5C8.71923 24.5 4.40252 20.3723 4.10026 15.1673C4.08158 14.8457 4.34453 14.5839 4.66671 14.5839H6.41673C6.73887 14.5839 6.9975 14.846 7.024 15.167C7.32058 18.7599 10.3306 21.5834 14 21.5834C17.866 21.5834 21 18.4493 21 14.5834C21 10.9572 18.2423 7.97499 14.7099 7.61896C14.642 7.61212 14.5833 7.66584 14.5833 7.73406V9.05207Z" fill="currentColor"/>
<path fill-rule="evenodd" clip-rule="evenodd" d="M14.9519 17.2191C15.2734 17.4296 15.6562 17.5348 16.1003 17.5348C16.5461 17.5348 16.9289 17.4304 17.2488 17.2216C17.5703 17.0112 17.818 16.7071 17.992 16.3093C18.166 15.9116 18.253 15.4327 18.253 14.8725C18.2547 14.3157 18.1685 13.8418 17.9945 13.4507C17.8205 13.0596 17.5719 12.7621 17.2488 12.5583C16.9273 12.3528 16.5445 12.25 16.1003 12.25C15.6562 12.25 15.2734 12.3528 14.9519 12.5583C14.6321 12.7621 14.3851 13.0596 14.2111 13.4507C14.0388 13.8401 13.9518 14.3141 13.9501 14.8725C13.9485 15.431 14.0346 15.9091 14.2087 16.3068C14.3827 16.7029 14.6304 17.007 14.9519 17.2191ZM16.7442 16.1229C16.5801 16.393 16.3655 16.5281 16.1003 16.5281C15.9247 16.5281 15.7697 16.4684 15.6355 16.3491C15.5013 16.2281 15.3969 16.045 15.3223 15.7997C15.2494 15.5545 15.2137 15.2454 15.2154 14.8725C15.2171 14.3223 15.2991 13.9147 15.4615 13.6495C15.6239 13.3827 15.8369 13.2493 16.1003 13.2493C16.2777 13.2493 16.4326 13.3081 16.5652 13.4258C16.6978 13.5435 16.8013 13.7224 16.8759 13.9627C16.9505 14.2014 16.9878 14.5046 16.9878 14.8725C16.9894 15.4343 16.9082 15.8511 16.7442 16.1229Z" fill="currentColor"/>
<path d="M12.0528 17.4105C12.1172 17.4105 12.1694 17.3583 12.1694 17.2939V12.4363C12.1694 12.3719 12.1172 12.3196 12.0528 12.3196H11.0618C11.04 12.3196 11.0187 12.3257 11.0002 12.3372L9.82819 13.0659C9.79395 13.0872 9.77313 13.1247 9.77313 13.165V13.956C9.77313 14.0471 9.87291 14.1031 9.95065 14.0556L10.906 13.4715C10.9097 13.4692 10.9139 13.4681 10.9182 13.4681C10.931 13.4681 10.9415 13.4785 10.9415 13.4913V17.2939C10.9415 17.3583 10.9937 17.4105 11.0581 17.4105H12.0528Z" fill="currentColor"/>
</svg>
