<svg width="28" height="28" viewBox="0 0 28 28" fill="none" xmlns="http://www.w3.org/2000/svg">
<path d="M14.5834 9.05207C14.5834 9.53084 14.0384 9.80574 13.6534 9.52123L9.69202 6.59435C9.37645 6.36119 9.37644 5.88922 9.692 5.65604L13.6534 2.72889C14.0384 2.44436 14.5834 2.71926 14.5834 3.19804V4.57347C14.5834 4.63528 14.632 4.68631 14.6937 4.69057C19.8469 5.04662 23.9167 9.33971 23.9167 14.5834C23.9167 20.0602 19.4769 24.5 14 24.5C8.71924 24.5 4.40253 20.3723 4.10027 15.1673C4.08159 14.8457 4.34455 14.5839 4.66673 14.5839H6.41674C6.73889 14.5839 6.99751 14.846 7.02402 15.167C7.32059 18.7599 10.3306 21.5834 14 21.5834C17.866 21.5834 21 18.4493 21 14.5834C21 10.9572 18.2423 7.97499 14.7099 7.61896C14.642 7.61212 14.5834 7.66584 14.5834 7.73406V9.05207Z" fill="currentColor"/>
<path d="M10.1365 17.2813C10.4364 17.4138 10.7803 17.4801 11.1681 17.4801C11.5658 17.4801 11.918 17.4155 12.2246 17.2862C12.5328 17.1553 12.7731 16.9763 12.9454 16.7493C13.1194 16.5206 13.2064 16.2588 13.2064 15.9638C13.2081 15.6506 13.1078 15.3896 12.9057 15.1808C12.7086 14.9755 12.4178 14.8487 12.0333 14.8004C12.0219 14.799 12.0133 14.7893 12.0133 14.7778C12.0133 14.7665 12.0215 14.757 12.0327 14.7552C12.3188 14.71 12.5535 14.5967 12.7366 14.4152C12.9255 14.2295 13.0192 13.9934 13.0175 13.7067C13.0175 13.4299 12.9405 13.1822 12.7863 12.9634C12.6322 12.743 12.4168 12.569 12.14 12.4414C11.8633 12.3138 11.5426 12.25 11.178 12.25C10.8118 12.25 10.4853 12.3155 10.1986 12.4464C9.91359 12.5773 9.68821 12.7588 9.52249 12.9908C9.37857 13.1908 9.2959 13.4184 9.27446 13.6734C9.26903 13.7381 9.32196 13.7912 9.38689 13.7912H10.3313C10.3945 13.7912 10.4446 13.7404 10.4585 13.6788C10.4744 13.6082 10.5038 13.5437 10.5466 13.4855C10.6113 13.3976 10.6983 13.3297 10.8076 13.2816C10.9187 13.2336 11.0421 13.2095 11.178 13.2095C11.3073 13.2095 11.4208 13.2336 11.5186 13.2816C11.618 13.3297 11.6951 13.3976 11.7498 13.4855C11.8061 13.5716 11.8335 13.6719 11.8318 13.7862C11.8335 13.9039 11.802 14.0083 11.7373 14.0995C11.6727 14.1889 11.5824 14.2585 11.4664 14.3083C11.352 14.358 11.2195 14.3828 11.0687 14.3828H10.6906C10.6262 14.3828 10.574 14.4351 10.574 14.4995V15.1412C10.574 15.2056 10.6262 15.2578 10.6906 15.2578H11.0687C11.241 15.2578 11.3902 15.2835 11.5161 15.3349C11.6437 15.3863 11.7423 15.4584 11.8119 15.5512C11.8815 15.644 11.9155 15.75 11.9138 15.8693C11.9155 15.9887 11.8848 16.0947 11.8219 16.1875C11.7589 16.2787 11.671 16.3508 11.5584 16.4038C11.4473 16.4552 11.3189 16.4808 11.1731 16.4808C11.0272 16.4808 10.8971 16.4568 10.7828 16.4088C10.6684 16.3607 10.5781 16.2944 10.5118 16.2099C10.4684 16.1534 10.4381 16.0915 10.421 16.0243C10.4056 15.9638 10.3558 15.9141 10.2934 15.9141H9.28496C9.22003 15.9141 9.1671 15.9672 9.1726 16.0319C9.19461 16.2905 9.28058 16.5222 9.43052 16.7269C9.60286 16.9623 9.83819 17.147 10.1365 17.2813Z" fill="currentColor"/>
<path fill-rule="evenodd" clip-rule="evenodd" d="M15.5576 17.2191C15.8791 17.4296 16.2619 17.5348 16.7061 17.5348C17.1519 17.5348 17.5347 17.4304 17.8545 17.2216C18.176 17.0112 18.4238 16.7071 18.5978 16.3093C18.7718 15.9116 18.8588 15.4327 18.8588 14.8725C18.8604 14.3157 18.7742 13.8418 18.6002 13.4507C18.4262 13.0596 18.1777 12.7621 17.8545 12.5583C17.533 12.3528 17.1502 12.25 16.7061 12.25C16.2619 12.25 15.8791 12.3528 15.5576 12.5583C15.2378 12.7621 14.9909 13.0596 14.8169 13.4507C14.6445 13.8401 14.5575 14.3141 14.5559 14.8725C14.5542 15.431 14.6404 15.9091 14.8144 16.3068C14.9884 16.7029 15.2361 17.007 15.5576 17.2191ZM17.3499 16.1229C17.1858 16.393 16.9712 16.5281 16.7061 16.5281C16.5304 16.5281 16.3755 16.4684 16.2412 16.3491C16.107 16.2281 16.0026 16.045 15.928 15.7997C15.8551 15.5545 15.8195 15.2454 15.8211 14.8725C15.8228 14.3223 15.9048 13.9147 16.0672 13.6495C16.2296 13.3827 16.4426 13.2493 16.7061 13.2493C16.8834 13.2493 17.0383 13.3081 17.1709 13.4258C17.3035 13.5435 17.4071 13.7224 17.4816 13.9627C17.5562 14.2014 17.5935 14.5046 17.5935 14.8725C17.5952 15.4343 17.5139 15.8511 17.3499 16.1229Z" fill="currentColor"/>
</svg>
