<svg width="28" height="28" viewBox="0 0 28 28" fill="none" xmlns="http://www.w3.org/2000/svg">
<path d="M13.4167 9.05207C13.4167 9.53084 13.9616 9.80574 14.3466 9.52123L18.308 6.59435C18.6236 6.36119 18.6236 5.88922 18.308 5.65604L14.3467 2.72889C13.9616 2.44436 13.4167 2.71926 13.4167 3.19804V4.57347C13.4167 4.63528 13.368 4.68631 13.3064 4.69057C8.15317 5.04662 4.08333 9.33971 4.08333 14.5834C4.08333 20.0602 8.52317 24.5 14 24.5C19.2808 24.5 23.5975 20.3723 23.8998 15.1673C23.9184 14.8457 23.6555 14.5839 23.3333 14.5839H21.5833C21.2611 14.5839 21.0025 14.846 20.976 15.167C20.6794 18.7599 17.6694 21.5834 14 21.5834C10.134 21.5834 6.99999 18.4493 6.99999 14.5834C6.99999 10.9572 9.75774 7.97499 13.2901 7.61896C13.358 7.61212 13.4167 7.66584 13.4167 7.73406V9.05207Z" fill="currentColor"/>
<path fill-rule="evenodd" clip-rule="evenodd" d="M14.9519 17.2191C15.2734 17.4296 15.6562 17.5348 16.1003 17.5348C16.5461 17.5348 16.9289 17.4304 17.2488 17.2216C17.5703 17.0112 17.818 16.7071 17.992 16.3093C18.166 15.9116 18.253 15.4327 18.253 14.8725C18.2547 14.3157 18.1685 13.8418 17.9945 13.4507C17.8205 13.0596 17.5719 12.7621 17.2488 12.5583C16.9273 12.3528 16.5445 12.25 16.1003 12.25C15.6562 12.25 15.2734 12.3528 14.9519 12.5583C14.632 12.7621 14.3851 13.0596 14.2111 13.4507C14.0388 13.8401 13.9518 14.3141 13.9501 14.8725C13.9485 15.431 14.0346 15.9091 14.2086 16.3068C14.3826 16.7029 14.6304 17.007 14.9519 17.2191ZM16.7441 16.1229C16.5801 16.393 16.3655 16.5281 16.1003 16.5281C15.9247 16.5281 15.7697 16.4684 15.6355 16.3491C15.5012 16.2281 15.3968 16.045 15.3223 15.7997C15.2494 15.5545 15.2137 15.2454 15.2154 14.8725C15.217 14.3223 15.2991 13.9147 15.4615 13.6495C15.6239 13.3827 15.8368 13.2493 16.1003 13.2493C16.2776 13.2493 16.4326 13.3081 16.5652 13.4258C16.6977 13.5435 16.8013 13.7224 16.8759 13.9627C16.9505 14.2014 16.9878 14.5046 16.9878 14.8725C16.9894 15.4343 16.9082 15.8511 16.7441 16.1229Z" fill="currentColor"/>
<path d="M12.0527 17.4105C12.1172 17.4105 12.1694 17.3583 12.1694 17.2939V12.4363C12.1694 12.3719 12.1172 12.3196 12.0527 12.3196H11.0617C11.04 12.3196 11.0186 12.3257 11.0001 12.3372L9.82817 13.0659C9.79393 13.0872 9.77311 13.1247 9.77311 13.165V13.956C9.77311 14.0471 9.87289 14.1031 9.95063 14.0556L10.906 13.4715C10.9097 13.4692 10.9139 13.4681 10.9182 13.4681C10.931 13.4681 10.9414 13.4785 10.9414 13.4913V17.2939C10.9414 17.3583 10.9937 17.4105 11.0581 17.4105H12.0527Z" fill="currentColor"/>
</svg>
