<svg width="28" height="28" viewBox="0 0 28 28" fill="none" xmlns="http://www.w3.org/2000/svg">
<path d="M14.5834 9.05207C14.5834 9.53084 14.0384 9.80574 13.6534 9.52123L9.69202 6.59435C9.37645 6.36119 9.37644 5.88922 9.692 5.65604L13.6534 2.72889C14.0384 2.44436 14.5834 2.71926 14.5834 3.19804V4.57347C14.5834 4.63528 14.632 4.68631 14.6937 4.69057C19.8469 5.04662 23.9167 9.33971 23.9167 14.5834C23.9167 20.0602 19.4769 24.5 14 24.5C8.71924 24.5 4.40253 20.3723 4.10027 15.1673C4.08159 14.8457 4.34455 14.5839 4.66673 14.5839H6.41674C6.73889 14.5839 6.99751 14.846 7.02402 15.167C7.32059 18.7599 10.3306 21.5834 14 21.5834C17.866 21.5834 21 18.4493 21 14.5834C21 10.9572 18.2423 7.97499 14.7099 7.61896C14.642 7.61212 14.5834 7.66584 14.5834 7.73406V9.05207Z" fill="currentColor"/>
<path d="M12.2191 17.3409C12.2836 17.3409 12.3358 17.2887 12.3358 17.2243V12.3667C12.3358 12.3023 12.2836 12.25 12.2191 12.25H11.2281C11.2063 12.25 11.185 12.2561 11.1665 12.2676L9.99455 12.9963C9.9603 13.0176 9.93948 13.0551 9.93948 13.0954V13.8864C9.93948 13.9775 10.0393 14.0335 10.117 13.986L11.0724 13.4019C11.076 13.3996 11.0802 13.3985 11.0845 13.3985C11.0974 13.3985 11.1078 13.4089 11.1078 13.4217V17.2243C11.1078 17.2887 11.16 17.3409 11.2245 17.3409H12.2191Z" fill="currentColor"/>
<path d="M15.1208 17.2092C15.4091 17.3434 15.7389 17.4105 16.1101 17.4105C16.5062 17.4105 16.8517 17.3343 17.1467 17.1818C17.4433 17.0277 17.6737 16.8156 17.8377 16.5455C18.0034 16.2754 18.0863 15.9655 18.0863 15.6158C18.0863 15.2926 18.0167 15.0059 17.8775 14.7557C17.74 14.5055 17.551 14.3099 17.3107 14.1691C17.0721 14.0265 16.8003 13.9553 16.4954 13.9553C16.2551 13.9553 16.0405 14.0017 15.8516 14.0945C15.6682 14.1838 15.534 14.2969 15.4492 14.4339C15.4459 14.4392 15.4401 14.4425 15.4338 14.4425C15.4232 14.4425 15.415 14.4334 15.416 14.4229L15.5207 13.3472C15.5265 13.2874 15.5767 13.2419 15.6368 13.2419H17.6689C17.7333 13.2419 17.7855 13.1896 17.7855 13.1252V12.3667C17.7855 12.3023 17.7333 12.25 17.6689 12.25H14.6268C14.566 12.25 14.5154 12.2967 14.5105 12.3573L14.3064 14.8897C14.3016 14.9492 14.3425 15.0027 14.4012 15.0137L15.3041 15.1831C15.3522 15.1922 15.4001 15.1695 15.4301 15.1308C15.4943 15.0478 15.5785 14.9799 15.6825 14.9272C15.8151 14.8609 15.9551 14.8286 16.1026 14.8303C16.2584 14.8303 16.396 14.8651 16.5153 14.9347C16.6363 15.0026 16.7307 15.0979 16.7987 15.2205C16.8683 15.3432 16.9022 15.4865 16.9006 15.6506C16.9022 15.8113 16.8691 15.9539 16.8011 16.0781C16.7332 16.2008 16.6396 16.2961 16.5203 16.364C16.4009 16.432 16.2642 16.4659 16.1101 16.4659C15.9129 16.4659 15.743 16.4096 15.6005 16.2969C15.4869 16.2058 15.4155 16.0915 15.3861 15.9541C15.3731 15.8934 15.3232 15.8445 15.2612 15.8445H14.2979C14.2324 15.8445 14.1793 15.8984 14.1854 15.9635C14.2094 16.2202 14.2933 16.4506 14.4372 16.6549C14.6045 16.8902 14.8324 17.075 15.1208 17.2092Z" fill="currentColor"/>
</svg>
