<svg width="28" height="28" viewBox="0 0 28 28" fill="none" xmlns="http://www.w3.org/2000/svg">
<path d="M16.3335 9.10005C16.3335 9.42222 16.0723 9.68338 15.7502 9.68338H14.2335C13.9113 9.68338 13.6502 9.42222 13.6502 9.10005V8.63338C13.6502 8.56895 13.5979 8.51672 13.5335 8.51672H5.24999C4.92782 8.51672 4.66666 8.25555 4.66666 7.93338V6.41672C4.66666 6.09455 4.92782 5.83338 5.24999 5.83338H13.5335C13.5979 5.83338 13.6502 5.78115 13.6502 5.71672V5.25005C13.6502 4.92788 13.9113 4.66672 14.2335 4.66672H15.7502C16.0723 4.66672 16.3335 4.92788 16.3335 5.25005V9.10005Z" fill="currentColor"/>
<path d="M9.91673 16.5084C10.2389 16.5084 10.5001 16.2473 10.5001 15.9251V12.0751C10.5001 11.7529 10.2389 11.4918 9.91673 11.4918H8.40006C8.07789 11.4918 7.81673 11.7529 7.81673 12.0751V12.5418C7.81673 12.6062 7.76449 12.6584 7.70006 12.6584H5.25006C4.9279 12.6584 4.66673 12.9196 4.66673 13.2418V14.7584C4.66673 15.0806 4.92789 15.3418 5.25006 15.3418H7.70006C7.76449 15.3418 7.81673 15.394 7.81673 15.4584V15.9251C7.81673 16.2473 8.07789 16.5084 8.40006 16.5084H9.91673Z" fill="currentColor"/>
<path d="M16.3334 22.7501C16.3334 23.0722 16.0722 23.3334 15.75 23.3334H14.2334C13.9112 23.3334 13.65 23.0722 13.65 22.7501V22.2834C13.65 22.219 13.5978 22.1667 13.5334 22.1667H5.25013C4.92797 22.1667 4.6668 21.9056 4.6668 21.5834V20.0667C4.6668 19.7446 4.92797 19.4834 5.25013 19.4834H13.5334C13.5978 19.4834 13.65 19.4312 13.65 19.3667V18.9001C13.65 18.5779 13.9112 18.3167 14.2334 18.3167H15.75C16.0722 18.3167 16.3334 18.5779 16.3334 18.9001V22.7501Z" fill="currentColor"/>
<path d="M19.25 21.5834C19.25 21.9056 19.5112 22.1667 19.8334 22.1667H22.7501C23.0723 22.1667 23.3335 21.9056 23.3335 21.5834V20.0667C23.3335 19.7446 23.0723 19.4834 22.7501 19.4834H19.8334C19.5112 19.4834 19.25 19.7446 19.25 20.0667V21.5834Z" fill="currentColor"/>
<path d="M14.0001 15.3418C13.6779 15.3418 13.4167 15.0806 13.4167 14.7584V13.2418C13.4167 12.9196 13.6779 12.6584 14.0001 12.6584H22.7501C23.0722 12.6584 23.3334 12.9196 23.3334 13.2418V14.7584C23.3334 15.0806 23.0722 15.3418 22.7501 15.3418H14.0001Z" fill="currentColor"/>
<path d="M19.2502 7.93338C19.2502 8.25555 19.5113 8.51672 19.8335 8.51672H22.75C23.0722 8.51672 23.3333 8.25555 23.3333 7.93338V6.41672C23.3333 6.09455 23.0722 5.83338 22.75 5.83338H19.8335C19.5113 5.83338 19.2502 6.09455 19.2502 6.41672V7.93338Z" fill="currentColor"/>
</svg>
