<svg width="28" height="28" viewBox="0 0 28 28" fill="none" xmlns="http://www.w3.org/2000/svg">
<path fill-rule="evenodd" clip-rule="evenodd" d="M11.8757 4.66667C11.5875 4.66667 11.3425 4.8771 11.299 5.16197L10.8555 8.06678C10.85 8.10302 10.8277 8.13449 10.7956 8.15214C10.7088 8.19979 10.6233 8.24933 10.5389 8.30068C10.5075 8.31978 10.4691 8.32338 10.4348 8.31004L7.69626 7.24232C7.42784 7.13767 7.12323 7.24464 6.97918 7.49414L4.85547 11.1725C4.71139 11.4221 4.77112 11.7395 4.99608 11.9196L7.29145 13.7572C7.32008 13.7801 7.3362 13.8152 7.3354 13.8518C7.33433 13.9009 7.3338 13.95 7.3338 13.9994C7.3338 14.0488 7.33434 14.0981 7.33541 14.1473C7.33621 14.184 7.3201 14.219 7.29149 14.2419L4.99652 16.0806C4.77168 16.2607 4.71201 16.578 4.85606 16.8275L6.97977 20.5058C7.12386 20.7554 7.42859 20.8624 7.69704 20.7576L10.4352 19.6889C10.4694 19.6756 10.5079 19.6792 10.5393 19.6983C10.6235 19.7495 10.709 19.799 10.7956 19.8466C10.8277 19.8642 10.85 19.8957 10.8555 19.9319L11.299 22.8369C11.3425 23.1218 11.5875 23.3322 11.8757 23.3322H16.1231C16.4112 23.3322 16.6561 23.1219 16.6997 22.8371L17.1442 19.9326C17.1497 19.8963 17.172 19.8649 17.2041 19.8472C17.2912 19.7994 17.3772 19.7497 17.4619 19.6981C17.4932 19.679 17.5317 19.6754 17.5659 19.6888L20.303 20.757C20.5715 20.8618 20.8762 20.7548 21.0203 20.5053L23.144 16.8269C23.2881 16.5774 23.2284 16.2601 23.0035 16.08L20.7094 14.242C20.6808 14.2191 20.6647 14.1841 20.6655 14.1474C20.6666 14.0982 20.6671 14.0488 20.6671 13.9994C20.6671 13.95 20.6666 13.9008 20.6655 13.8517C20.6647 13.815 20.6809 13.78 20.7095 13.7571L23.004 11.9201C23.2289 11.74 23.2887 11.4226 23.1446 11.1731L21.0209 7.4947C20.8768 7.24521 20.5722 7.13823 20.3038 7.24288L17.5663 8.31018C17.5321 8.32352 17.4936 8.31992 17.4623 8.30082C17.3774 8.24918 17.2914 8.19938 17.2041 8.15147C17.172 8.13383 17.1497 8.10237 17.1442 8.06614L16.6997 5.16177C16.6561 4.87699 16.4112 4.66667 16.1231 4.66667H11.8757ZM14.0001 17.7497C16.0713 17.7497 17.7504 16.0706 17.7504 13.9994C17.7504 11.9281 16.0713 10.2491 14.0001 10.2491C11.9288 10.2491 10.2497 11.9281 10.2497 13.9994C10.2497 16.0706 11.9288 17.7497 14.0001 17.7497Z" fill="currentColor"/>
</svg>
