<svg width="28" height="28" viewBox="0 0 28 28" fill="none" xmlns="http://www.w3.org/2000/svg">
<path fill-rule="evenodd" clip-rule="evenodd" d="M8.75002 4.66667C6.49486 4.66667 4.66669 6.49484 4.66669 8.75C4.66669 11.0052 6.49486 12.8333 8.75002 12.8333L19.25 12.8334C21.5052 12.8334 23.3334 11.0052 23.3334 8.75008C23.3334 6.49492 21.5052 4.66675 19.25 4.66675L8.77439 4.66674L8.75002 4.66667ZM12.4589 10.85C12.3682 10.85 12.3116 10.7507 12.3544 10.6706C12.6601 10.0982 12.8334 9.44432 12.8334 8.75C12.8334 8.05571 12.6601 7.40189 12.3544 6.82942C12.3117 6.7494 12.3682 6.65006 12.4589 6.65006L19.25 6.65006C20.4098 6.65006 21.35 7.59027 21.35 8.75006C21.35 9.90986 20.4098 10.8501 19.25 10.8501L12.4589 10.85ZM10.85 8.74995C10.85 9.90975 9.90983 10.8499 8.75003 10.8499C7.59024 10.8499 6.65003 9.90975 6.65003 8.74995C6.65003 7.59015 7.59024 6.64995 8.75003 6.64995C9.90983 6.64995 10.85 7.59015 10.85 8.74995Z" fill="currentColor"/>
<path fill-rule="evenodd" clip-rule="evenodd" d="M4.66669 19.25C4.66669 21.5052 6.49486 23.3333 8.75002 23.3333L19.25 23.3333C21.5052 23.3333 23.3334 21.5052 23.3334 19.25C23.3334 16.9948 21.5052 15.1667 19.25 15.1667H8.75002C6.49486 15.1667 4.66669 16.9948 4.66669 19.25ZM21.35 19.25C21.35 20.4098 20.4098 21.35 19.25 21.35C18.0902 21.35 17.15 20.4098 17.15 19.25C17.15 18.0902 18.0902 17.15 19.25 17.15C20.4098 17.15 21.35 18.0902 21.35 19.25Z" fill="currentColor"/>
</svg>
