<svg width="28" height="28" viewBox="0 0 28 28" fill="none" xmlns="http://www.w3.org/2000/svg">
<path d="M18.5679 9.92765C18.6084 9.90612 18.6576 9.91048 18.6946 9.93759C19.1772 10.2912 19.7725 10.5 20.4167 10.5C22.0275 10.5 23.3334 9.19418 23.3334 7.58335C23.3334 5.97252 22.0275 4.66669 20.4167 4.66669C18.8059 4.66669 17.5 5.97252 17.5 7.58335C17.5 7.64584 17.502 7.70787 17.5059 7.76939C17.5088 7.81619 17.4848 7.86086 17.4434 7.88287L9.35534 12.1834C9.31603 12.2043 9.26837 12.2008 9.23166 12.1756C8.76274 11.8538 8.19503 11.6655 7.58335 11.6655C5.97252 11.6655 4.66669 12.9714 4.66669 14.5822C4.66669 16.193 5.97252 17.4989 7.58335 17.4989C8.23651 17.4989 8.83952 17.2842 9.32566 16.9215C9.3603 16.8957 9.40614 16.8898 9.44561 16.9074L17.4338 20.464C17.4749 20.4823 17.5016 20.5228 17.5039 20.5677C17.5824 22.1083 18.8565 23.3334 20.4167 23.3334C22.0275 23.3334 23.3334 22.0275 23.3334 20.4167C23.3334 18.8059 22.0275 17.5 20.4167 17.5C19.652 17.5 18.956 17.7943 18.4358 18.2758C18.4007 18.3083 18.3498 18.3177 18.3061 18.2982L10.566 14.8521C10.5208 14.832 10.4935 14.7855 10.496 14.7361C10.4987 14.6852 10.5 14.6338 10.5 14.5822C10.5 14.4898 10.4957 14.3984 10.4873 14.3082C10.4828 14.2602 10.5069 14.2138 10.5495 14.1911L18.5679 9.92765Z" fill="currentColor"/>
</svg>
