<svg width="28" height="28" viewBox="0 0 28 28" fill="none" xmlns="http://www.w3.org/2000/svg">
<path d="M15.9565 7.68706C15.5715 7.40255 15.0265 7.67745 15.0265 8.15622V10.8323C15.0265 10.8942 14.9782 10.9453 14.9165 10.9492C13.6165 11.0329 12.2793 11.3071 10.9556 11.7889C6.07191 13.5664 2.86388 17.627 2.73072 21.6731C2.72699 21.7866 2.87239 21.833 2.94083 21.7425C4.93229 19.1069 8.56469 17.2821 12.7752 17.0781C12.7803 17.0778 12.7843 17.0736 12.7843 17.0685C12.7843 17.0633 12.7886 17.059 12.7938 17.059H14.9099C14.9743 17.059 15.0265 17.1112 15.0265 17.1756V19.8436C15.0265 20.3224 15.5715 20.5973 15.9565 20.3127L23.8653 14.4688C24.1808 14.2356 24.1808 13.7636 23.8652 13.5305L15.9565 7.68706Z" fill="currentColor"/>
</svg>
