<svg width="28" height="28" viewBox="0 0 28 28" fill="none" xmlns="http://www.w3.org/2000/svg">
<path d="M20.7633 4.94594C20.3782 4.66143 19.8333 4.93633 19.8333 5.4151V6.88336C19.8333 6.94779 19.7811 7.00003 19.7167 7.00003H18.6667C16.2949 7.00003 14.1985 8.17986 12.9323 9.98458C12.8844 10.0528 12.7822 10.0528 12.7343 9.98458C11.4682 8.17986 9.37176 7.00003 6.99999 7.00003H5.24999C4.92782 7.00003 4.66666 7.26119 4.66666 7.58336V9.0998C4.66666 9.42197 4.92782 9.68313 5.24999 9.68313H6.99999C9.38345 9.68313 11.3169 11.6154 11.3169 14C11.3169 16.3846 9.38345 18.3169 6.99999 18.3169H5.24999C4.92782 18.3169 4.66666 18.5781 4.66666 18.9003V20.4167C4.66666 20.7389 4.92782 21 5.24999 21H6.99999C9.37176 21 11.4682 19.8202 12.7343 18.0155C12.7822 17.9472 12.8844 17.9472 12.9323 18.0155C14.1985 19.8202 16.2949 21 18.6667 21H19.7167C19.7811 21 19.8333 21.0523 19.8333 21.1167V22.5849C19.8333 23.0637 20.3783 23.3386 20.7633 23.054L24.7247 20.1269C25.0402 19.8937 25.0402 19.4217 24.7247 19.1886L20.7633 16.2617C20.3782 15.9772 19.8333 16.2521 19.8333 16.7309V18.2003C19.8333 18.2647 19.7811 18.3169 19.7167 18.3169H18.6667C16.2832 18.3169 14.3498 16.3846 14.3498 14C14.3498 11.6154 16.2832 9.68313 18.6667 9.68313H19.7167C19.7811 9.68313 19.8333 9.73537 19.8333 9.7998V11.2691C19.8333 11.7479 20.3783 12.0228 20.7633 11.7383L24.7247 8.81114C25.0402 8.57796 25.0402 8.10599 24.7247 7.87282L20.7633 4.94594Z" fill="currentColor"/>
</svg>
