<svg width="28" height="28" viewBox="0 0 28 28" fill="none" xmlns="http://www.w3.org/2000/svg">
<path d="M19.8333 5.4151C19.8333 4.93633 20.3782 4.66143 20.7633 4.94594L24.7247 7.87282C25.0402 8.10599 25.0402 8.57796 24.7247 8.81114L20.7633 11.7383C20.3783 12.0228 19.8333 11.7479 19.8333 11.2691V9.7998C19.8333 9.73537 19.7811 9.68313 19.7167 9.68313H18.6667C16.2832 9.68313 14.3498 11.6154 14.3498 14C14.3498 16.3846 16.2832 18.3169 18.6667 18.3169H19.7167C19.7811 18.3169 19.8333 18.2647 19.8333 18.2003V16.7309C19.8333 16.2521 20.3782 15.9772 20.7633 16.2617L24.7247 19.1886C25.0402 19.4217 25.0402 19.8937 24.7247 20.1269L20.7633 23.054C20.3783 23.3386 19.8333 23.0637 19.8333 22.5849V21.1167C19.8333 21.0523 19.7811 21 19.7167 21H18.6667C16.2949 21 14.1985 19.8202 12.9323 18.0155C12.8844 17.9472 12.7822 17.9472 12.7343 18.0155C11.4682 19.8202 9.37176 21 6.99999 21H5.24999C4.92782 21 4.66666 20.7389 4.66666 20.4167V18.9003C4.66666 18.5781 4.92782 18.3169 5.24999 18.3169H6.99999C9.38345 18.3169 11.3169 16.3846 11.3169 14C11.3169 11.6154 9.38345 9.68313 6.99999 9.68313H5.24999C4.92782 9.68313 4.66666 9.42197 4.66666 9.0998V7.58336C4.66666 7.26119 4.92782 7.00003 5.24999 7.00003H6.99999C9.37176 7.00003 11.4682 8.17986 12.7343 9.98458C12.7822 10.0528 12.8844 10.0528 12.9323 9.98458C14.1985 8.17986 16.2949 7.00003 18.6667 7.00003H19.7167C19.7811 7.00003 19.8333 6.94779 19.8333 6.88336V5.4151Z" fill="currentColor"/>
<path d="M25.0833 15.75C26.0498 15.75 26.8333 14.9665 26.8333 14C26.8333 13.0335 26.0498 12.25 25.0833 12.25C24.1168 12.25 23.3333 13.0335 23.3333 14C23.3333 14.9665 24.1168 15.75 25.0833 15.75Z" fill="currentColor"/>
</svg>
