<svg width="28" height="28" viewBox="0 0 28 28" fill="none" xmlns="http://www.w3.org/2000/svg">
<path d="M12.8333 15.1667C12.8333 14.8445 13.0945 14.5833 13.4167 14.5833H18.0833C18.4055 14.5833 18.6667 14.8445 18.6667 15.1667V16.3333C18.6667 16.6555 18.4055 16.9167 18.0833 16.9167H13.4167C13.0945 16.9167 12.8333 16.6555 12.8333 16.3333V15.1667Z" fill="currentColor"/>
<path d="M9.91666 10.5C9.59449 10.5 9.33332 10.7612 9.33332 11.0833V12.25C9.33332 12.5722 9.59449 12.8333 9.91666 12.8333H14.5833C14.9055 12.8333 15.1667 12.5722 15.1667 12.25V11.0833C15.1667 10.7612 14.9055 10.5 14.5833 10.5H9.91666Z" fill="currentColor"/>
<path fill-rule="evenodd" clip-rule="evenodd" d="M4.66666 6.41666C4.66666 6.0945 4.92782 5.83333 5.24999 5.83333H22.75C23.0722 5.83333 23.3333 6.0945 23.3333 6.41666V21C23.3333 21.3222 23.0722 21.5833 22.75 21.5833H21.1167C21.0522 21.5833 21 21.6356 21 21.7V23.927C21 24.4058 20.4551 24.6807 20.07 24.3962L16.2939 21.6062C16.2738 21.5913 16.2495 21.5833 16.2245 21.5833H5.24999C4.92782 21.5833 4.66666 21.3222 4.66666 21V6.41666ZM7.58332 8.16666C7.26116 8.16666 6.99999 8.42783 6.99999 8.74999V18.6667C6.99999 18.9888 7.26116 19.25 7.58332 19.25H20.4167C20.7388 19.25 21 18.9888 21 18.6667V8.74999C21 8.42783 20.7388 8.16666 20.4167 8.16666H7.58332Z" fill="currentColor"/>
</svg>
