<svg width="28" height="28" viewBox="0 0 28 28" fill="none" xmlns="http://www.w3.org/2000/svg">
<path fill-rule="evenodd" clip-rule="evenodd" d="M4.66667 6.41666C4.66667 6.0945 4.92784 5.83333 5.25001 5.83333H22.75C23.0722 5.83333 23.3333 6.0945 23.3333 6.41666V21.5833C23.3333 21.9055 23.0722 22.1667 22.75 22.1667H5.25001C4.92784 22.1667 4.66667 21.9055 4.66667 21.5833V6.41666ZM7.00001 8.75C7.00001 8.42783 7.26117 8.16666 7.58334 8.16666H17.3833C17.4478 8.16666 17.5 8.2189 17.5 8.28333V19.7167C17.5 19.7811 17.4478 19.8333 17.3833 19.8333H7.58334C7.26117 19.8333 7.00001 19.5722 7.00001 19.25V8.75Z" fill="currentColor"/>
</svg>
