<svg width="28" height="28" viewBox="0 0 28 28" fill="none" xmlns="http://www.w3.org/2000/svg">
<path fill-rule="evenodd" clip-rule="evenodd" d="M4.66666 6.41666C4.66666 6.0945 4.92783 5.83333 5.25 5.83333H22.75C23.0722 5.83333 23.3333 6.0945 23.3333 6.41666V21.5833C23.3333 21.9055 23.0722 22.1667 22.75 22.1667H5.25C4.92783 22.1667 4.66666 21.9055 4.66666 21.5833V6.41666ZM7 8.75C7 8.42783 7.26116 8.16666 7.58333 8.16666H15.05C15.1144 8.16666 15.1667 8.2189 15.1667 8.28333V19.7167C15.1667 19.7811 15.1144 19.8333 15.05 19.8333H7.58333C7.26116 19.8333 7 19.5722 7 19.25V8.75ZM17.5 19.7167C17.5 19.7811 17.5522 19.8333 17.6167 19.8333H20.4167C20.7388 19.8333 21 19.5722 21 19.25V8.75C21 8.42783 20.7388 8.16666 20.4167 8.16666H17.6167C17.5522 8.16666 17.5 8.2189 17.5 8.28333V19.7167Z" fill="currentColor"/>
</svg>
