<svg width="28" height="28" viewBox="0 0 28 28" fill="none" xmlns="http://www.w3.org/2000/svg">
<path fill-rule="evenodd" clip-rule="evenodd" d="M9.55724 21.5724V9.78848C9.535 9.6184 9.58471 9.44015 9.70637 9.30663C9.74309 9.26501 9.7855 9.22869 9.83236 9.19896L17.0964 3.73604C17.94 3.1016 19.1136 3.83424 18.9403 4.88714L18.2678 8.9738C18.2562 9.04484 18.311 9.10941 18.383 9.10941H23.3327C24.0583 9.10941 24.6079 9.77646 24.4815 10.5037L22.6242 21.1856C22.5256 21.7528 22.0413 22.1661 21.4754 22.1661H10.1406C9.8184 22.1661 9.55724 21.9003 9.55724 21.5724ZM15.5192 11.3071C15.5075 11.3782 15.5623 11.4427 15.6343 11.4427H21.8112C21.8836 11.4427 21.9385 11.508 21.9261 11.5794L20.5079 19.7361C20.4982 19.792 20.4496 19.8328 20.3929 19.8328L12.0072 19.8328C11.9428 19.8328 11.8906 19.7805 11.8906 19.7161V10.6289C11.8906 10.5922 11.9078 10.5576 11.9371 10.5356L15.9375 7.52711C16.0216 7.46388 16.1398 7.53549 16.1227 7.6393L15.5192 11.3071Z" fill="currentColor"/>
<path d="M7.58333 9.92065C7.58333 9.59849 7.32216 9.33732 7 9.33732H5.25C4.92783 9.33732 4.66666 9.59849 4.66666 9.92065V21.5828C4.66666 21.9049 4.92783 22.1661 5.25 22.1661H7C7.32216 22.1661 7.58333 21.9049 7.58333 21.5828L7.58333 9.92065Z" fill="currentColor"/>
</svg>
