<svg width="28" height="28" viewBox="0 0 28 28" fill="none" xmlns="http://www.w3.org/2000/svg">
<path fill-rule="evenodd" clip-rule="evenodd" d="M18.4428 6.42756V18.2115C18.465 18.3816 18.4153 18.5598 18.2936 18.6933C18.2569 18.735 18.2145 18.7713 18.1676 18.801L10.9036 24.2639C10.06 24.8984 8.8864 24.1657 9.05966 23.1128L9.73215 19.0262C9.74384 18.9551 9.68903 18.8906 9.61703 18.8906H4.66734C3.94168 18.8906 3.39207 18.2235 3.51852 17.4963L5.37581 6.81435C5.47443 6.2472 5.95873 5.83386 6.52463 5.83386L17.8594 5.83386C18.1816 5.83386 18.4428 6.09967 18.4428 6.42756ZM12.4808 16.6928C12.4925 16.6218 12.4377 16.5572 12.3657 16.5572H6.18884C6.11641 16.5572 6.06149 16.4919 6.07389 16.4206L7.49212 8.26388C7.50184 8.20799 7.55034 8.1672 7.60706 8.1672L15.9928 8.1672C16.0572 8.1672 16.1094 8.21943 16.1094 8.28386V17.3711C16.1094 17.4078 16.0922 17.4423 16.0629 17.4644L12.0625 20.4729C11.9784 20.5361 11.8602 20.4645 11.8773 20.3607L12.4808 16.6928Z" fill="currentColor"/>
<path d="M20.4167 18.0793C20.4167 18.4015 20.6778 18.6627 21 18.6627H22.75C23.0722 18.6627 23.3333 18.4015 23.3333 18.0793V6.41721C23.3333 6.09505 23.0722 5.83388 22.75 5.83388H21C20.6778 5.83388 20.4167 6.09505 20.4167 6.41721V18.0793Z" fill="currentColor"/>
</svg>
