<svg width="28" height="28" viewBox="0 0 28 28" fill="none" xmlns="http://www.w3.org/2000/svg">
<path d="M12.8334 14.5833C12.8334 14.9055 13.0945 15.1667 13.4167 15.1667H14.5834C14.9055 15.1667 15.1667 14.9055 15.1667 14.5833V9.91668C15.1667 9.59451 14.9055 9.33334 14.5834 9.33334H13.4167C13.0945 9.33334 12.8334 9.59451 12.8334 9.91668V14.5833Z" fill="currentColor"/>
<path fill-rule="evenodd" clip-rule="evenodd" d="M10.5 1.74973C10.1779 1.74973 9.91669 2.01089 9.91669 2.33306V3.49973C9.91669 3.82189 10.1779 4.08306 10.5 4.08306H12.7167C12.7811 4.08306 12.8334 4.13529 12.8334 4.19973V4.63586C12.8334 4.69471 12.7892 4.74431 12.7309 4.75224C8.17657 5.37142 4.66669 9.27583 4.66669 14C4.66669 19.1547 8.84536 23.3333 14 23.3333C19.1547 23.3333 23.3334 19.1547 23.3334 14C23.3334 9.27583 19.8235 5.37142 15.2692 4.75224C15.2108 4.74431 15.1667 4.69471 15.1667 4.63586V4.19973C15.1667 4.13529 15.2189 4.08306 15.2834 4.08306H17.5C17.8222 4.08306 18.0834 3.82189 18.0834 3.49973V2.33306C18.0834 2.01089 17.8222 1.74973 17.5 1.74973H10.5ZM21 14C21 17.866 17.866 21 14 21C10.134 21 7.00002 17.866 7.00002 14C7.00002 10.134 10.134 7.00001 14 7.00001C17.866 7.00001 21 10.134 21 14Z" fill="currentColor"/>
</svg>
