<svg width="28" height="28" viewBox="0 0 28 28" fill="none" xmlns="http://www.w3.org/2000/svg">
<path fill-rule="evenodd" clip-rule="evenodd" d="M17.8109 5.75937C18.0663 5.54486 18.0918 5.15776 17.8405 4.93831C16.8151 4.04258 15.4736 3.5 14.0046 3.5C10.8217 3.5 8.23471 6.04831 8.17237 9.21626C8.1711 9.28068 8.11899 9.33333 8.05455 9.33333H6.41666C6.0945 9.33333 5.83333 9.5945 5.83333 9.91667V22.75C5.83333 23.0722 6.0945 23.3333 6.41666 23.3333H21.5833C21.9055 23.3333 22.1667 23.0722 22.1667 22.75V9.91667C22.1667 9.5945 21.9055 9.33333 21.5833 9.33333H10.6212C10.5568 9.33333 10.5044 9.28084 10.5065 9.21645C10.5681 7.33716 12.1102 5.83333 14.0046 5.83333C14.3805 5.83333 14.7428 5.89258 15.0824 6.00195C15.4458 6.11977 15.7832 6.29535 16.0838 6.5178C16.3277 6.69839 16.6683 6.71879 16.9007 6.52361L17.8109 5.75937ZM8.16666 12.25C8.16666 11.9278 8.42783 11.6667 8.75 11.6667H19.25C19.5722 11.6667 19.8333 11.9278 19.8333 12.25V20.4167C19.8333 20.7388 19.5722 21 19.25 21H8.75C8.42783 21 8.16666 20.7388 8.16666 20.4167V12.25Z" fill="currentColor"/>
</svg>
