<svg width="28" height="28" viewBox="0 0 28 28" fill="none" xmlns="http://www.w3.org/2000/svg">
<path d="M18.0833 9.33335C18.0833 11.9107 15.994 14 13.4167 14C10.8393 14 8.75 11.9107 8.75 9.33335C8.75 6.75602 10.8393 4.66669 13.4167 4.66669C15.994 4.66669 18.0833 6.75602 18.0833 9.33335Z" fill="currentColor"/>
<path d="M9.33333 15.75C6.756 15.75 4.66667 17.8394 4.66667 20.4167V23.2167C4.66667 23.2811 4.7189 23.3334 4.78333 23.3334H7.46667C7.5311 23.3334 7.58333 23.2811 7.58333 23.2167V21C7.58333 19.7114 8.628 18.6667 9.91667 18.6667H15.05C15.1144 18.6667 15.1667 18.6145 15.1667 18.55V15.8667C15.1667 15.8023 15.1144 15.75 15.05 15.75H9.33333Z" fill="currentColor"/>
<path d="M22.75 23.3334C23.0722 23.3334 23.3333 23.0722 23.3333 22.75V21.5834C23.3333 21.2612 23.0722 21 22.75 21H20.5333C20.4689 21 20.4167 20.9478 20.4167 20.8834V18.6667C20.4167 18.3445 20.1555 18.0834 19.8333 18.0834H18.6667C18.3445 18.0834 18.0833 18.3445 18.0833 18.6667V20.8834C18.0833 20.9478 18.0311 21 17.9667 21H15.75C15.4278 21 15.1667 21.2612 15.1667 21.5834V22.75C15.1667 23.0722 15.4278 23.3334 15.75 23.3334H17.9667C18.0311 23.3334 18.0833 23.3856 18.0833 23.45V25.6667C18.0833 25.9889 18.3445 26.25 18.6667 26.25H19.8333C20.1555 26.25 20.4167 25.9889 20.4167 25.6667V23.45C20.4167 23.3856 20.4689 23.3334 20.5333 23.3334H22.75Z" fill="currentColor"/>
</svg>
