<svg width="28" height="28" viewBox="0 0 28 28" fill="none" xmlns="http://www.w3.org/2000/svg">
<path d="M14 14C16.5773 14 18.6667 11.9107 18.6667 9.33332C18.6667 6.75599 16.5773 4.66666 14 4.66666C11.4227 4.66666 9.33333 6.75599 9.33333 9.33332C9.33333 11.9107 11.4227 14 14 14Z" fill="currentColor"/>
<path d="M9.91667 15.75C7.33934 15.75 5.25 17.8393 5.25 20.4167V23.2167C5.25 23.2811 5.30223 23.3333 5.36667 23.3333H8.05C8.11443 23.3333 8.16667 23.2811 8.16667 23.2167V21C8.16667 19.7113 9.21134 18.6667 10.5 18.6667H17.5C18.7887 18.6667 19.8333 19.7113 19.8333 21V23.2167C19.8333 23.2811 19.8856 23.3333 19.95 23.3333H22.6331C22.6975 23.3333 22.7497 23.2811 22.7497 23.2167L22.75 20.4167C22.75 17.8393 20.6607 15.75 18.0833 15.75H9.91667Z" fill="currentColor"/>
</svg>
