<svg width="28" height="28" viewBox="0 0 28 28" fill="none" xmlns="http://www.w3.org/2000/svg">
<path d="M15.3205 21.577C15.3205 22.0557 14.7756 22.3307 14.3905 22.0461L8.26741 17.5221C8.24734 17.5072 8.22304 17.4992 8.19808 17.4992H4.08333C3.76117 17.4992 3.5 17.2381 3.5 16.9159V11.0826C3.5 10.7604 3.76117 10.4992 4.08333 10.4992H8.19976C8.22471 10.4992 8.24902 10.4912 8.26909 10.4764L14.3905 5.95314C14.7755 5.66861 15.3205 5.9435 15.3205 6.42229L15.3205 21.577Z" fill="currentColor"/>
<path d="M19.9871 11.0833C19.9871 10.7612 19.726 10.5 19.4038 10.5L18.2371 10.5C17.915 10.5 17.6538 10.7612 17.6538 11.0833V16.9167C17.6538 17.2388 17.915 17.5 18.2371 17.5H19.4038C19.726 17.5 19.9871 17.2388 19.9871 16.9167L19.9871 11.0833Z" fill="currentColor"/>
</svg>
