<svg width="28" height="28" viewBox="0 0 28 28" fill="none" xmlns="http://www.w3.org/2000/svg">
<path d="M15.3205 21.577C15.3205 22.0558 14.7756 22.3307 14.3905 22.0462L8.26741 17.5221C8.24734 17.5073 8.22304 17.4993 8.19808 17.4993H4.08333C3.76117 17.4993 3.5 17.2381 3.5 16.9159V11.0826C3.5 10.7604 3.76117 10.4993 4.08333 10.4993H8.19976C8.22471 10.4993 8.24902 10.4913 8.26909 10.4764L14.3905 5.95318C14.7755 5.66865 15.3205 5.94355 15.3205 6.42233L15.3205 21.577Z" fill="currentColor"/>
<path d="M24.0705 8.16669C24.3926 8.16669 24.6538 8.42786 24.6538 8.75003V19.25C24.6538 19.5722 24.3926 19.8334 24.0705 19.8334H22.9038C22.5816 19.8334 22.3205 19.5722 22.3205 19.25V8.75003C22.3205 8.42786 22.5816 8.16669 22.9038 8.16669H24.0705Z" fill="currentColor"/>
<path d="M19.4038 10.5C19.726 10.5 19.9871 10.7612 19.9871 11.0834L19.9871 16.9167C19.9871 17.2389 19.726 17.5 19.4038 17.5H18.2371C17.915 17.5 17.6538 17.2389 17.6538 16.9167V11.0834C17.6538 10.7612 17.915 10.5 18.2371 10.5H19.4038Z" fill="currentColor"/>
</svg>
