<svg width="28" height="28" viewBox="0 0 28 28" fill="none" xmlns="http://www.w3.org/2000/svg">
<path d="M8.92646 20.4758C9.15427 20.7036 9.52361 20.7036 9.75142 20.4758L13.9175 16.3098C13.963 16.2642 14.0369 16.2642 14.0825 16.3098L18.2485 20.4759C18.4763 20.7037 18.8457 20.7037 19.0735 20.4759L20.4759 19.0734C20.7037 18.8456 20.7037 18.4763 20.4759 18.2485L16.3099 14.0824C16.2643 14.0368 16.2643 13.963 16.3099 13.9174L20.4759 9.75139C20.7037 9.52358 20.7037 9.15424 20.4759 8.92643L19.0734 7.524C18.8456 7.2962 18.4763 7.2962 18.2485 7.524L14.0825 11.69C14.0369 11.7356 13.963 11.7356 13.9175 11.69L9.75147 7.52401C9.52366 7.29621 9.15432 7.29621 8.92651 7.52402L7.52408 8.92644C7.29628 9.15425 7.29628 9.52359 7.52408 9.7514L11.6901 13.9174C11.7357 13.963 11.7357 14.0368 11.6901 14.0824L7.52403 18.2485C7.29623 18.4763 7.29623 18.8456 7.52403 19.0734L8.92646 20.4758Z" fill="currentColor"/>
</svg>
